<?xml version="1.0" standalone="no"?>
<!DOCTYPE svg PUBLIC "-//W3C//DTD SVG 1.1//EN" "http://www.w3.org/Graphics/SVG/1.1/DTD/svg11.dtd" >
<svg xmlns="http://www.w3.org/2000/svg" xmlns:xlink="http://www.w3.org/1999/xlink" version="1.1">
<metadata>
Created by FontForge 20170731 at Wed Jul  8 16:02:46 2020
 By Aleksey,,,
Copyright 2010 The Raleway Project Authors (impallari@gmail.com), with Reserved Font Name "Raleway".
</metadata>
<defs>
<font id="Raleway-Bold" horiz-adv-x="0" >
  <font-face 
    font-family="Raleway"
    font-weight="700"
    font-stretch="normal"
    units-per-em="1000"
    panose-1="0 0 0 0 0 0 0 0 0 0"
    ascent="800"
    descent="-200"
    x-height="524"
    cap-height="710"
    bbox="-202 -229 1329 1128"
    underline-thickness="50"
    underline-position="-175"
    unicode-range="U+000D-FB06"
  />
<missing-glyph horiz-adv-x="608" 
d="M558 29q0 -29 -33 -29h-448q-16 0 -21.5 6t-5.5 19v662q0 23 19 23h471q18 0 18 -21v-660zM506 74v568q0 18 -15 18h-373q-16 0 -16 -19v-570q0 -10 5 -15.5t18 -5.5h353q28 0 28 24zM478 28l-407 641l52 27l415 -663z" />
    <glyph glyph-name="f_f" unicode="ff" horiz-adv-x="642" 
d="M93 0v394h-69v102h69v13q0 55 22 99t62.5 70t96.5 26q37 0 71 -9.5t70 -25.5l-28 -102q-22 12 -44 17.5t-42 5.5q-18 0 -32 -6t-23.5 -16.5t-14 -24.5t-4.5 -29v-18h128v-102h-128v-394h-134zM355 0v394h-69v102h69v32q0 65 21.5 112.5t61 73.5t92.5 26q32 0 64.5 -8
t64.5 -23l-27 -101q-15 8 -35 13.5t-38 5.5q-34 0 -52 -24t-18 -70v-37h128v-102h-128v-394h-134z" />
    <glyph glyph-name="fi" unicode="fi" horiz-adv-x="568" 
d="M93 394h-69v102h69v32q0 44 14.5 82t42 67.5t67 46t89.5 16.5q38 0 71.5 -8t64 -23t58.5 -34l-53 -100q-26 23 -61 37t-71 14q-29 0 -49 -13t-29.5 -34t-9.5 -46v-37h281v-496h-134v394h-147v-394h-134v394z" />
    <glyph glyph-name="fl" unicode="fl" horiz-adv-x="657" 
d="M532 -8q-61 0 -96.5 33t-35.5 84v408q0 30 -7 55t-25 39.5t-52 14.5q-32 0 -51.5 -14t-28.5 -39.5t-9 -58.5v-18h87v-102h-87v-394h-134v394h-69v102h69v44q0 65 26.5 109.5t75.5 67.5t117 23q114 0 168 -54t54 -142v-372q0 -32 11 -46t31 -14q19 0 38 6t27 9l18 -108
q-8 -4 -29 -10.5t-47 -11.5t-51 -5z" />
    <glyph glyph-name="f_f_i" unicode="ffi" horiz-adv-x="831" 
d="M93 0v394h-69v102h69v13q0 55 22 99t62.5 70t96.5 26q37 0 71 -9.5t70 -25.5l-28 -102q-22 12 -44 17.5t-42 5.5q-18 0 -32 -6t-23.5 -16.5t-14 -24.5t-4.5 -29v-18h128v-102h-128v-394h-134zM355 394h-68v102h68v32q0 44 14.5 82t42 67.5t67.5 46t90 16.5q38 0 71.5 -8
t64 -23t58.5 -34l-54 -100q-25 23 -60 37t-71 14q-30 0 -49.5 -13t-29.5 -34t-10 -46v-37h282v-496h-134v394h-148v-394h-134v394z" />
    <glyph glyph-name="f_f_l" unicode="ffl" horiz-adv-x="920" 
d="M93 0v394h-69v102h69v13q0 55 22 99t62.5 70t96.5 26q37 0 71 -9.5t70 -25.5l-28 -102q-22 12 -44 17.5t-42 5.5q-18 0 -32 -6t-23.5 -16.5t-14 -24.5t-4.5 -29v-18h128v-102h-128v-394h-134zM796 -8q-62 0 -97.5 33t-35.5 84v408q0 30 -6.5 55t-25 39.5t-52.5 14.5
q-32 0 -51.5 -14t-28 -39.5t-9.5 -58.5v-18h88v-102h-88v-394h-134v394h-68v102h68v44q0 65 26.5 109.5t75.5 67.5t117 23q114 0 168 -54t54 -142v-372q0 -32 11 -46t31 -14q19 0 38.5 6t26.5 9l18 -108q-8 -4 -29 -10.5t-46.5 -11.5t-50.5 -5z" />
    <glyph glyph-name=".notdef" horiz-adv-x="608" 
d="M558 29q0 -29 -33 -29h-448q-16 0 -21.5 6t-5.5 19v662q0 23 19 23h471q18 0 18 -21v-660zM506 74v568q0 18 -15 18h-373q-16 0 -16 -19v-570q0 -10 5 -15.5t18 -5.5h353q28 0 28 24zM478 28l-407 641l52 27l415 -663z" />
    <glyph glyph-name=".null" 
 />
    <glyph glyph-name="nonmarkingreturn" horiz-adv-x="333" 
 />
    <glyph glyph-name="NULL" 
 />
    <glyph glyph-name="NULL" 
 />
    <glyph glyph-name="CR" unicode="&#xd;" 
 />
    <glyph glyph-name="space" unicode=" " horiz-adv-x="240" 
 />
    <glyph glyph-name="exclam" unicode="!" horiz-adv-x="307" 
d="M87 267v450h134v-450h-134zM87 0v151h134v-151h-134z" />
    <glyph glyph-name="quotedbl" unicode="&#x22;" horiz-adv-x="393" 
d="M61 499v224h114v-224h-114zM218 499v224h114v-224h-114z" />
    <glyph glyph-name="numbersign" unicode="#" horiz-adv-x="721" 
d="M685 424h-146l-32 -137h131v-100h-155l-46 -187h-108l47 187h-120l-45 -187h-108l46 187h-112v100h136l33 137h-122v94h145l47 192h108l-48 -192h120l46 192h108l-47 -192h122v-94zM400 287l32 137h-119l-33 -137h120z" />
    <glyph glyph-name="dollar" unicode="$" horiz-adv-x="634" 
d="M288 64h67v-181h-67v181zM297 80v547l48 11v-560zM288 815h67v-165l-67 -10v175zM509 524q-7 7 -25.5 19t-45 23t-57.5 19.5t-63 8.5q-56 0 -84.5 -21t-28.5 -59q0 -29 18 -46t54 -29t90 -26q70 -17 121.5 -41.5t79 -64t27.5 -104.5q0 -57 -21 -97.5t-58 -65.5
t-84.5 -36.5t-99.5 -11.5q-53 0 -106.5 11t-102 31.5t-89.5 49.5l61 119q9 -9 32 -23.5t55.5 -29t72 -24.5t79.5 -10q56 0 85 19t29 54q0 32 -23 50t-64.5 31.5t-96.5 29.5q-68 19 -113 42.5t-67 59.5t-22 90q0 73 35 122.5t94 75t131 25.5q50 0 94.5 -11t83.5 -29t70 -39z
" />
    <glyph glyph-name="percent" unicode="%" horiz-adv-x="786" 
d="M200 417q-46 0 -83 20.5t-59.5 55t-22.5 76.5t22.5 76.5t59.5 54.5t83 20t83.5 -20t59.5 -54.5t22 -76.5t-22 -76.5t-59.5 -55t-83.5 -20.5zM200 484q20 0 36 12t25.5 31t9.5 41q0 24 -10 43t-26 30.5t-35 11.5q-20 0 -36 -11.5t-25.5 -30.5t-9.5 -42t10 -42.5t26 -31
t35 -11.5zM586 -10q-46 0 -83 20t-59.5 54.5t-22.5 76.5q0 43 22.5 77t59.5 54.5t83 20.5t83.5 -20.5t59.5 -54.5t22 -76t-22 -76.5t-59.5 -55t-83.5 -20.5zM586 57q20 0 36 12t25.5 31t9.5 41q0 24 -9.5 43t-26 30.5t-35.5 11.5t-35.5 -11.5t-26 -31t-9.5 -41.5
q0 -24 10 -43t26 -30.5t35 -11.5zM92 47l281 329l260 342l61 -54l-274 -324l-268 -347z" />
    <glyph glyph-name="ampersand" unicode="&#x26;" horiz-adv-x="712" 
d="M536 0l-334 354q-42 45 -67.5 77.5t-36.5 59.5t-11 58q0 51 25.5 89.5t70 59.5t99.5 21q50 0 92.5 -17.5t69.5 -52.5t27 -87q0 -47 -23.5 -85t-62.5 -70t-88 -62q-36 -23 -65.5 -45t-46 -46.5t-16.5 -53.5q0 -28 16 -52t44.5 -38.5t63.5 -14.5q43 0 83.5 21t72.5 59.5
t50.5 92.5t18.5 121h109q0 -95 -29 -168.5t-78 -125t-111 -78.5t-129 -27q-73 0 -127 29.5t-83.5 77.5t-29.5 104t26 98t66 74.5t80 57.5q44 28 74 47.5t46 39t16 42.5q0 27 -18.5 43.5t-47.5 16.5q-22 0 -38.5 -9t-25.5 -24t-9 -34q0 -14 8.5 -28t30 -36.5t59.5 -63.5
l405 -425h-176z" />
    <glyph glyph-name="quotesingle" unicode="'" horiz-adv-x="235" 
d="M61 499v224h114v-224h-114z" />
    <glyph glyph-name="parenleft" unicode="(" horiz-adv-x="310" 
d="M34 347q0 101 43 202.5t106 207.5l102 -43q-15 -24 -36.5 -65t-42 -92.5t-34 -106.5t-13.5 -106q0 -80 34.5 -167.5t88.5 -180.5l-98 -49q-41 63 -75.5 129t-54.5 135t-20 136z" />
    <glyph glyph-name="parenright" unicode=")" horiz-adv-x="309" 
d="M275 347q0 -67 -20 -136t-54 -135t-76 -129l-98 49q55 93 89 180.5t34 167.5q0 51 -13.5 106t-34 106.5t-41.5 92.5t-37 65l103 43q62 -106 105 -207.5t43 -202.5z" />
    <glyph glyph-name="asterisk" unicode="*" horiz-adv-x="345" 
d="M75 520l47 71l-71 22l18 58l73 -31l-5 77h71l-5 -77l72 31l18 -58l-70 -22l47 -71l-52 -34l-45 75l-46 -75z" />
    <glyph glyph-name="plus" unicode="+" horiz-adv-x="421" 
d="M374 409v-108h-103v-113h-121v113h-103v108h103v113h121v-113h103z" />
    <glyph glyph-name="comma" unicode="," horiz-adv-x="232" 
d="M73 -115l27 119h-42v140h116v-140l-41 -119h-60z" />
    <glyph glyph-name="hyphen" unicode="-" horiz-adv-x="418" 
d="M58 214v121h303v-121h-303z" />
    <glyph glyph-name="period" unicode="." horiz-adv-x="225" 
d="M58 0v144h110v-144h-110z" />
    <glyph glyph-name="slash" unicode="/" horiz-adv-x="698" 
d="M671 710l-496 -710h-148l495 710h149z" />
    <glyph glyph-name="zero" unicode="0" horiz-adv-x="614" 
d="M565 293q0 -88 -33.5 -156.5t-92 -107.5t-132.5 -39t-132.5 39t-92 107.5t-33.5 156.5t33.5 156.5t92 108t132.5 39.5t132.5 -39.5t92 -108t33.5 -156.5zM430 293q0 54 -15.5 94.5t-43.5 63.5t-64 23q-37 0 -65 -23t-43.5 -63.5t-15.5 -94.5t15.5 -94t43.5 -63t65 -23
q36 0 63.5 23t43.5 63.5t16 93.5z" />
    <glyph glyph-name="one" unicode="1" horiz-adv-x="494" 
d="M470 121v-121h-406v121h142v303q-9 -12 -28 -24.5t-43 -23.5t-48 -18t-43 -7v125q18 0 43.5 11.5t51 27.5t44 31.5t23.5 24.5h137v-450h127z" />
    <glyph glyph-name="two" unicode="2" horiz-adv-x="564" 
d="M38 0q0 45 7 81t24.5 67t48 58.5t77.5 53.5q41 22 72 38.5t52.5 30.5t32.5 28.5t11 33.5q0 20 -11 36.5t-31 26.5t-50 10q-24 0 -44.5 -6t-38 -17t-32.5 -24.5t-27 -28.5l-85 98q14 14 37.5 30.5t56 31t72 24t84.5 9.5q68 0 116 -21.5t73.5 -59.5t25.5 -89q0 -35 -13 -62
t-33 -47.5t-43.5 -36.5t-45.5 -28q-31 -16 -56 -29.5t-44 -27t-33.5 -27.5t-25.5 -32h305v-121h-482z" />
    <glyph glyph-name="three" unicode="3" horiz-adv-x="558" 
d="M381 236q42 -7 73 -31.5t48.5 -62.5t17.5 -84q0 -62 -32 -108t-90.5 -71.5t-137.5 -25.5q-76 0 -134.5 24.5t-97.5 71.5l76 95q26 -32 62.5 -50.5t89.5 -18.5q61 0 93 24.5t32 73.5q0 52 -37 80t-112 28h-28v100h31q61 0 95.5 28t34.5 70q0 27 -13 45t-35.5 27t-52.5 9
q-45 0 -82 -21t-60 -59l-84 94q21 31 57.5 53.5t84 35.5t99.5 13q68 0 119.5 -22t80.5 -62t29 -93q0 -39 -16 -74t-44.5 -58.5t-66.5 -30.5z" />
    <glyph glyph-name="four" unicode="4" horiz-adv-x="571" 
d="M312 -127v149h-292v119l335 430h91v-429h88v-120h-88v-149h-134zM154 142h173v226z" />
    <glyph glyph-name="five" unicode="5" horiz-adv-x="554" 
d="M262 -149q-77 0 -139 33t-94 90l77 80q28 -39 70 -62t87 -23q36 0 63.5 15t43.5 42t16 62t-15 61t-41 40.5t-59 14.5t-61.5 -14.5t-45.5 -41.5h-117l82 423h350v-122h-253l-29 -159q13 12 36 20.5t57 8.5q67 0 120 -29t83 -80.5t30 -118.5q0 -71 -34 -125.5t-93 -84.5
t-134 -30z" />
    <glyph glyph-name="six" unicode="6" horiz-adv-x="607" 
d="M567 237q0 67 -32.5 120.5t-88.5 85t-127 31.5q-33 0 -62 -9.5t-51 -27t-36 -41.5q2 64 20 109.5t51 69.5t78 24q44 0 82 -21.5t62 -58.5l77 84q-39 54 -95.5 83t-123.5 29q-84 0 -146 -45.5t-95.5 -135t-33.5 -218.5q0 -102 32 -175t90.5 -112t138.5 -39q74 0 132.5 33
t93 89t34.5 125zM307 103q-34 0 -64 18.5t-48 49t-18 66.5t17.5 65.5t47.5 47t66 17.5t65.5 -17.5t47.5 -47t18 -65.5t-18 -66.5t-48 -49t-66 -18.5z" />
    <glyph glyph-name="seven" unicode="7" horiz-adv-x="561" 
d="M351 461h-323v122h534l-352 -710h-152z" />
    <glyph glyph-name="eight" unicode="8" horiz-adv-x="604" 
d="M560 210q0 -66 -35.5 -115t-94.5 -76.5t-129 -27.5q-71 0 -129.5 29t-93 79.5t-34.5 115.5q0 40 17 72.5t42.5 56t51.5 36.5q-24 12 -44.5 32t-32.5 46t-12 55q0 47 21 84t56 62.5t76.5 38t82.5 12.5q40 0 82 -12.5t77 -37.5t56.5 -61.5t21.5 -84.5q0 -28 -12.5 -54.5
t-33 -47t-46.5 -32.5q29 -15 55 -39t42 -57t16 -74zM424 218q0 26 -10 45.5t-28 33t-40 20.5t-45 7q-32 0 -59.5 -13t-44.5 -37t-17 -56q0 -24 10.5 -43.5t28 -33.5t39 -21.5t44.5 -7.5q32 0 60 14t45 38t17 54zM202 509q0 -27 15 -46t38.5 -28.5t46.5 -9.5q24 0 46.5 10
t38 28.5t15.5 46.5q0 25 -14 43t-36.5 28t-50.5 10q-26 0 -49 -10t-36.5 -28.5t-13.5 -43.5z" />
    <glyph glyph-name="nine" unicode="9" horiz-adv-x="589" 
d="M32 324q0 -67 32.5 -120.5t89 -85t125.5 -31.5q34 0 62.5 9.5t51 27.5t35.5 41q-1 -64 -19.5 -109.5t-51 -69.5t-77.5 -24q-44 0 -82.5 21.5t-62.5 58.5l-77 -84q39 -54 96 -83t124 -29q84 0 146 46t95.5 135t33.5 218q0 103 -32 175.5t-90.5 111.5t-139.5 39
q-73 0 -132 -33t-93 -89t-34 -125zM291 458q35 0 65 -18.5t48 -49t18 -66.5t-18 -65.5t-47.5 -47t-65.5 -17.5t-66 17.5t-47.5 47t-17.5 65.5q0 37 18 67t48 48.5t65 18.5z" />
    <glyph glyph-name="colon" unicode=":" horiz-adv-x="247" 
d="M69 374v144h109v-144h-109zM69 0v144h109v-144h-109z" />
    <glyph glyph-name="semicolon" unicode=";" horiz-adv-x="259" 
d="M72 374v144h110v-144h-110zM86 -115l27 119h-42v140h117v-140l-41 -119h-61z" />
    <glyph glyph-name="less" unicode="&#x3c;" horiz-adv-x="515" 
d="M32 288l422 255v-142l-227 -142l227 -136v-150l-422 250v65z" />
    <glyph glyph-name="equal" unicode="=" horiz-adv-x="436" 
d="M62 144v87h313v-87h-313zM62 321v87h313v-87h-313z" />
    <glyph glyph-name="greater" unicode="&#x3e;" horiz-adv-x="515" 
d="M483 223l-422 -250v150l227 136l-227 142v142l422 -255v-65z" />
    <glyph glyph-name="question" unicode="?" horiz-adv-x="486" 
d="M122 233q0 32 6.5 60.5t24.5 52.5t51 43q14 9 36.5 21t43.5 27.5t35.5 37t14.5 49.5t-13.5 47t-35 29t-46.5 10q-29 0 -52 -12.5t-39 -30.5t-27 -37l-87 60q18 41 49.5 70t73 44t86.5 15q38 0 75 -11.5t67 -35.5t48 -61t18 -89q0 -32 -7.5 -57t-21 -44.5t-33.5 -35.5
t-43 -31q-26 -16 -52.5 -31t-44 -35.5t-17.5 -54.5h-110zM124 0v138h111v-138h-111z" />
    <glyph glyph-name="at" unicode="@" horiz-adv-x="845" 
d="M422 603q74 0 141 -24.5t119.5 -73t82.5 -120t30 -163.5q0 -17 -2.5 -46t-10.5 -62t-24.5 -62.5t-45 -48.5t-71.5 -19q-36 0 -55.5 12.5t-28 31.5t-11.5 38q-31 -31 -75 -49.5t-95 -18.5q-74 0 -113.5 39.5t-39.5 100.5q0 55 27.5 86.5t71 45.5t88.5 14q40 0 69 -7.5
t44 -14.5q0 36 -9.5 64t-34.5 43.5t-70 15.5q-41 0 -75 -12t-58 -32l-26 71q37 25 80.5 37.5t91.5 12.5q65 0 102 -19.5t53.5 -51t21 -68t4.5 -70.5v-96q0 -29 3 -55t14 -42t34 -16q27 0 44 19.5t26 49.5t12 60.5t3 50.5q0 70 -23 129.5t-66 103.5t-101.5 68t-130.5 24
q-70 0 -129 -23.5t-101.5 -66.5t-66 -101.5t-23.5 -127.5q0 -67 22 -125.5t62.5 -102.5t97.5 -69t127 -25q47 0 83 11t73 27l16 -52q-41 -20 -85.5 -30t-88.5 -10q-75 0 -141 27t-115.5 77t-78 119t-28.5 153q0 89 31 158.5t84 117t121.5 72.5t143.5 25zM471 87
q18 9 29.5 20.5t16.5 25t5 28.5v38q-14 4 -44 12.5t-68 8.5q-31 0 -55 -7.5t-38 -25.5t-14 -46q0 -23 10 -39.5t28 -25.5t43 -9q20 0 44 5t43 15z" />
    <glyph glyph-name="A" unicode="A" horiz-adv-x="672" 
d="M267 710h140l261 -710h-142l-66 177h-248l-65 -177h-142zM435 274l-98 293l-102 -293h200z" />
    <glyph glyph-name="B" unicode="B" horiz-adv-x="680" 
d="M646 183q0 -60 -31 -100.5t-83.5 -61.5t-114.5 -21h-343v710h380q50 0 86.5 -26.5t56 -68t19.5 -86.5q0 -51 -26 -97t-76 -68q61 -18 96.5 -65t35.5 -116zM507 209q0 27 -11 48.5t-29.5 34t-42.5 12.5h-212v-187h205q25 0 45.5 12.5t32.5 33.5t12 46zM212 592v-179h184
q23 0 42 11t30.5 31t11.5 48q0 27 -10.5 47t-28 31t-39.5 11h-190z" />
    <glyph glyph-name="C" unicode="C" horiz-adv-x="686" 
d="M31 360q0 65 23.5 127.5t68.5 114t110 82t148 30.5q98 0 169.5 -43t106.5 -112l-106 -73q-18 40 -47 63.5t-62 33t-65 9.5q-52 0 -90.5 -21t-64.5 -55t-38.5 -76t-12.5 -84q0 -47 15 -90.5t42.5 -77t66 -53t84.5 -19.5q33 0 67 11t63 35t45 62l113 -65q-21 -53 -68.5 -90
t-106.5 -56t-117 -19q-76 0 -139 31.5t-108.5 84t-71 118t-25.5 132.5z" />
    <glyph glyph-name="D" unicode="D" horiz-adv-x="716" 
d="M74 0v710h258q116 0 194 -47.5t117 -128t39 -178.5q0 -108 -43 -188t-121.5 -124t-185.5 -44h-258zM543 356q0 69 -25 121.5t-72 82t-114 29.5h-120v-468h120q68 0 115 30.5t71.5 84t24.5 120.5z" />
    <glyph glyph-name="E" unicode="E" horiz-adv-x="601" 
d="M567 121v-121h-493v710h484v-121h-346v-171h299v-112h-299v-185h355z" />
    <glyph glyph-name="F" unicode="F" horiz-adv-x="574" 
d="M74 0v710h477v-121h-339v-183h282v-112h-282v-294h-138z" />
    <glyph glyph-name="G" unicode="G" horiz-adv-x="725" 
d="M369 -5q-69 0 -130.5 28t-108 77.5t-72.5 115.5t-26 143q0 73 26 137.5t73 113.5t110 77t137 28q100 0 171.5 -42.5t107.5 -112.5l-103 -76q-27 53 -75.5 81t-105.5 28q-45 0 -82 -19t-64 -52t-41.5 -76t-14.5 -91q0 -51 15.5 -94t44 -75t66.5 -50.5t84 -18.5
q54 0 103.5 28t92.5 82v-136q-89 -96 -208 -96zM567 264h-143v101h257v-365h-114v264z" />
    <glyph glyph-name="H" unicode="H" horiz-adv-x="745" 
d="M671 710v-710h-137v303h-322v-303h-138v710h138v-287h322v287h137z" />
    <glyph glyph-name="I" unicode="I" horiz-adv-x="286" 
d="M74 0v710h138v-710h-138z" />
    <glyph glyph-name="J" unicode="J" horiz-adv-x="491" 
d="M38 145q13 -9 46 -21.5t78 -12.5q39 0 64 13.5t38.5 40.5t18 70t4.5 103v372h138v-361q0 -80 -9 -146t-35 -114t-78.5 -74t-139.5 -26q-48 0 -86 11t-70 33z" />
    <glyph glyph-name="K" unicode="K" horiz-adv-x="669" 
d="M74 0v709h138v-337l298 338h152l-272 -315l289 -395h-156l-221 306l-90 -94v-212h-138z" />
    <glyph glyph-name="L" unicode="L" horiz-adv-x="584" 
d="M74 0v710h138v-589h362v-121h-500z" />
    <glyph glyph-name="M" unicode="M" horiz-adv-x="865" 
d="M653 0v466l-182 -347h-77l-182 347v-466h-138v710h148l210 -404l212 404h147v-710h-138z" />
    <glyph glyph-name="N" unicode="N" horiz-adv-x="763" 
d="M212 456v-456h-138v710h110l367 -468v467h138v-709h-115z" />
    <glyph glyph-name="O" unicode="O" horiz-adv-x="756" 
d="M377 -5q-78 0 -141.5 30t-109 81.5t-70.5 116t-25 132.5q0 71 26.5 135.5t73 115t110 80t139.5 29.5q77 0 140.5 -31t108.5 -83t70 -116t25 -132q0 -70 -26 -134.5t-72.5 -115t-110 -79.5t-138.5 -29zM171 355q0 -46 14 -89t40.5 -76.5t65 -53t87.5 -19.5q50 0 89 20.5
t65 55t39.5 77t13.5 85.5q0 46 -14.5 88.5t-41 76t-65 53t-86.5 19.5q-51 0 -89.5 -20.5t-64.5 -54.5t-39.5 -76t-13.5 -86z" />
    <glyph glyph-name="P" unicode="P" horiz-adv-x="623" 
d="M74 0v710h301q49 0 90 -20t71.5 -54t47.5 -76t17 -86q0 -60 -28 -114t-77 -88t-116 -34h-168v-238h-138zM212 359h160q25 0 45 14t32 40.5t12 60.5q0 37 -13.5 63t-35 39t-46.5 13h-154v-230z" />
    <glyph glyph-name="Q" unicode="Q" horiz-adv-x="755" 
d="M377 -5q-78 0 -141.5 30.5t-109 81.5t-70.5 115.5t-25 132.5q0 71 26.5 135.5t73 115t110 80t139.5 29.5q77 0 140.5 -31t108.5 -83t70 -116t25 -132q0 -70 -26 -134.5t-72.5 -115t-110 -79.5t-138.5 -29zM378 117q50 0 89 20.5t65 55t39.5 77t13.5 85.5q0 46 -14.5 89
t-41 76t-65 53t-86.5 20q-51 0 -89.5 -20.5t-64.5 -55t-39.5 -76.5t-13.5 -86q0 -46 14 -89t40.5 -76t65 -53t87.5 -20zM364 263h130l234 -263h-130z" />
    <glyph glyph-name="R" unicode="R" horiz-adv-x="665" 
d="M74 0v710h314q49 0 90.5 -20t72 -54t47 -76t16.5 -86q0 -45 -15.5 -86.5t-44.5 -72.5t-68 -48l162 -267h-152l-146 238h-138v-238h-138zM212 359h173q26 0 46 15.5t32 41.5t12 58q0 34 -14 59.5t-35.5 40.5t-46.5 15h-167v-230z" />
    <glyph glyph-name="S" unicode="S" horiz-adv-x="613" 
d="M497 524q-7 7 -25.5 19t-45 23t-57.5 19.5t-63 8.5q-56 0 -84.5 -21t-28.5 -59q0 -29 18 -46t54 -29t90 -26q70 -17 121.5 -41.5t79 -64t27.5 -104.5q0 -57 -21 -97.5t-58 -65.5t-84 -36.5t-100 -11.5t-106 11t-102 31.5t-90 49.5l61 119q9 -9 32 -23.5t56 -29t72 -24.5
t79 -10q56 0 85 19t29 54q0 32 -23 50t-64 31.5t-97 29.5q-67 19 -112 42.5t-67 59.5t-22 90q0 73 34.5 122.5t93.5 75t131 25.5q50 0 94.5 -11t83.5 -29t70 -39z" />
    <glyph glyph-name="T" unicode="T" horiz-adv-x="619" 
d="M605 589h-227v-589h-137v589h-227v121h591v-121z" />
    <glyph glyph-name="U" unicode="U" horiz-adv-x="750" 
d="M375 -5q-85 0 -144.5 28.5t-96 78.5t-53.5 113.5t-17 132.5v362h138v-362q0 -44 8.5 -85.5t28.5 -74.5t53 -52t82 -19q50 0 83.5 19.5t53 52.5t28.5 74.5t9 84.5v362h137v-362q0 -73 -17.5 -137t-55 -112.5t-96.5 -76t-141 -27.5z" />
    <glyph glyph-name="V" unicode="V" horiz-adv-x="676" 
d="M147 710l192 -546l190 546h145l-269 -710h-133l-270 710h145z" />
    <glyph glyph-name="W" unicode="W" horiz-adv-x="1053" 
d="M317 708h128l81 -235l82 235h127l-122 -323l90 -226l201 551h150l-284 -710h-119l-125 298l-124 -298h-119l-283 710h148l202 -551l88 226z" />
    <glyph glyph-name="X" unicode="X" horiz-adv-x="646" 
d="M148 710l176 -262l175 262h150l-246 -360l238 -350h-150l-167 252l-168 -252h-151l238 350l-246 360h151z" />
    <glyph glyph-name="Y" unicode="Y" horiz-adv-x="660" 
d="M154 710l175 -334l178 334h149l-258 -462v-248h-137v250l-257 460h150z" />
    <glyph glyph-name="Z" unicode="Z" horiz-adv-x="627" 
d="M30 104l396 485h-385v121h549v-104l-383 -485h386v-121h-563v104z" />
    <glyph glyph-name="bracketleft" unicode="[" horiz-adv-x="316" 
d="M82 -40v780h187v-107h-63v-566h63v-107h-187z" />
    <glyph glyph-name="backslash" unicode="\" horiz-adv-x="637" 
d="M176 710l435 -710h-148l-436 710h149z" />
    <glyph glyph-name="bracketright" unicode="]" horiz-adv-x="316" 
d="M46 -40v107h64v566h-64v107h188v-780h-188z" />
    <glyph glyph-name="asciicircum" unicode="^" horiz-adv-x="585" 
d="M39 303l198 407h112l197 -407h-110l-143 294l-146 -294h-108z" />
    <glyph glyph-name="underscore" unicode="_" horiz-adv-x="475" 
d="M54 -121v121h367v-121h-367z" />
    <glyph glyph-name="grave" unicode="`" horiz-adv-x="255" 
d="M47 730h124l55 -119l-86 -26z" />
    <glyph glyph-name="a" unicode="a" horiz-adv-x="574" 
d="M25 155q0 51 28.5 89.5t79.5 59.5t117 21q33 0 67 -5t59 -16v28q0 50 -29.5 77t-87.5 27q-43 0 -82 -15t-82 -44l-43 88q52 34 106.5 51t114.5 17q112 0 174.5 -56t62.5 -160v-167q0 -21 7.5 -30t24.5 -11v-109q-18 -3 -32.5 -5t-24.5 -2q-40 0 -60.5 18t-25.5 44l-3 27
q-34 -44 -85 -68t-104 -24q-52 0 -93.5 21.5t-65 59t-23.5 84.5zM351 128q11 12 18 24t7 22v53q-24 10 -52 15.5t-53 5.5q-52 0 -85.5 -22.5t-33.5 -59.5q0 -20 11 -38t32 -29t50 -11q30 0 59 11.5t47 28.5z" />
    <glyph glyph-name="b" unicode="b" horiz-adv-x="634" 
d="M359 -10q-60 0 -107 27t-74 74v-91h-117v730h134v-298q28 47 73.5 74t106.5 27q51 0 93 -21.5t72.5 -59.5t47 -87t16.5 -105t-18.5 -105t-51.5 -86.5t-77.5 -58t-97.5 -20.5zM322 104q32 0 58.5 12.5t46 33.5t30 49.5t10.5 59.5q0 43 -17.5 79.5t-48 58.5t-71.5 22
q-29 0 -55.5 -13.5t-47 -36.5t-32.5 -52v-125q6 -20 19.5 -36t31.5 -27.5t37.5 -18t38.5 -6.5z" />
    <glyph glyph-name="c" unicode="c" horiz-adv-x="564" 
d="M305 -10q-64 0 -115 21.5t-87 60t-55.5 87.5t-19.5 103q0 74 33.5 135.5t95.5 98.5t147 37t146 -37t91 -97l-131 -40q-17 29 -45 44.5t-62 15.5q-38 0 -69.5 -19.5t-49.5 -55t-18 -82.5q0 -46 18.5 -81.5t49.5 -56t69 -20.5q24 0 45.5 8t38.5 22t25 32l131 -40
q-18 -39 -52.5 -70t-81 -48.5t-104.5 -17.5z" />
    <glyph glyph-name="d" unicode="d" horiz-adv-x="645" 
d="M29 262q0 76 30 137.5t83 97.5t121 36q58 0 104.5 -28.5t72.5 -72.5v298h134v-580q0 -21 7 -30t24 -11v-109q-35 -7 -57 -7q-36 0 -59.5 18t-26.5 47l-2 33q-29 -49 -78.5 -75t-103.5 -26t-99.5 21t-79 58t-52 86.5t-18.5 106.5zM440 192v125q-10 29 -32 52t-49 36.5
t-54 13.5q-31 0 -56 -13t-43.5 -35t-28 -51t-9.5 -61t10.5 -60.5t30.5 -49.5t46.5 -33t57.5 -12q19 0 38.5 6.5t37 18t31 28t20.5 35.5z" />
    <glyph glyph-name="e" unicode="e" horiz-adv-x="599" 
d="M304 -10q-63 0 -114 21.5t-87 59t-55.5 86t-19.5 102.5q0 75 33.5 137t96 99.5t147.5 37.5q86 0 147 -37.5t93.5 -99t32.5 -132.5q0 -12 -1 -24.5t-2 -20.5h-405q4 -40 23.5 -70t50 -45.5t65.5 -15.5q40 0 75.5 19.5t48.5 51.5l115 -32q-19 -40 -54.5 -71t-83.5 -48.5
t-106 -17.5zM167 304h274q-4 40 -22.5 69.5t-48.5 46t-67 16.5q-36 0 -65.5 -16.5t-48 -46t-22.5 -69.5z" />
    <glyph glyph-name="f" unicode="f" horiz-adv-x="370" 
d="M93 0v394h-69v102h69v32q0 65 21.5 112.5t61 73.5t92.5 26q32 0 64.5 -8t64.5 -23l-27 -101q-15 8 -35 13.5t-38 5.5q-34 0 -52 -24t-18 -70v-37h128v-102h-128v-394h-134z" />
    <glyph glyph-name="g" unicode="g" horiz-adv-x="634" 
d="M266 -3q-52 0 -95.5 20.5t-75 57.5t-48.5 85t-17 102q0 57 18 106t50.5 86.5t77 58t98.5 20.5q61 0 107 -27.5t76 -73.5v92h117v-499q0 -78 -37.5 -133.5t-103.5 -85t-150 -29.5q-85 0 -144 28.5t-101 80.5l73 71q30 -37 75.5 -58t96.5 -21q43 0 78.5 15.5t57 48
t21.5 83.5v66q-26 -45 -73.5 -69.5t-100.5 -24.5zM311 104q22 0 42 7t37 19t30 28.5t20 33.5v125q-12 31 -33.5 54t-48 35.5t-55.5 12.5q-31 0 -56 -13t-43 -36.5t-27.5 -52t-9.5 -59.5q0 -32 11 -60t30.5 -49t46 -33t56.5 -12z" />
    <glyph glyph-name="h" unicode="h" horiz-adv-x="604" 
d="M548 0h-134v294q0 61 -23.5 91t-64.5 30q-24 0 -51 -14t-48.5 -38.5t-31.5 -56.5v-306h-134v730h134v-303q29 50 79 78t109 28q51 0 83 -17.5t50 -47t25 -66t7 -75.5v-327z" />
    <glyph glyph-name="i" unicode="i" horiz-adv-x="255" 
d="M61 0v524h134v-524h-134zM61 597v133h134v-133h-134z" />
    <glyph glyph-name="j" unicode="j" horiz-adv-x="261" 
d="M18 -196q-37 0 -71 11.5t-62 35.5l58 91q11 -12 27 -17t32 -5q18 0 32.5 8.5t23 23.5t8.5 34v538h134v-528q0 -56 -24.5 -100t-65 -68t-92.5 -24zM66 597v133h134v-133h-134z" />
    <glyph glyph-name="k" unicode="k" horiz-adv-x="558" 
d="M419 0l-153 226l-71 -70v-156h-134v730h134v-442l211 235h142l-195 -222l209 -301h-143z" />
    <glyph glyph-name="l" unicode="l" horiz-adv-x="317" 
d="M60 730h134v-562q0 -36 12 -48.5t33 -12.5q16 0 33 4t30 10l18 -102q-27 -13 -63 -20t-65 -7q-63 0 -97.5 33.5t-34.5 95.5v609z" />
    <glyph glyph-name="m" unicode="m" horiz-adv-x="931" 
d="M875 0h-134v294q0 62 -21.5 91.5t-59.5 29.5q-39 0 -74.5 -30.5t-50.5 -79.5v-305h-134v294q0 63 -21.5 92t-59.5 29q-39 0 -74.5 -30t-50.5 -79v-306h-134v524h121v-97q30 51 80 78.5t115 27.5t101.5 -32t46.5 -79q32 54 81.5 82.5t111.5 28.5q49 0 79.5 -17.5t47.5 -47
t23.5 -66.5t6.5 -75v-327z" />
    <glyph glyph-name="n" unicode="n" horiz-adv-x="604" 
d="M548 0h-134v294q0 63 -22 92t-61 29q-27 0 -54.5 -14t-49.5 -38.5t-32 -56.5v-306h-134v524h121v-97q20 34 51 57.5t71.5 36t85.5 12.5q49 0 80.5 -17.5t48 -47t23 -66.5t6.5 -75v-327z" />
    <glyph glyph-name="o" unicode="o" horiz-adv-x="606" 
d="M303 -10q-64 0 -115 21.5t-86.5 59.5t-54.5 87t-19 103q0 55 19 104t54.5 87t86.5 59.5t115 21.5t114.5 -21.5t86.5 -59.5t54.5 -87t18.5 -104q0 -54 -18.5 -103t-54 -87t-86.5 -59.5t-115 -21.5zM166 261q0 -46 18 -81.5t49 -55.5t70 -20q38 0 69 20.5t49.5 56
t18.5 81.5q0 45 -18.5 81t-49.5 56t-69 20q-39 0 -70 -20.5t-49 -56t-18 -81.5z" />
    <glyph glyph-name="p" unicode="p" horiz-adv-x="634" 
d="M375 -10q-61 0 -107.5 27.5t-72.5 74.5v-305h-134v737h117v-90q30 46 76 72.5t105 26.5q53 0 97.5 -21t77.5 -58.5t51.5 -86t18.5 -104.5q0 -76 -29.5 -138t-81 -98.5t-118.5 -36.5zM330 104q31 0 56 13t43.5 35.5t28 51t9.5 59.5q0 33 -10.5 61t-30.5 49.5t-46.5 33.5
t-57.5 12q-19 0 -38.5 -6.5t-37.5 -18.5t-31.5 -28t-19.5 -35v-123q12 -29 32.5 -53t47.5 -37.5t55 -13.5z" />
    <glyph glyph-name="q" unicode="q" horiz-adv-x="634" 
d="M259 -10q-50 0 -92 21.5t-73 58.5t-47.5 87t-16.5 106q0 57 18.5 106t51.5 86t78 57.5t97 20.5q60 0 106 -27.5t75 -72.5v91h117v-737h-134v305q-60 -102 -180 -102zM309 104q29 0 52.5 11t43 30.5t34.5 44.5v124q-5 22 -18.5 41t-32 33.5t-39.5 22.5t-42 8
q-31 0 -56.5 -13t-44.5 -35.5t-29 -51t-10 -60.5q0 -43 18 -78t50 -56t74 -21z" />
    <glyph glyph-name="r" unicode="r" horiz-adv-x="387" 
d="M373 408q-61 0 -109 -23.5t-69 -67.5v-317h-134v524h123v-112q28 54 71 85t91 34h17t10 -1v-122z" />
    <glyph glyph-name="s" unicode="s" horiz-adv-x="494" 
d="M254 -10q-67 0 -128 22t-105 65l48 87q47 -38 92.5 -56t87.5 -18q39 0 62.5 14t23.5 42q0 19 -13 29.5t-37.5 18.5t-59.5 18q-58 19 -97 37t-58.5 45.5t-19.5 70.5q0 52 26.5 89.5t74 58.5t111.5 21q56 0 106 -17.5t91 -56.5l-54 -85q-40 31 -76 45.5t-73 14.5
q-21 0 -39.5 -5t-30 -16.5t-11.5 -32.5q0 -19 10.5 -29.5t32 -18.5t52.5 -18q63 -18 106.5 -37t65.5 -46.5t22 -75.5q0 -78 -57 -122t-153 -44z" />
    <glyph glyph-name="t" unicode="t" horiz-adv-x="384" 
d="M375 27q-17 -7 -41 -16t-51.5 -14.5t-55.5 -5.5q-37 0 -68 13t-49.5 41.5t-18.5 74.5v301h-69v103h69v170h134v-170h110v-103h-110v-256q1 -27 15 -39t35 -12t41 7t32 12z" />
    <glyph glyph-name="u" unicode="u" horiz-adv-x="618" 
d="M56 196v328h134v-299q0 -60 22 -90.5t65 -30.5q26 0 51.5 10.5t47 31.5t36.5 53v325h134v-374q0 -21 7.5 -30t24.5 -11v-109q-20 -3 -33.5 -4.5t-24.5 -1.5q-36 0 -58.5 16.5t-26.5 45.5l-3 42q-35 -53 -90 -80.5t-121 -27.5q-81 0 -123 52.5t-42 153.5z" />
    <glyph glyph-name="v" unicode="v" horiz-adv-x="550" 
d="M202 0l-193 524h139l132 -402l133 402h127l-192 -524h-146z" />
    <glyph glyph-name="w" unicode="w" horiz-adv-x="839" 
d="M711 524h127l-219 -524h-112l-88 225l-86 -225h-113l-218 524h126l156 -396l61 171l-91 224h111l54 -160l55 160h111l-91 -224l62 -171z" />
    <glyph glyph-name="x" unicode="x" horiz-adv-x="531" 
d="M147 524l110 -164l8 -18l10 18l109 164h141l-182 -261l185 -263h-141l-113 163l-9 17l-8 -17l-112 -163h-141l185 260l-182 264h140z" />
    <glyph glyph-name="y" unicode="y" horiz-adv-x="550" 
d="M72 -102q18 -4 33.5 -7t26.5 -3q19 0 31.5 9.5t24.5 34t25 68.5l-207 524h139l141 -387l124 387h128l-220 -628q-12 -35 -36.5 -63.5t-61 -45t-81.5 -16.5q-16 0 -32 2.5t-35 8.5v116z" />
    <glyph glyph-name="z" unicode="z" horiz-adv-x="493" 
d="M26 82l289 348h-277v94h421v-82l-287 -348h292v-94h-438v82z" />
    <glyph glyph-name="braceleft" unicode="{" horiz-adv-x="317" 
d="M212 633v-204q0 -20 -9 -37.5t-25 -31.5q15 -13 24.5 -31.5t9.5 -37.5v-215h55v-107h-152q-7 0 -15 6t-8 24v248q0 27 -15.5 45.5t-34.5 21.5v94q14 0 25.5 10.5t18 25.5t6.5 29v237q0 19 8.5 24.5t14.5 5.5h152v-107h-55z" />
    <glyph glyph-name="bar" unicode="|" horiz-adv-x="272" 
d="M79 -130v905h114v-905h-114z" />
    <glyph glyph-name="braceright" unicode="}" horiz-adv-x="317" 
d="M50 633v107h153q5 0 14 -5.5t9 -24.5v-237q0 -14 6.5 -29t18 -25.5t25.5 -10.5v-94q-20 -3 -35 -21.5t-15 -45.5v-248q0 -18 -8.5 -24t-14.5 -6h-153v107h55v215q0 19 9.5 37.5t25.5 31.5q-16 14 -25.5 31.5t-9.5 37.5v204h-55z" />
    <glyph glyph-name="asciitilde" unicode="~" horiz-adv-x="567" 
d="M56 228q0 8 7 29.5t23 45t42.5 40.5t66.5 17q36 0 64.5 -13t55.5 -27t56 -14q28 0 43 12t20.5 25t5.5 15h74q0 -6 -7.5 -26t-24 -44.5t-44 -42t-68.5 -17.5q-36 0 -65.5 13t-55.5 26t-55 13q-27 0 -41 -12.5t-18.5 -25.5t-4.5 -14h-74z" />
    <glyph glyph-name="uni00A0" unicode="&#xa0;" horiz-adv-x="240" 
 />
    <glyph glyph-name="exclamdown" unicode="&#xa1;" horiz-adv-x="305" 
d="M220 445v-450h-134v450h134zM220 712v-151h-134v151h134z" />
    <glyph glyph-name="cent" unicode="&#xa2;" horiz-adv-x="592" 
d="M276 -120v111q-51 4 -94.5 28t-75.5 62t-49.5 83.5t-17.5 93.5q0 68 27.5 126t80.5 97.5t129 50.5v113h60v-113q70 -2 127 -36t89 -97l-130 -40q-14 25 -37 39.5t-49 16.5v-308q18 4 36 11.5t32.5 20t19.5 27.5l131 -40q-19 -45 -58 -75.5t-82.5 -45.5t-78.5 -15v-110
h-60zM177 258q0 -32 12.5 -61.5t34.5 -51.5t52 -32v296q-23 -5 -41.5 -18.5t-31.5 -34.5t-19.5 -46.5t-6.5 -51.5z" />
    <glyph glyph-name="sterling" unicode="&#xa3;" horiz-adv-x="545" 
d="M57 381h377v-101h-377v101zM51 87q36 30 59.5 60.5t35.5 62.5t12 63q0 37 -12.5 69.5t-28.5 64t-28.5 63.5t-12.5 67q0 50 27.5 90.5t74.5 64t104 23.5q60 0 115 -28t92 -77l-70 -82q-24 34 -63 56t-76 22q-24 0 -43 -10.5t-30 -29.5t-11 -42q0 -27 11.5 -53.5t27 -55
t27 -62.5t11.5 -74q0 -30 -8 -58t-27 -56.5t-50 -60.5q22 6 40.5 9t35.5 3q25 0 47.5 -4t44.5 -8.5t44 -4.5q18 0 35.5 4t39.5 12l33 -100q-24 -14 -55 -22t-60 -8q-30 0 -60.5 7.5t-61.5 14.5t-63 7q-26 0 -61 -6.5t-67 -15.5z" />
    <glyph glyph-name="currency" unicode="&#xa4;" horiz-adv-x="552" 
d="M170 495q22 15 49 22.5t58 7.5q30 0 56.5 -7.5t48.5 -21.5l69 71l55 -55l-68 -67q15 -23 23 -50.5t8 -57.5q0 -29 -8 -56.5t-24 -50.5l69 -68l-50 -50l-72 68q-22 -13 -49 -21t-58 -8q-32 0 -59.5 8t-49.5 22l-73 -69l-49 50l69 69q-31 48 -31 106q0 30 7.5 57t22.5 49
l-68 69l54 55zM183 337q0 -30 12.5 -53t34 -36t47.5 -13q27 0 47.5 13.5t33 37t12.5 52.5q0 30 -12.5 53t-33 36t-47.5 13q-26 0 -47.5 -13t-34 -36.5t-12.5 -53.5z" />
    <glyph glyph-name="yen" unicode="&#xa5;" horiz-adv-x="712" 
d="M505 402h73v-87h-120l-36 -67v-30h157v-87h-157v-131h-137v131h-155v87h155v32l-34 65h-120v87h74l-176 308h149l176 -342l177 342h150z" />
    <glyph glyph-name="brokenbar" unicode="&#xa6;" horiz-adv-x="275" 
d="M195 264v-394h-114v394h114zM195 775v-394h-114v394h114z" />
    <glyph glyph-name="section" unicode="&#xa7;" horiz-adv-x="532" 
d="M456 215q16 -14 25.5 -39t9.5 -63q0 -55 -21.5 -93t-55.5 -62t-72 -35t-73 -11q-40 0 -74 10.5t-61.5 27t-48 34.5t-32.5 32l86 82q31 -31 61 -45t63 -14q23 0 43.5 8t33 23.5t12.5 37.5q0 24 -12 35t-30.5 15.5t-37.5 4.5q-66 5 -112 28t-70.5 61t-24.5 89q0 29 6.5 47
t12.5 27q-14 14 -27.5 42.5t-13.5 67.5q0 52 28.5 95t76.5 69t106 26q43 0 77 -12t60 -31t44.5 -40.5t30.5 -39.5l-103 -49q-9 17 -24.5 29t-34.5 18t-42 6q-24 0 -43 -8.5t-30 -24t-11 -36.5q0 -36 24.5 -48.5t59.5 -13.5q37 -1 75 -10t70 -28.5t51 -51t19 -78.5
q0 -28 -7 -50t-14 -32zM195 323q0 -23 10 -36t26 -19.5t34.5 -8.5t36 -4t30.5 -7q9 8 13.5 20.5t4.5 24.5q0 25 -13.5 39t-32.5 19.5t-37 5.5q-16 0 -32 3t-24 6q-7 -7 -11.5 -18.5t-4.5 -24.5z" />
    <glyph glyph-name="dieresis" unicode="&#xa8;" horiz-adv-x="457" 
d="M77 604v119h111v-119h-111zM269 604v119h111v-119h-111z" />
    <glyph glyph-name="copyright" unicode="&#xa9;" horiz-adv-x="841" 
d="M417 -7q-80 0 -148.5 27t-119 76t-78.5 115t-28 144q0 77 28 143t78.5 114.5t119 75.5t148.5 27q82 0 151.5 -27t121.5 -75.5t80 -114.5t28 -143q0 -78 -28 -144t-80 -115t-121.5 -76t-151.5 -27zM417 46q69 0 127.5 22.5t103 63.5t69 97.5t24.5 124.5q0 65 -24 121
t-68 98t-103 65.5t-129 23.5q-67 0 -125 -23.5t-101 -65.5t-67 -97.5t-24 -121.5q0 -64 23.5 -120t67 -98.5t101 -66t125.5 -23.5zM426 121q-55 0 -100.5 17.5t-78.5 49.5t-51 74.5t-18 92.5q0 44 15.5 86t46.5 75.5t77 53t107 19.5q78 0 134 -34t83 -92l-127 -39
q-10 20 -25.5 32t-32.5 17t-33 5q-26 0 -46.5 -10t-35 -27t-22 -39t-7.5 -47q0 -30 9.5 -53t26 -38.5t36.5 -23.5t40 -8q19 0 36.5 6.5t32.5 19t24 29.5l127 -38q-15 -33 -45 -62.5t-73.5 -47.5t-99.5 -18z" />
    <glyph glyph-name="ordfeminine" unicode="&#xaa;" horiz-adv-x="444" 
d="M160 339q-50 0 -85 32.5t-35 81.5q0 53 42 86t108 33q49 0 83 -16v19q0 33 -18.5 51.5t-56.5 18.5q-29 0 -55 -10t-55 -30l-30 61q69 47 149 47q78 0 121 -38t43 -112v-104q0 -15 5.5 -21.5t19.5 -7.5v-85q-13 -2 -24 -3t-20 -1q-28 0 -43 11.5t-19 32.5l-2 19
q-24 -31 -57 -48t-71 -17zM189 411q20 0 39.5 7.5t30.5 19.5q14 12 14 26v39q-15 6 -32.5 9t-33.5 3q-33 0 -54 -14.5t-21 -38.5q0 -22 16.5 -36.5t40.5 -14.5z" />
    <glyph glyph-name="guillemotleft" unicode="&#xab;" horiz-adv-x="649" 
d="M35 288l264 189v-109l-157 -109l157 -103v-110l-264 177v65zM327 288l263 189v-109l-157 -109l157 -103v-110l-263 177v65z" />
    <glyph glyph-name="logicalnot" unicode="&#xac;" horiz-adv-x="612" 
d="M547 400v-294h-114v174h-374v120h488z" />
    <glyph glyph-name="uni00AD" unicode="&#xad;" horiz-adv-x="603" 
d="M58 214v121h488v-121h-488z" />
    <glyph glyph-name="registered" unicode="&#xae;" horiz-adv-x="841" 
d="M419 -7q-82 0 -150.5 27t-119 76t-78.5 115t-28 144q0 77 28 143t78.5 114.5t119 75.5t150.5 27q81 0 150.5 -27t120.5 -75.5t79.5 -114.5t28.5 -143q0 -78 -28.5 -144t-79.5 -115t-120.5 -76t-150.5 -27zM419 45q90 0 162.5 39.5t115 109t42.5 159.5q0 65 -24 121
t-67 98.5t-101.5 66t-127.5 23.5t-126.5 -23.5t-100.5 -65.5t-66 -98t-23 -120q0 -65 23 -121.5t66 -98.5t100.5 -66t126.5 -24zM257 576h195q41 0 72.5 -22t49.5 -55.5t18 -69.5q0 -27 -10 -52.5t-28 -45t-42 -29.5l103 -166h-107l-92 148h-64v-148h-95v440zM444 363
q25 0 39.5 17.5t14.5 48.5q0 33 -16.5 49t-39.5 16h-90v-131h92z" />
    <glyph glyph-name="macron" unicode="&#xaf;" horiz-adv-x="419" 
d="M60 633v83h300v-83h-300z" />
    <glyph glyph-name="degree" unicode="&#xb0;" horiz-adv-x="285" 
d="M40 625q0 42 29.5 70.5t72.5 28.5q45 0 74 -28.5t29 -70.5q0 -48 -29 -77t-74 -29q-43 0 -72.5 30t-29.5 76zM115 648q-10 -12 -10 -27t10 -25q12 -12 27 -12q17 0 27 12q5 4 7.5 11.5t2.5 14.5q0 8 -2.5 14.5t-7.5 11.5t-12.5 8t-14.5 3q-16 0 -27 -11z" />
    <glyph glyph-name="plusminus" unicode="&#xb1;" horiz-adv-x="472" 
d="M59 28v108h354v-108h-354zM413 430v-107h-117v-127h-120v127h-117v107h117v127h120v-127h117z" />
    <glyph glyph-name="uni00B2" unicode="&#xb2;" horiz-adv-x="416" 
d="M30 389q0 53 12.5 88.5t41 60.5t76.5 45q30 13 61.5 25.5t52.5 29.5t21 44t-23.5 43.5t-63.5 16.5q-30 0 -53.5 -8t-41 -20.5t-29.5 -24.5l-51 58q11 14 36 30t63 27.5t85 11.5q82 0 124 -35.5t42 -94.5q0 -34 -13 -57.5t-33.5 -39t-43.5 -25.5t-42 -15
q-33 -10 -53 -23.5t-29 -28t-9 -30.5h220v-78h-350z" />
    <glyph glyph-name="uni00B3" unicode="&#xb3;" horiz-adv-x="407" 
d="M195 383q-61 0 -107 20t-60 59l42 54q8 -13 24.5 -26t41 -21t56.5 -8q39 0 67.5 13.5t28.5 41.5q0 27 -32.5 41t-98.5 14h-23v72h23q58 0 87 12t29 38q0 27 -26 39t-56 12q-39 0 -67.5 -14t-45.5 -34l-49 60q15 20 42 32.5t60 20t65 7.5q50 0 87 -15t58.5 -41.5
t21.5 -60.5t-23 -57t-63 -31q44 -7 70 -37.5t26 -71.5q0 -40 -25 -67t-65.5 -39.5t-87.5 -12.5z" />
    <glyph glyph-name="acute" unicode="&#xb4;" horiz-adv-x="255" 
d="M133 585l-86 26l54 119h125z" />
    <glyph glyph-name="uni00B5" unicode="&#xb5;" horiz-adv-x="664" 
d="M77 524h134v-299q0 -60 22 -90.5t68 -30.5q24 0 49 10.5t47 31.5t37 53v325h134v-370q0 -21 8 -30t28 -10v-114q-21 -3 -36 -4.5t-27 -1.5q-37 0 -59.5 18t-25.5 48l-2 38q-11 -23 -36 -48.5t-57.5 -42.5t-68.5 -17q-25 0 -44 9.5t-30 23.5t-16 26l9 -261h-134v736z" />
    <glyph glyph-name="paragraph" unicode="&#xb6;" horiz-adv-x="657" 
d="M35 456q0 121 74 187.5t208 66.5h294v-100h-70v-690h-113v288h-51v-288h-114v288q-69 0 -120.5 31t-79.5 87t-28 130zM147 459q0 -46 15.5 -78.5t42 -51t58.5 -21.5v302q-55 -3 -85.5 -44t-30.5 -107zM428 610h-51v-302h51v302z" />
    <glyph glyph-name="periodcentered" unicode="&#xb7;" horiz-adv-x="225" 
d="M58 242v151h110v-151h-110z" />
    <glyph glyph-name="cedilla" unicode="&#xb8;" horiz-adv-x="326" 
d="M148 -201q-27 0 -58 7.5t-62 22.5l34 71q15 -10 30.5 -15.5t32.5 -5.5q26 0 40.5 11.5t14.5 33.5q0 21 -14.5 39.5t-41.5 36.5l45 29q40 -26 66 -56.5t26 -74.5q0 -42 -28.5 -70.5t-84.5 -28.5z" />
    <glyph glyph-name="uni00B9" unicode="&#xb9;" horiz-adv-x="298" 
d="M277 469v-79h-229v79h78v261q-7 -9 -23 -21t-35.5 -21t-35.5 -9v79q21 0 42.5 14t36.5 28.5t15 15.5h81v-347h70z" />
    <glyph glyph-name="ordmasculine" unicode="&#xba;" horiz-adv-x="443" 
d="M222 339q-58 0 -100 26t-64 69t-22 92q0 50 22 92.5t64 68.5t100 26t99.5 -26t64 -68.5t22.5 -92.5q0 -49 -22 -92t-64 -69t-100 -26zM135 525q0 -29 11.5 -52.5t31 -36.5t44.5 -13q24 0 43.5 13.5t31 37t11.5 52.5q0 31 -11.5 53.5t-31 35.5t-43.5 13t-44 -13
t-31.5 -36.5t-11.5 -53.5z" />
    <glyph glyph-name="guillemotright" unicode="&#xbb;" horiz-adv-x="649" 
d="M613 223l-264 -177v110l158 103l-158 109v109l264 -189v-65zM322 223l-264 -177v110l158 103l-158 109v109l264 -189v-65z" />
    <glyph glyph-name="onequarter" unicode="&#xbc;" horiz-adv-x="883" 
d="M277 384v-78h-229v78h78v261q-7 -8 -23 -20.5t-35.5 -21.5t-35.5 -9v80q21 0 42.5 14t36.5 28t15 15h81v-347h70zM96 47l282 329l260 342l61 -54l-274 -324l-268 -347zM712 0v97h-217v73l246 252h59v-256h56v-69h-56v-97h-88zM572 166h143v149z" />
    <glyph glyph-name="onehalf" unicode="&#xbd;" horiz-adv-x="913" 
d="M529 0q0 53 12 88t39.5 60.5t75.5 45.5q30 13 60.5 25t51 29.5t20.5 44.5t-23 43.5t-62 16.5q-29 0 -52.5 -8.5t-40.5 -20.5t-29 -25l-49 58q10 14 35 30.5t62 27.5t84 11q79 0 120.5 -35t41.5 -95q0 -33 -13 -56.5t-33 -39.5t-42 -25.5t-41 -14.5q-32 -10 -52 -23.5
t-28.5 -28t-8.5 -30.5h219v-78h-347zM277 384v-78h-229v78h78v261q-7 -8 -23 -20.5t-35.5 -21.5t-35.5 -9v80q21 0 42.5 14t36.5 28t15 15h81v-347h70zM97 47l281 329l261 342l61 -54l-275 -324l-268 -347z" />
    <glyph glyph-name="threequarters" unicode="&#xbe;" horiz-adv-x="991" 
d="M195 298q-61 0 -107 20.5t-60 58.5l42 55q8 -13 24.5 -26t41 -21.5t56.5 -8.5q39 0 67.5 14t28.5 41q0 28 -32.5 42t-98.5 14h-23v71h23q58 0 87 12.5t29 37.5q0 27 -26 39.5t-56 12.5q-39 0 -67.5 -14t-45.5 -35l-49 61q15 19 42 32t60 20t65 7q50 0 87 -15t58.5 -41.5
t21.5 -59.5q0 -34 -23 -57t-63 -32q44 -7 70 -37.5t26 -70.5q0 -41 -25 -67.5t-65.5 -39.5t-87.5 -13zM205 47l282 329l260 342l61 -54l-274 -324l-268 -347zM820 0v97h-217v73l246 252h59v-256h56v-69h-56v-97h-88zM680 166h143v149z" />
    <glyph glyph-name="questiondown" unicode="&#xbf;" horiz-adv-x="479" 
d="M360 273q0 -32 -7 -60.5t-24 -52t-51 -43.5q-15 -9 -37 -21t-43.5 -27.5t-35.5 -37t-14 -49.5q0 -27 13.5 -46.5t35 -29.5t46.5 -10q29 0 51.5 12.5t39.5 31t27 36.5l87 -60q-18 -41 -49.5 -70t-73 -44t-87.5 -15q-37 0 -74 11.5t-67 35.5t-48 61t-18 89q0 32 7 57
t21 44.5t33.5 35.5t43.5 31q27 17 52.5 31.5t43 35t17.5 54.5h111zM357 506v-138h-110v138h110z" />
    <glyph glyph-name="Agrave" unicode="&#xc0;" horiz-adv-x="672" 
d="M267 710h140l261 -710h-142l-66 177h-248l-65 -177h-142zM435 274l-98 293l-102 -293h200zM212 916h124l55 -119l-86 -26z" />
    <glyph glyph-name="Aacute" unicode="&#xc1;" horiz-adv-x="672" 
d="M267 710h140l261 -710h-142l-66 177h-248l-65 -177h-142zM435 274l-98 293l-102 -293h200zM381 770l-86 26l54 119h125z" />
    <glyph glyph-name="Acircumflex" unicode="&#xc2;" horiz-adv-x="672" 
d="M267 710h140l261 -710h-142l-66 177h-248l-65 -177h-142zM435 274l-98 293l-102 -293h200zM182 814l106 101h97l106 -101l-69 -32l-85 63l-85 -63z" />
    <glyph glyph-name="Atilde" unicode="&#xc3;" horiz-adv-x="672" 
d="M267 710h140l261 -710h-142l-66 177h-248l-65 -177h-142zM435 274l-98 293l-102 -293h200zM402 787q-30 0 -51.5 11.5t-39.5 22.5t-40 11t-32.5 -11.5t-13 -23.5t-2.5 -13h-74q0 9 6 30t19.5 43.5t36 38.5t55.5 16q31 0 51 -12t38.5 -23.5t42.5 -11.5t35 12t14.5 24
t3.5 14h74q0 -7 -6 -27t-20.5 -43.5t-38 -40.5t-58.5 -17z" />
    <glyph glyph-name="Adieresis" unicode="&#xc4;" horiz-adv-x="672" 
d="M267 710h140l261 -710h-142l-66 177h-248l-65 -177h-142zM435 274l-98 293l-102 -293h200zM185 790v119h111v-119h-111zM377 790v119h111v-119h-111z" />
    <glyph glyph-name="Aring" unicode="&#xc5;" horiz-adv-x="672" 
d="M267 710h140l261 -710h-142l-66 177h-248l-65 -177h-142zM435 274l-98 293l-102 -293h200zM232 840q0 42 29.5 66.5t75.5 24.5q47 0 76 -24.5t29 -66.5q0 -41 -29 -65.5t-76 -24.5q-46 0 -75.5 24.5t-29.5 65.5zM337 884q-18 0 -31 -12.5t-13 -30.5t12.5 -31t31.5 -13
q18 0 31 12.5t13 31.5q0 18 -13 30.5t-31 12.5z" />
    <glyph glyph-name="AE" unicode="&#xc6;" horiz-adv-x="966" 
d="M418 710h505v-121h-333v-167h279v-121h-279v-180h342v-121h-478v177h-228l-105 -177h-146zM444 297v258l-159 -258h159z" />
    <glyph glyph-name="Ccedilla" unicode="&#xc7;" horiz-adv-x="686" 
d="M31 360q0 65 23.5 127.5t68.5 114t110 82t148 30.5q98 0 169.5 -43t106.5 -112l-106 -73q-18 40 -47 63.5t-62 33t-65 9.5q-52 0 -90.5 -21t-64.5 -55t-38.5 -76t-12.5 -84q0 -47 15 -90.5t42.5 -77t66 -53t84.5 -19.5q33 0 67 11t63 35t45 62l113 -65q-21 -53 -68.5 -90
t-106.5 -56t-117 -19q-76 0 -139 31.5t-108.5 84t-71 118t-25.5 132.5zM362 -201q-27 0 -58 7.5t-62 22.5l34 71q15 -10 30.5 -15.5t32.5 -5.5q26 0 40.5 11.5t14.5 33.5q0 21 -14.5 39.5t-41.5 36.5l45 29q40 -26 66 -56.5t26 -74.5q0 -42 -28.5 -70.5t-84.5 -28.5z" />
    <glyph glyph-name="Egrave" unicode="&#xc8;" horiz-adv-x="601" 
d="M567 121v-121h-493v710h484v-121h-346v-171h299v-112h-299v-185h355zM201 916h124l55 -119l-86 -26z" />
    <glyph glyph-name="Eacute" unicode="&#xc9;" horiz-adv-x="601" 
d="M567 121v-121h-493v710h484v-121h-346v-171h299v-112h-299v-185h355zM370 770l-86 26l54 119h125z" />
    <glyph glyph-name="Ecircumflex" unicode="&#xca;" horiz-adv-x="601" 
d="M567 121v-121h-493v710h484v-121h-346v-171h299v-112h-299v-185h355zM171 814l106 101h97l106 -101l-69 -32l-85 63l-85 -63z" />
    <glyph glyph-name="Edieresis" unicode="&#xcb;" horiz-adv-x="601" 
d="M567 121v-121h-493v710h484v-121h-346v-171h299v-112h-299v-185h355zM174 790v119h111v-119h-111zM366 790v119h111v-119h-111z" />
    <glyph glyph-name="Igrave" unicode="&#xcc;" horiz-adv-x="286" 
d="M74 0v710h138v-710h-138zM18 916h124l55 -119l-86 -26z" />
    <glyph glyph-name="Iacute" unicode="&#xcd;" horiz-adv-x="286" 
d="M74 0v710h138v-710h-138zM187 770l-86 26l54 119h125z" />
    <glyph glyph-name="Icircumflex" unicode="&#xce;" horiz-adv-x="286" 
d="M74 0v710h138v-710h-138zM-12 814l106 101h97l106 -101l-69 -32l-85 63l-85 -63z" />
    <glyph glyph-name="Idieresis" unicode="&#xcf;" horiz-adv-x="286" 
d="M74 0v710h138v-710h-138zM-9 790v119h111v-119h-111zM183 790v119h111v-119h-111z" />
    <glyph glyph-name="Eth" unicode="&#xd0;" horiz-adv-x="721" 
d="M31 307v100h325v-100h-325zM79 0v710h258q116 0 194 -47.5t117 -128t39 -178.5q0 -108 -43 -188t-121.5 -124t-185.5 -44h-258zM548 356q0 69 -25 121.5t-72 82t-114 29.5h-120v-468h120q68 0 115 30.5t71.5 84t24.5 120.5z" />
    <glyph glyph-name="Ntilde" unicode="&#xd1;" horiz-adv-x="763" 
d="M212 456v-456h-138v710h110l367 -468v467h138v-709h-115zM446 787q-30 0 -51.5 11.5t-39.5 22.5t-40 11t-32.5 -11.5t-13 -23.5t-2.5 -13h-74q0 9 6 30t19.5 43.5t36 38.5t55.5 16q31 0 51 -12t38.5 -23.5t42.5 -11.5t35 12t14.5 24t3.5 14h74q0 -7 -6 -27t-20.5 -43.5
t-38 -40.5t-58.5 -17z" />
    <glyph glyph-name="Ograve" unicode="&#xd2;" horiz-adv-x="756" 
d="M377 -5q-78 0 -141.5 30t-109 81.5t-70.5 116t-25 132.5q0 71 26.5 135.5t73 115t110 80t139.5 29.5q77 0 140.5 -31t108.5 -83t70 -116t25 -132q0 -70 -26 -134.5t-72.5 -115t-110 -79.5t-138.5 -29zM171 355q0 -46 14 -89t40.5 -76.5t65 -53t87.5 -19.5q50 0 89 20.5
t65 55t39.5 77t13.5 85.5q0 46 -14.5 88.5t-41 76t-65 53t-86.5 19.5q-51 0 -89.5 -20.5t-64.5 -54.5t-39.5 -76t-13.5 -86zM255 916h124l55 -119l-86 -26z" />
    <glyph glyph-name="Oacute" unicode="&#xd3;" horiz-adv-x="756" 
d="M377 -5q-78 0 -141.5 30t-109 81.5t-70.5 116t-25 132.5q0 71 26.5 135.5t73 115t110 80t139.5 29.5q77 0 140.5 -31t108.5 -83t70 -116t25 -132q0 -70 -26 -134.5t-72.5 -115t-110 -79.5t-138.5 -29zM171 355q0 -46 14 -89t40.5 -76.5t65 -53t87.5 -19.5q50 0 89 20.5
t65 55t39.5 77t13.5 85.5q0 46 -14.5 88.5t-41 76t-65 53t-86.5 19.5q-51 0 -89.5 -20.5t-64.5 -54.5t-39.5 -76t-13.5 -86zM424 770l-86 26l54 119h125z" />
    <glyph glyph-name="Ocircumflex" unicode="&#xd4;" horiz-adv-x="756" 
d="M377 -5q-78 0 -141.5 30t-109 81.5t-70.5 116t-25 132.5q0 71 26.5 135.5t73 115t110 80t139.5 29.5q77 0 140.5 -31t108.5 -83t70 -116t25 -132q0 -70 -26 -134.5t-72.5 -115t-110 -79.5t-138.5 -29zM171 355q0 -46 14 -89t40.5 -76.5t65 -53t87.5 -19.5q50 0 89 20.5
t65 55t39.5 77t13.5 85.5q0 46 -14.5 88.5t-41 76t-65 53t-86.5 19.5q-51 0 -89.5 -20.5t-64.5 -54.5t-39.5 -76t-13.5 -86zM225 814l106 101h97l106 -101l-69 -32l-85 63l-85 -63z" />
    <glyph glyph-name="Otilde" unicode="&#xd5;" horiz-adv-x="756" 
d="M377 -5q-78 0 -141.5 30t-109 81.5t-70.5 116t-25 132.5q0 71 26.5 135.5t73 115t110 80t139.5 29.5q77 0 140.5 -31t108.5 -83t70 -116t25 -132q0 -70 -26 -134.5t-72.5 -115t-110 -79.5t-138.5 -29zM171 355q0 -46 14 -89t40.5 -76.5t65 -53t87.5 -19.5q50 0 89 20.5
t65 55t39.5 77t13.5 85.5q0 46 -14.5 88.5t-41 76t-65 53t-86.5 19.5q-51 0 -89.5 -20.5t-64.5 -54.5t-39.5 -76t-13.5 -86zM445 787q-30 0 -51.5 11.5t-39.5 22.5t-40 11t-32.5 -11.5t-13 -23.5t-2.5 -13h-74q0 9 6 30t19.5 43.5t36 38.5t55.5 16q31 0 51 -12t38.5 -23.5
t42.5 -11.5t35 12t14.5 24t3.5 14h74q0 -7 -6 -27t-20.5 -43.5t-38 -40.5t-58.5 -17z" />
    <glyph glyph-name="Odieresis" unicode="&#xd6;" horiz-adv-x="756" 
d="M377 -5q-78 0 -141.5 30t-109 81.5t-70.5 116t-25 132.5q0 71 26.5 135.5t73 115t110 80t139.5 29.5q77 0 140.5 -31t108.5 -83t70 -116t25 -132q0 -70 -26 -134.5t-72.5 -115t-110 -79.5t-138.5 -29zM171 355q0 -46 14 -89t40.5 -76.5t65 -53t87.5 -19.5q50 0 89 20.5
t65 55t39.5 77t13.5 85.5q0 46 -14.5 88.5t-41 76t-65 53t-86.5 19.5q-51 0 -89.5 -20.5t-64.5 -54.5t-39.5 -76t-13.5 -86zM228 790v119h111v-119h-111zM420 790v119h111v-119h-111z" />
    <glyph glyph-name="multiply" unicode="&#xd7;" horiz-adv-x="477" 
d="M425 172l-84 -83l-103 103l-103 -103l-83 84l102 102l-98 99l84 83l98 -98l99 99l83 -84l-98 -99z" />
    <glyph glyph-name="Oslash" unicode="&#xd8;" horiz-adv-x="755" 
d="M377 -5q-78 0 -141.5 30t-109 81.5t-70.5 116t-25 132.5q0 71 26.5 135.5t73 115t110 80t139.5 29.5q77 0 140.5 -31t108.5 -83t70 -116t25 -132q0 -70 -26 -134.5t-72.5 -115t-110 -79.5t-138.5 -29zM171 355q0 -46 14 -89t40.5 -76.5t65 -53t87.5 -19.5q50 0 89 20.5
t65 55t39.5 77t13.5 85.5q0 46 -14.5 88.5t-41 76t-65 53t-86.5 19.5q-51 0 -89.5 -20.5t-64.5 -54.5t-39.5 -76t-13.5 -86zM700 710l-496 -710h-148l495 710h149z" />
    <glyph glyph-name="Ugrave" unicode="&#xd9;" horiz-adv-x="750" 
d="M375 -5q-85 0 -144.5 28.5t-96 78.5t-53.5 113.5t-17 132.5v362h138v-362q0 -44 8.5 -85.5t28.5 -74.5t53 -52t82 -19q50 0 83.5 19.5t53 52.5t28.5 74.5t9 84.5v362h137v-362q0 -73 -17.5 -137t-55 -112.5t-96.5 -76t-141 -27.5zM250 916h124l55 -119l-86 -26z" />
    <glyph glyph-name="Uacute" unicode="&#xda;" horiz-adv-x="750" 
d="M375 -5q-85 0 -144.5 28.5t-96 78.5t-53.5 113.5t-17 132.5v362h138v-362q0 -44 8.5 -85.5t28.5 -74.5t53 -52t82 -19q50 0 83.5 19.5t53 52.5t28.5 74.5t9 84.5v362h137v-362q0 -73 -17.5 -137t-55 -112.5t-96.5 -76t-141 -27.5zM419 770l-86 26l54 119h125z" />
    <glyph glyph-name="Ucircumflex" unicode="&#xdb;" horiz-adv-x="750" 
d="M375 -5q-85 0 -144.5 28.5t-96 78.5t-53.5 113.5t-17 132.5v362h138v-362q0 -44 8.5 -85.5t28.5 -74.5t53 -52t82 -19q50 0 83.5 19.5t53 52.5t28.5 74.5t9 84.5v362h137v-362q0 -73 -17.5 -137t-55 -112.5t-96.5 -76t-141 -27.5zM220 814l106 101h97l106 -101l-69 -32
l-85 63l-85 -63z" />
    <glyph glyph-name="Udieresis" unicode="&#xdc;" horiz-adv-x="750" 
d="M375 -5q-85 0 -144.5 28.5t-96 78.5t-53.5 113.5t-17 132.5v362h138v-362q0 -44 8.5 -85.5t28.5 -74.5t53 -52t82 -19q50 0 83.5 19.5t53 52.5t28.5 74.5t9 84.5v362h137v-362q0 -73 -17.5 -137t-55 -112.5t-96.5 -76t-141 -27.5zM223 790v119h111v-119h-111zM415 790
v119h111v-119h-111z" />
    <glyph glyph-name="Yacute" unicode="&#xdd;" horiz-adv-x="660" 
d="M154 710l175 -334l178 334h149l-258 -462v-248h-137v250l-257 460h150zM374 770l-86 26l54 119h125z" />
    <glyph glyph-name="Thorn" unicode="&#xde;" horiz-adv-x="604" 
d="M358 582q49 0 90.5 -20.5t72 -54t47 -75.5t16.5 -86q0 -60 -27.5 -114t-77 -88t-115.5 -34h-152v-110h-138v710h138v-128h146zM357 231q27 0 47 15.5t31.5 42t11.5 57.5q0 34 -13.5 59.5t-35.5 40.5t-47 15h-139v-230h145z" />
    <glyph glyph-name="germandbls" unicode="&#xdf;" horiz-adv-x="558" 
d="M247 117q62 1 102.5 27t40.5 81q0 34 -16.5 58.5t-42 37t-55.5 12.5h-21v120h19q24 0 41.5 9.5t26.5 26t9 38.5q0 29 -13 44.5t-31 22t-35 6.5q-31 0 -50 -16t-26.5 -39t-7.5 -46v-499h-127v522q0 56 29 99.5t79 68t114 24.5q56 0 100 -20t69.5 -56.5t25.5 -87.5
q0 -34 -12 -65t-31.5 -52.5t-43.5 -30.5q65 -18 102 -69t37 -123q0 -57 -23 -98t-62.5 -66.5t-90.5 -38t-107 -13.5v123z" />
    <glyph glyph-name="agrave" unicode="&#xe0;" horiz-adv-x="574" 
d="M25 155q0 51 28.5 89.5t79.5 59.5t117 21q33 0 67 -5t59 -16v28q0 50 -29.5 77t-87.5 27q-43 0 -82 -15t-82 -44l-43 88q52 34 106.5 51t114.5 17q112 0 174.5 -56t62.5 -160v-167q0 -21 7.5 -30t24.5 -11v-109q-18 -3 -32.5 -5t-24.5 -2q-40 0 -60.5 18t-25.5 44l-3 27
q-34 -44 -85 -68t-104 -24q-52 0 -93.5 21.5t-65 59t-23.5 84.5zM351 128q11 12 18 24t7 22v53q-24 10 -52 15.5t-53 5.5q-52 0 -85.5 -22.5t-33.5 -59.5q0 -20 11 -38t32 -29t50 -11q30 0 59 11.5t47 28.5zM148 731h124l55 -119l-86 -26z" />
    <glyph glyph-name="aacute" unicode="&#xe1;" horiz-adv-x="574" 
d="M25 155q0 51 28.5 89.5t79.5 59.5t117 21q33 0 67 -5t59 -16v28q0 50 -29.5 77t-87.5 27q-43 0 -82 -15t-82 -44l-43 88q52 34 106.5 51t114.5 17q112 0 174.5 -56t62.5 -160v-167q0 -21 7.5 -30t24.5 -11v-109q-18 -3 -32.5 -5t-24.5 -2q-40 0 -60.5 18t-25.5 44l-3 27
q-34 -44 -85 -68t-104 -24q-52 0 -93.5 21.5t-65 59t-23.5 84.5zM351 128q11 12 18 24t7 22v53q-24 10 -52 15.5t-53 5.5q-52 0 -85.5 -22.5t-33.5 -59.5q0 -20 11 -38t32 -29t50 -11q30 0 59 11.5t47 28.5zM317 585l-86 26l54 119h125z" />
    <glyph glyph-name="acircumflex" unicode="&#xe2;" horiz-adv-x="574" 
d="M25 155q0 51 28.5 89.5t79.5 59.5t117 21q33 0 67 -5t59 -16v28q0 50 -29.5 77t-87.5 27q-43 0 -82 -15t-82 -44l-43 88q52 34 106.5 51t114.5 17q112 0 174.5 -56t62.5 -160v-167q0 -21 7.5 -30t24.5 -11v-109q-18 -3 -32.5 -5t-24.5 -2q-40 0 -60.5 18t-25.5 44l-3 27
q-34 -44 -85 -68t-104 -24q-52 0 -93.5 21.5t-65 59t-23.5 84.5zM351 128q11 12 18 24t7 22v53q-24 10 -52 15.5t-53 5.5q-52 0 -85.5 -22.5t-33.5 -59.5q0 -20 11 -38t32 -29t50 -11q30 0 59 11.5t47 28.5zM118 629l106 101h97l106 -101l-69 -32l-85 63l-85 -63z" />
    <glyph glyph-name="atilde" unicode="&#xe3;" horiz-adv-x="574" 
d="M25 155q0 51 28.5 89.5t79.5 59.5t117 21q33 0 67 -5t59 -16v28q0 50 -29.5 77t-87.5 27q-43 0 -82 -15t-82 -44l-43 88q52 34 106.5 51t114.5 17q112 0 174.5 -56t62.5 -160v-167q0 -21 7.5 -30t24.5 -11v-109q-18 -3 -32.5 -5t-24.5 -2q-40 0 -60.5 18t-25.5 44l-3 27
q-34 -44 -85 -68t-104 -24q-52 0 -93.5 21.5t-65 59t-23.5 84.5zM351 128q11 12 18 24t7 22v53q-24 10 -52 15.5t-53 5.5q-52 0 -85.5 -22.5t-33.5 -59.5q0 -20 11 -38t32 -29t50 -11q30 0 59 11.5t47 28.5zM337 602q-30 0 -51.5 11.5t-39.5 22.5t-40 11t-32.5 -11.5
t-13 -23.5t-2.5 -13h-74q0 9 6 30t19.5 43.5t36 38.5t55.5 16q31 0 51 -12t38.5 -23.5t42.5 -11.5t35 12t14.5 24t3.5 14h74q0 -7 -6 -27t-20.5 -43.5t-38 -40.5t-58.5 -17z" />
    <glyph glyph-name="adieresis" unicode="&#xe4;" horiz-adv-x="574" 
d="M25 155q0 51 28.5 89.5t79.5 59.5t117 21q33 0 67 -5t59 -16v28q0 50 -29.5 77t-87.5 27q-43 0 -82 -15t-82 -44l-43 88q52 34 106.5 51t114.5 17q112 0 174.5 -56t62.5 -160v-167q0 -21 7.5 -30t24.5 -11v-109q-18 -3 -32.5 -5t-24.5 -2q-40 0 -60.5 18t-25.5 44l-3 27
q-34 -44 -85 -68t-104 -24q-52 0 -93.5 21.5t-65 59t-23.5 84.5zM351 128q11 12 18 24t7 22v53q-24 10 -52 15.5t-53 5.5q-52 0 -85.5 -22.5t-33.5 -59.5q0 -20 11 -38t32 -29t50 -11q30 0 59 11.5t47 28.5zM121 605v119h111v-119h-111zM313 605v119h111v-119h-111z" />
    <glyph glyph-name="aring" unicode="&#xe5;" horiz-adv-x="574" 
d="M25 155q0 51 28.5 89.5t79.5 59.5t117 21q33 0 67 -5t59 -16v28q0 50 -29.5 77t-87.5 27q-43 0 -82 -15t-82 -44l-43 88q52 34 106.5 51t114.5 17q112 0 174.5 -56t62.5 -160v-167q0 -21 7.5 -30t24.5 -11v-109q-18 -3 -32.5 -5t-24.5 -2q-40 0 -60.5 18t-25.5 44l-3 27
q-34 -44 -85 -68t-104 -24q-52 0 -93.5 21.5t-65 59t-23.5 84.5zM351 128q11 12 18 24t7 22v53q-24 10 -52 15.5t-53 5.5q-52 0 -85.5 -22.5t-33.5 -59.5q0 -20 11 -38t32 -29t50 -11q30 0 59 11.5t47 28.5zM167 655q0 42 29.5 66.5t75.5 24.5q47 0 76 -24.5t29 -66.5
q0 -41 -29 -65.5t-76 -24.5q-46 0 -75.5 24.5t-29.5 65.5zM272 699q-18 0 -31 -12.5t-13 -30.5t12.5 -31t31.5 -13q18 0 31 12.5t13 31.5q0 18 -13 30.5t-31 12.5z" />
    <glyph glyph-name="ae" unicode="&#xe6;" horiz-adv-x="937" 
d="M204 -10q-51 0 -91.5 21.5t-64 59.5t-23.5 85q0 50 28.5 88t79 59.5t115.5 21.5q32 0 63 -5t55 -15q1 11 3 22.5t5 21.5q-4 44 -33 67.5t-82 23.5q-42 0 -82 -15t-83 -44l-41 85q104 67 219 67q62 0 108 -19t75 -55q33 34 80.5 54t105.5 20q85 0 146.5 -37.5t95 -99
t33.5 -134.5q0 -10 -1 -22.5t-2 -20.5h-410q3 -40 23.5 -70t52 -45.5t68.5 -15.5q40 0 75.5 19.5t48.5 51.5l115 -32q-19 -40 -54.5 -71t-83.5 -48.5t-106 -17.5q-74 0 -131.5 29.5t-93.5 78.5q-23 -38 -59.5 -62t-77 -35t-76.5 -11zM242 88q33 0 64 12t48 32q21 17 22 36
q-4 13 -6.5 31.5t-3.5 33.5q-22 8 -47.5 12.5t-48.5 4.5q-52 0 -85.5 -23t-33.5 -60q0 -22 12 -40.5t32.5 -28.5t46.5 -10zM778 302q-4 40 -22.5 70t-48.5 47t-68 17t-68.5 -17t-48.5 -47t-21 -70h277z" />
    <glyph glyph-name="ccedilla" unicode="&#xe7;" horiz-adv-x="564" 
d="M305 -10q-64 0 -115 21.5t-87 60t-55.5 87.5t-19.5 103q0 74 33.5 135.5t95.5 98.5t147 37t146 -37t91 -97l-131 -40q-17 29 -45 44.5t-62 15.5q-38 0 -69.5 -19.5t-49.5 -55t-18 -82.5q0 -46 18.5 -81.5t49.5 -56t69 -20.5q24 0 45.5 8t38.5 22t25 32l131 -40
q-18 -39 -52.5 -70t-81 -48.5t-104.5 -17.5zM291 -201q-27 0 -58 7.5t-62 22.5l34 71q15 -10 30.5 -15.5t32.5 -5.5q26 0 40.5 11.5t14.5 33.5q0 21 -14.5 39.5t-41.5 36.5l45 29q40 -26 66 -56.5t26 -74.5q0 -42 -28.5 -70.5t-84.5 -28.5z" />
    <glyph glyph-name="egrave" unicode="&#xe8;" horiz-adv-x="599" 
d="M304 -10q-63 0 -114 21.5t-87 59t-55.5 86t-19.5 102.5q0 75 33.5 137t96 99.5t147.5 37.5q86 0 147 -37.5t93.5 -99t32.5 -132.5q0 -12 -1 -24.5t-2 -20.5h-405q4 -40 23.5 -70t50 -45.5t65.5 -15.5q40 0 75.5 19.5t48.5 51.5l115 -32q-19 -40 -54.5 -71t-83.5 -48.5
t-106 -17.5zM167 304h274q-4 40 -22.5 69.5t-48.5 46t-67 16.5q-36 0 -65.5 -16.5t-48 -46t-22.5 -69.5zM178 731h124l55 -119l-86 -26z" />
    <glyph glyph-name="eacute" unicode="&#xe9;" horiz-adv-x="599" 
d="M304 -10q-63 0 -114 21.5t-87 59t-55.5 86t-19.5 102.5q0 75 33.5 137t96 99.5t147.5 37.5q86 0 147 -37.5t93.5 -99t32.5 -132.5q0 -12 -1 -24.5t-2 -20.5h-405q4 -40 23.5 -70t50 -45.5t65.5 -15.5q40 0 75.5 19.5t48.5 51.5l115 -32q-19 -40 -54.5 -71t-83.5 -48.5
t-106 -17.5zM167 304h274q-4 40 -22.5 69.5t-48.5 46t-67 16.5q-36 0 -65.5 -16.5t-48 -46t-22.5 -69.5zM347 585l-86 26l54 119h125z" />
    <glyph glyph-name="ecircumflex" unicode="&#xea;" horiz-adv-x="599" 
d="M304 -10q-63 0 -114 21.5t-87 59t-55.5 86t-19.5 102.5q0 75 33.5 137t96 99.5t147.5 37.5q86 0 147 -37.5t93.5 -99t32.5 -132.5q0 -12 -1 -24.5t-2 -20.5h-405q4 -40 23.5 -70t50 -45.5t65.5 -15.5q40 0 75.5 19.5t48.5 51.5l115 -32q-19 -40 -54.5 -71t-83.5 -48.5
t-106 -17.5zM167 304h274q-4 40 -22.5 69.5t-48.5 46t-67 16.5q-36 0 -65.5 -16.5t-48 -46t-22.5 -69.5zM148 629l106 101h97l106 -101l-69 -32l-85 63l-85 -63z" />
    <glyph glyph-name="edieresis" unicode="&#xeb;" horiz-adv-x="599" 
d="M304 -10q-63 0 -114 21.5t-87 59t-55.5 86t-19.5 102.5q0 75 33.5 137t96 99.5t147.5 37.5q86 0 147 -37.5t93.5 -99t32.5 -132.5q0 -12 -1 -24.5t-2 -20.5h-405q4 -40 23.5 -70t50 -45.5t65.5 -15.5q40 0 75.5 19.5t48.5 51.5l115 -32q-19 -40 -54.5 -71t-83.5 -48.5
t-106 -17.5zM167 304h274q-4 40 -22.5 69.5t-48.5 46t-67 16.5q-36 0 -65.5 -16.5t-48 -46t-22.5 -69.5zM151 605v119h111v-119h-111zM343 605v119h111v-119h-111z" />
    <glyph glyph-name="igrave" unicode="&#xec;" horiz-adv-x="255" 
d="M61 0v524h134v-524h-134zM3 731h124l55 -119l-86 -26z" />
    <glyph glyph-name="iacute" unicode="&#xed;" horiz-adv-x="255" 
d="M61 0v524h134v-524h-134zM172 585l-86 26l54 119h125z" />
    <glyph glyph-name="icircumflex" unicode="&#xee;" horiz-adv-x="255" 
d="M61 0v524h134v-524h-134zM-27 629l106 101h97l106 -101l-69 -32l-85 63l-85 -63z" />
    <glyph glyph-name="idieresis" unicode="&#xef;" horiz-adv-x="255" 
d="M61 0v524h134v-524h-134zM-24 605v119h111v-119h-111zM168 605v119h111v-119h-111z" />
    <glyph glyph-name="eth" unicode="&#xf0;" horiz-adv-x="613" 
d="M580 290q0 -70 -20.5 -125.5t-58 -94.5t-88 -59.5t-110.5 -20.5q-76 0 -138 32t-98 87t-36 124q0 50 18.5 93t52 76t77 51.5t94.5 18.5q52 0 97.5 -21.5t72.5 -56.5q-10 47 -31 91.5t-56 86t-86.5 81t-123.5 77.5h172q67 -35 116.5 -85.5t82 -110t48 -122t15.5 -122.5z
M169 234q0 -37 17.5 -66.5t48.5 -46.5t70 -17q40 0 71 18t49 48.5t18 66.5q0 37 -18 65.5t-48.5 45t-69.5 16.5q-40 0 -71 -17t-49 -46.5t-18 -66.5zM526 660l-111 -61l-42 -13l-113 -64l-39 52l113 63l38 10l115 66z" />
    <glyph glyph-name="ntilde" unicode="&#xf1;" horiz-adv-x="604" 
d="M548 0h-134v294q0 63 -22 92t-61 29q-27 0 -54.5 -14t-49.5 -38.5t-32 -56.5v-306h-134v524h121v-97q20 34 51 57.5t71.5 36t85.5 12.5q49 0 80.5 -17.5t48 -47t23 -66.5t6.5 -75v-327zM382 602q-30 0 -51.5 11.5t-39.5 22.5t-40 11t-32.5 -11.5t-13 -23.5t-2.5 -13h-74
q0 9 6 30t19.5 43.5t36 38.5t55.5 16q31 0 51 -12t38.5 -23.5t42.5 -11.5t35 12t14.5 24t3.5 14h74q0 -7 -6 -27t-20.5 -43.5t-38 -40.5t-58.5 -17z" />
    <glyph glyph-name="ograve" unicode="&#xf2;" horiz-adv-x="606" 
d="M303 -10q-64 0 -115 21.5t-86.5 59.5t-54.5 87t-19 103q0 55 19 104t54.5 87t86.5 59.5t115 21.5t114.5 -21.5t86.5 -59.5t54.5 -87t18.5 -104q0 -54 -18.5 -103t-54 -87t-86.5 -59.5t-115 -21.5zM166 261q0 -46 18 -81.5t49 -55.5t70 -20q38 0 69 20.5t49.5 56
t18.5 81.5q0 45 -18.5 81t-49.5 56t-69 20q-39 0 -70 -20.5t-49 -56t-18 -81.5zM178 731h124l55 -119l-86 -26z" />
    <glyph glyph-name="oacute" unicode="&#xf3;" horiz-adv-x="606" 
d="M303 -10q-64 0 -115 21.5t-86.5 59.5t-54.5 87t-19 103q0 55 19 104t54.5 87t86.5 59.5t115 21.5t114.5 -21.5t86.5 -59.5t54.5 -87t18.5 -104q0 -54 -18.5 -103t-54 -87t-86.5 -59.5t-115 -21.5zM166 261q0 -46 18 -81.5t49 -55.5t70 -20q38 0 69 20.5t49.5 56
t18.5 81.5q0 45 -18.5 81t-49.5 56t-69 20q-39 0 -70 -20.5t-49 -56t-18 -81.5zM347 585l-86 26l54 119h125z" />
    <glyph glyph-name="ocircumflex" unicode="&#xf4;" horiz-adv-x="606" 
d="M303 -10q-64 0 -115 21.5t-86.5 59.5t-54.5 87t-19 103q0 55 19 104t54.5 87t86.5 59.5t115 21.5t114.5 -21.5t86.5 -59.5t54.5 -87t18.5 -104q0 -54 -18.5 -103t-54 -87t-86.5 -59.5t-115 -21.5zM166 261q0 -46 18 -81.5t49 -55.5t70 -20q38 0 69 20.5t49.5 56
t18.5 81.5q0 45 -18.5 81t-49.5 56t-69 20q-39 0 -70 -20.5t-49 -56t-18 -81.5zM148 629l106 101h97l106 -101l-69 -32l-85 63l-85 -63z" />
    <glyph glyph-name="otilde" unicode="&#xf5;" horiz-adv-x="606" 
d="M303 -10q-64 0 -115 21.5t-86.5 59.5t-54.5 87t-19 103q0 55 19 104t54.5 87t86.5 59.5t115 21.5t114.5 -21.5t86.5 -59.5t54.5 -87t18.5 -104q0 -54 -18.5 -103t-54 -87t-86.5 -59.5t-115 -21.5zM166 261q0 -46 18 -81.5t49 -55.5t70 -20q38 0 69 20.5t49.5 56
t18.5 81.5q0 45 -18.5 81t-49.5 56t-69 20q-39 0 -70 -20.5t-49 -56t-18 -81.5zM368 602q-30 0 -51.5 11.5t-39.5 22.5t-40 11t-32.5 -11.5t-13 -23.5t-2.5 -13h-74q0 9 6 30t19.5 43.5t36 38.5t55.5 16q31 0 51 -12t38.5 -23.5t42.5 -11.5t35 12t14.5 24t3.5 14h74
q0 -7 -6 -27t-20.5 -43.5t-38 -40.5t-58.5 -17z" />
    <glyph glyph-name="odieresis" unicode="&#xf6;" horiz-adv-x="606" 
d="M303 -10q-64 0 -115 21.5t-86.5 59.5t-54.5 87t-19 103q0 55 19 104t54.5 87t86.5 59.5t115 21.5t114.5 -21.5t86.5 -59.5t54.5 -87t18.5 -104q0 -54 -18.5 -103t-54 -87t-86.5 -59.5t-115 -21.5zM166 261q0 -46 18 -81.5t49 -55.5t70 -20q38 0 69 20.5t49.5 56
t18.5 81.5q0 45 -18.5 81t-49.5 56t-69 20q-39 0 -70 -20.5t-49 -56t-18 -81.5zM151 605v119h111v-119h-111zM343 605v119h111v-119h-111z" />
    <glyph glyph-name="divide" unicode="&#xf7;" horiz-adv-x="511" 
d="M200 419v128h113v-128h-113zM200 48v129h113v-129h-113zM54 244v107h404v-107h-404z" />
    <glyph glyph-name="oslash" unicode="&#xf8;" horiz-adv-x="606" 
d="M303 -10q-64 0 -115 21.5t-86.5 59.5t-54.5 87t-19 103q0 55 19 104t54.5 87t86.5 59.5t115 21.5t114.5 -21.5t86.5 -59.5t54.5 -87t18.5 -104q0 -54 -18.5 -103t-54 -87t-86.5 -59.5t-115 -21.5zM303 104q38 0 69 20.5t49.5 56t18.5 81.5q0 45 -18.5 81t-49.5 56t-69 20
q-39 0 -70 -20.5t-49 -56t-18 -81.5t18 -81.5t49 -55.5t70 -20zM42 -4l103 127l56 -41l-73 -86h-86zM211 94l-49 36l235 308l55 -29zM469 417l-63 32l65 79h88z" />
    <glyph glyph-name="ugrave" unicode="&#xf9;" horiz-adv-x="618" 
d="M56 196v328h134v-299q0 -60 22 -90.5t65 -30.5q26 0 51.5 10.5t47 31.5t36.5 53v325h134v-374q0 -21 7.5 -30t24.5 -11v-109q-20 -3 -33.5 -4.5t-24.5 -1.5q-36 0 -58.5 16.5t-26.5 45.5l-3 42q-35 -53 -90 -80.5t-121 -27.5q-81 0 -123 52.5t-42 153.5zM176 731h124
l55 -119l-86 -26z" />
    <glyph glyph-name="uacute" unicode="&#xfa;" horiz-adv-x="618" 
d="M56 196v328h134v-299q0 -60 22 -90.5t65 -30.5q26 0 51.5 10.5t47 31.5t36.5 53v325h134v-374q0 -21 7.5 -30t24.5 -11v-109q-20 -3 -33.5 -4.5t-24.5 -1.5q-36 0 -58.5 16.5t-26.5 45.5l-3 42q-35 -53 -90 -80.5t-121 -27.5q-81 0 -123 52.5t-42 153.5zM345 585l-86 26
l54 119h125z" />
    <glyph glyph-name="ucircumflex" unicode="&#xfb;" horiz-adv-x="618" 
d="M56 196v328h134v-299q0 -60 22 -90.5t65 -30.5q26 0 51.5 10.5t47 31.5t36.5 53v325h134v-374q0 -21 7.5 -30t24.5 -11v-109q-20 -3 -33.5 -4.5t-24.5 -1.5q-36 0 -58.5 16.5t-26.5 45.5l-3 42q-35 -53 -90 -80.5t-121 -27.5q-81 0 -123 52.5t-42 153.5zM146 629l106 101
h97l106 -101l-69 -32l-85 63l-85 -63z" />
    <glyph glyph-name="udieresis" unicode="&#xfc;" horiz-adv-x="618" 
d="M56 196v328h134v-299q0 -60 22 -90.5t65 -30.5q26 0 51.5 10.5t47 31.5t36.5 53v325h134v-374q0 -21 7.5 -30t24.5 -11v-109q-20 -3 -33.5 -4.5t-24.5 -1.5q-36 0 -58.5 16.5t-26.5 45.5l-3 42q-35 -53 -90 -80.5t-121 -27.5q-81 0 -123 52.5t-42 153.5zM149 605v119h111
v-119h-111zM341 605v119h111v-119h-111z" />
    <glyph glyph-name="yacute" unicode="&#xfd;" horiz-adv-x="550" 
d="M72 -102q18 -4 33.5 -7t26.5 -3q19 0 31.5 9.5t24.5 34t25 68.5l-207 524h139l141 -387l124 387h128l-220 -628q-12 -35 -36.5 -63.5t-61 -45t-81.5 -16.5q-16 0 -32 2.5t-35 8.5v116zM331 585l-86 26l54 119h125z" />
    <glyph glyph-name="thorn" unicode="&#xfe;" horiz-adv-x="601" 
d="M574 256q-1 -55 -21.5 -105.5t-56.5 -89.5t-83.5 -62t-101.5 -23q-45 0 -74 17t-39 34v-240h-137v923h137v-227q13 19 41.5 37.5t79.5 18.5q59 0 106 -25t80.5 -66t51 -91t17.5 -101zM437 258q0 43 -15.5 79.5t-43.5 58.5t-67 22q-27 0 -48 -11t-37 -29t-28 -42v-160
q0 -14 9.5 -28t25.5 -25.5t35.5 -18.5t38.5 -7q28 0 51.5 12.5t41 35t27.5 51.5t10 62z" />
    <glyph glyph-name="ydieresis" unicode="&#xff;" horiz-adv-x="550" 
d="M72 -102q18 -4 33.5 -7t26.5 -3q19 0 31.5 9.5t24.5 34t25 68.5l-207 524h139l141 -387l124 387h128l-220 -628q-12 -35 -36.5 -63.5t-61 -45t-81.5 -16.5q-16 0 -32 2.5t-35 8.5v116zM135 605v119h111v-119h-111zM327 605v119h111v-119h-111z" />
    <glyph glyph-name="Amacron" unicode="&#x100;" horiz-adv-x="672" 
d="M267 710h140l261 -710h-142l-66 177h-248l-65 -177h-142zM435 274l-98 293l-102 -293h200zM188 818v83h300v-83h-300z" />
    <glyph glyph-name="amacron" unicode="&#x101;" horiz-adv-x="574" 
d="M25 155q0 51 28.5 89.5t79.5 59.5t117 21q33 0 67 -5t59 -16v28q0 50 -29.5 77t-87.5 27q-43 0 -82 -15t-82 -44l-43 88q52 34 106.5 51t114.5 17q112 0 174.5 -56t62.5 -160v-167q0 -21 7.5 -30t24.5 -11v-109q-18 -3 -32.5 -5t-24.5 -2q-40 0 -60.5 18t-25.5 44l-3 27
q-34 -44 -85 -68t-104 -24q-52 0 -93.5 21.5t-65 59t-23.5 84.5zM351 128q11 12 18 24t7 22v53q-24 10 -52 15.5t-53 5.5q-52 0 -85.5 -22.5t-33.5 -59.5q0 -20 11 -38t32 -29t50 -11q30 0 59 11.5t47 28.5zM124 633v83h300v-83h-300z" />
    <glyph glyph-name="Abreve" unicode="&#x102;" horiz-adv-x="672" 
d="M267 710h140l261 -710h-142l-66 177h-248l-65 -177h-142zM435 274l-98 293l-102 -293h200zM337 841q23 0 40 21t20 53h71q0 -58 -36.5 -96t-94.5 -38q-57 0 -94 38t-37 96h72q0 -30 18 -52t41 -22z" />
    <glyph glyph-name="abreve" unicode="&#x103;" horiz-adv-x="574" 
d="M25 155q0 51 28.5 89.5t79.5 59.5t117 21q33 0 67 -5t59 -16v28q0 50 -29.5 77t-87.5 27q-43 0 -82 -15t-82 -44l-43 88q52 34 106.5 51t114.5 17q112 0 174.5 -56t62.5 -160v-167q0 -21 7.5 -30t24.5 -11v-109q-18 -3 -32.5 -5t-24.5 -2q-40 0 -60.5 18t-25.5 44l-3 27
q-34 -44 -85 -68t-104 -24q-52 0 -93.5 21.5t-65 59t-23.5 84.5zM351 128q11 12 18 24t7 22v53q-24 10 -52 15.5t-53 5.5q-52 0 -85.5 -22.5t-33.5 -59.5q0 -20 11 -38t32 -29t50 -11q30 0 59 11.5t47 28.5zM272 656q23 0 40 21t20 53h71q0 -58 -36.5 -96t-94.5 -38
q-57 0 -94 38t-37 96h72q0 -30 18 -52t41 -22z" />
    <glyph glyph-name="Aogonek" unicode="&#x104;" horiz-adv-x="672" 
d="M267 710h140l261 -710h-142l-66 177h-248l-65 -177h-142zM435 274l-98 293l-102 -293h200zM507 -110q0 34 25 68t77 63h42l16 -21q-37 -26 -56 -47.5t-19 -39.5t19.5 -27t55.5 -10l-27 -76q-50 5 -79.5 18.5t-41.5 32.5t-12 39z" />
    <glyph glyph-name="aogonek" unicode="&#x105;" horiz-adv-x="574" 
d="M25 155q0 51 28.5 89.5t79.5 59.5t117 21q33 0 67 -5t59 -16v28q0 50 -29.5 77t-87.5 27q-43 0 -82 -15t-82 -44l-43 88q52 34 106.5 51t114.5 17q112 0 174.5 -56t62.5 -160v-167q0 -21 7.5 -30t24.5 -11v-109q-18 -3 -32.5 -5t-24.5 -2q-40 0 -60.5 18t-25.5 44l-3 27
q-34 -44 -85 -68t-104 -24q-52 0 -93.5 21.5t-65 59t-23.5 84.5zM351 128q11 12 18 24t7 22v53q-24 10 -52 15.5t-53 5.5q-52 0 -85.5 -22.5t-33.5 -59.5q0 -20 11 -38t32 -29t50 -11q30 0 59 11.5t47 28.5zM381 -110q0 34 25 68t77 63h42l16 -21q-37 -26 -56 -47.5
t-19 -39.5t19.5 -27t55.5 -10l-27 -76q-50 5 -79.5 18.5t-41.5 32.5t-12 39z" />
    <glyph glyph-name="Cacute" unicode="&#x106;" horiz-adv-x="686" 
d="M31 360q0 65 23.5 127.5t68.5 114t110 82t148 30.5q98 0 169.5 -43t106.5 -112l-106 -73q-18 40 -47 63.5t-62 33t-65 9.5q-52 0 -90.5 -21t-64.5 -55t-38.5 -76t-12.5 -84q0 -47 15 -90.5t42.5 -77t66 -53t84.5 -19.5q33 0 67 11t63 35t45 62l113 -65q-21 -53 -68.5 -90
t-106.5 -56t-117 -19q-76 0 -139 31.5t-108.5 84t-71 118t-25.5 132.5zM425 770l-86 26l54 119h125z" />
    <glyph glyph-name="cacute" unicode="&#x107;" horiz-adv-x="564" 
d="M305 -10q-64 0 -115 21.5t-87 60t-55.5 87.5t-19.5 103q0 74 33.5 135.5t95.5 98.5t147 37t146 -37t91 -97l-131 -40q-17 29 -45 44.5t-62 15.5q-38 0 -69.5 -19.5t-49.5 -55t-18 -82.5q0 -46 18.5 -81.5t49.5 -56t69 -20.5q24 0 45.5 8t38.5 22t25 32l131 -40
q-18 -39 -52.5 -70t-81 -48.5t-104.5 -17.5zM348 585l-86 26l54 119h125z" />
    <glyph glyph-name="Ccircumflex" unicode="&#x108;" horiz-adv-x="686" 
d="M31 360q0 65 23.5 127.5t68.5 114t110 82t148 30.5q98 0 169.5 -43t106.5 -112l-106 -73q-18 40 -47 63.5t-62 33t-65 9.5q-52 0 -90.5 -21t-64.5 -55t-38.5 -76t-12.5 -84q0 -47 15 -90.5t42.5 -77t66 -53t84.5 -19.5q33 0 67 11t63 35t45 62l113 -65q-21 -53 -68.5 -90
t-106.5 -56t-117 -19q-76 0 -139 31.5t-108.5 84t-71 118t-25.5 132.5zM226 814l106 101h97l106 -101l-69 -32l-85 63l-85 -63z" />
    <glyph glyph-name="ccircumflex" unicode="&#x109;" horiz-adv-x="564" 
d="M305 -10q-64 0 -115 21.5t-87 60t-55.5 87.5t-19.5 103q0 74 33.5 135.5t95.5 98.5t147 37t146 -37t91 -97l-131 -40q-17 29 -45 44.5t-62 15.5q-38 0 -69.5 -19.5t-49.5 -55t-18 -82.5q0 -46 18.5 -81.5t49.5 -56t69 -20.5q24 0 45.5 8t38.5 22t25 32l131 -40
q-18 -39 -52.5 -70t-81 -48.5t-104.5 -17.5zM149 629l106 101h97l106 -101l-69 -32l-85 63l-85 -63z" />
    <glyph glyph-name="Cdotaccent" unicode="&#x10a;" horiz-adv-x="686" 
d="M31 360q0 65 23.5 127.5t68.5 114t110 82t148 30.5q98 0 169.5 -43t106.5 -112l-106 -73q-18 40 -47 63.5t-62 33t-65 9.5q-52 0 -90.5 -21t-64.5 -55t-38.5 -76t-12.5 -84q0 -47 15 -90.5t42.5 -77t66 -53t84.5 -19.5q33 0 67 11t63 35t45 62l113 -65q-21 -53 -68.5 -90
t-106.5 -56t-117 -19q-76 0 -139 31.5t-108.5 84t-71 118t-25.5 132.5zM320 789v126h121v-126h-121z" />
    <glyph glyph-name="cdotaccent" unicode="&#x10b;" horiz-adv-x="564" 
d="M305 -10q-64 0 -115 21.5t-87 60t-55.5 87.5t-19.5 103q0 74 33.5 135.5t95.5 98.5t147 37t146 -37t91 -97l-131 -40q-17 29 -45 44.5t-62 15.5q-38 0 -69.5 -19.5t-49.5 -55t-18 -82.5q0 -46 18.5 -81.5t49.5 -56t69 -20.5q24 0 45.5 8t38.5 22t25 32l131 -40
q-18 -39 -52.5 -70t-81 -48.5t-104.5 -17.5zM243 604v126h121v-126h-121z" />
    <glyph glyph-name="Ccaron" unicode="&#x10c;" horiz-adv-x="686" 
d="M31 360q0 65 23.5 127.5t68.5 114t110 82t148 30.5q98 0 169.5 -43t106.5 -112l-106 -73q-18 40 -47 63.5t-62 33t-65 9.5q-52 0 -90.5 -21t-64.5 -55t-38.5 -76t-12.5 -84q0 -47 15 -90.5t42.5 -77t66 -53t84.5 -19.5q33 0 67 11t63 35t45 62l113 -65q-21 -53 -68.5 -90
t-106.5 -56t-117 -19q-76 0 -139 31.5t-108.5 84t-71 118t-25.5 132.5zM296 915l85 -63l85 63l69 -32l-106 -101h-97l-106 101z" />
    <glyph glyph-name="ccaron" unicode="&#x10d;" horiz-adv-x="564" 
d="M305 -10q-64 0 -115 21.5t-87 60t-55.5 87.5t-19.5 103q0 74 33.5 135.5t95.5 98.5t147 37t146 -37t91 -97l-131 -40q-17 29 -45 44.5t-62 15.5q-38 0 -69.5 -19.5t-49.5 -55t-18 -82.5q0 -46 18.5 -81.5t49.5 -56t69 -20.5q24 0 45.5 8t38.5 22t25 32l131 -40
q-18 -39 -52.5 -70t-81 -48.5t-104.5 -17.5zM219 730l85 -63l85 63l69 -32l-106 -101h-97l-106 101z" />
    <glyph glyph-name="Dcaron" unicode="&#x10e;" horiz-adv-x="716" 
d="M74 0v710h258q116 0 194 -47.5t117 -128t39 -178.5q0 -108 -43 -188t-121.5 -124t-185.5 -44h-258zM543 356q0 69 -25 121.5t-72 82t-114 29.5h-120v-468h120q68 0 115 30.5t71.5 84t24.5 120.5zM245 915l85 -63l85 63l69 -32l-106 -101h-97l-106 101z" />
    <glyph glyph-name="dcaron" unicode="&#x10f;" horiz-adv-x="645" 
d="M29 262q0 76 30 137.5t83 97.5t121 36q58 0 104.5 -28.5t72.5 -72.5v298h134v-580q0 -21 7 -30t24 -11v-109q-35 -7 -57 -7q-36 0 -59.5 18t-26.5 47l-2 33q-29 -49 -78.5 -75t-103.5 -26t-99.5 21t-79 58t-52 86.5t-18.5 106.5zM440 192v125q-10 29 -32 52t-49 36.5
t-54 13.5q-31 0 -56 -13t-43.5 -35t-28 -51t-9.5 -61t10.5 -60.5t30.5 -49.5t46.5 -33t57.5 -12q19 0 38.5 6.5t37 18t31 28t20.5 35.5zM687 585l-86 26l54 119h125z" />
    <glyph glyph-name="Dcroat" unicode="&#x110;" horiz-adv-x="721" 
d="M31 307v100h325v-100h-325zM79 0v710h258q116 0 194 -47.5t117 -128t39 -178.5q0 -108 -43 -188t-121.5 -124t-185.5 -44h-258zM548 356q0 69 -25 121.5t-72 82t-114 29.5h-120v-468h120q68 0 115 30.5t71.5 84t24.5 120.5z" />
    <glyph glyph-name="dcroat" unicode="&#x111;" horiz-adv-x="645" 
d="M340 597v79h297v-79h-297zM29 262q0 76 30 137.5t83 97.5t121 36q58 0 104.5 -28.5t72.5 -72.5v298h134v-580q0 -21 7 -30t24 -11v-109q-35 -7 -57 -7q-36 0 -59.5 18t-26.5 47l-2 33q-29 -49 -78.5 -75t-103.5 -26t-99.5 21t-79 58t-52 86.5t-18.5 106.5zM440 192v125
q-10 29 -32 52t-49 36.5t-54 13.5q-31 0 -56 -13t-43.5 -35t-28 -51t-9.5 -61t10.5 -60.5t30.5 -49.5t46.5 -33t57.5 -12q19 0 38.5 6.5t37 18t31 28t20.5 35.5z" />
    <glyph glyph-name="Emacron" unicode="&#x112;" horiz-adv-x="601" 
d="M567 121v-121h-493v710h484v-121h-346v-171h299v-112h-299v-185h355zM177 818v83h300v-83h-300z" />
    <glyph glyph-name="emacron" unicode="&#x113;" horiz-adv-x="599" 
d="M304 -10q-63 0 -114 21.5t-87 59t-55.5 86t-19.5 102.5q0 75 33.5 137t96 99.5t147.5 37.5q86 0 147 -37.5t93.5 -99t32.5 -132.5q0 -12 -1 -24.5t-2 -20.5h-405q4 -40 23.5 -70t50 -45.5t65.5 -15.5q40 0 75.5 19.5t48.5 51.5l115 -32q-19 -40 -54.5 -71t-83.5 -48.5
t-106 -17.5zM167 304h274q-4 40 -22.5 69.5t-48.5 46t-67 16.5q-36 0 -65.5 -16.5t-48 -46t-22.5 -69.5zM154 633v83h300v-83h-300z" />
    <glyph glyph-name="Ebreve" unicode="&#x114;" horiz-adv-x="601" 
d="M567 121v-121h-493v710h484v-121h-346v-171h299v-112h-299v-185h355zM326 841q23 0 40 21t20 53h71q0 -58 -36.5 -96t-94.5 -38q-57 0 -94 38t-37 96h72q0 -30 18 -52t41 -22z" />
    <glyph glyph-name="ebreve" unicode="&#x115;" horiz-adv-x="599" 
d="M304 -10q-63 0 -114 21.5t-87 59t-55.5 86t-19.5 102.5q0 75 33.5 137t96 99.5t147.5 37.5q86 0 147 -37.5t93.5 -99t32.5 -132.5q0 -12 -1 -24.5t-2 -20.5h-405q4 -40 23.5 -70t50 -45.5t65.5 -15.5q40 0 75.5 19.5t48.5 51.5l115 -32q-19 -40 -54.5 -71t-83.5 -48.5
t-106 -17.5zM167 304h274q-4 40 -22.5 69.5t-48.5 46t-67 16.5q-36 0 -65.5 -16.5t-48 -46t-22.5 -69.5zM302 656q23 0 40 21t20 53h71q0 -58 -36.5 -96t-94.5 -38q-57 0 -94 38t-37 96h72q0 -30 18 -52t41 -22z" />
    <glyph glyph-name="Edotaccent" unicode="&#x116;" horiz-adv-x="601" 
d="M567 121v-121h-493v710h484v-121h-346v-171h299v-112h-299v-185h355zM266 789v126h121v-126h-121z" />
    <glyph glyph-name="edotaccent" unicode="&#x117;" horiz-adv-x="599" 
d="M304 -10q-63 0 -114 21.5t-87 59t-55.5 86t-19.5 102.5q0 75 33.5 137t96 99.5t147.5 37.5q86 0 147 -37.5t93.5 -99t32.5 -132.5q0 -12 -1 -24.5t-2 -20.5h-405q4 -40 23.5 -70t50 -45.5t65.5 -15.5q40 0 75.5 19.5t48.5 51.5l115 -32q-19 -40 -54.5 -71t-83.5 -48.5
t-106 -17.5zM167 304h274q-4 40 -22.5 69.5t-48.5 46t-67 16.5q-36 0 -65.5 -16.5t-48 -46t-22.5 -69.5zM242 604v126h121v-126h-121z" />
    <glyph glyph-name="Eogonek" unicode="&#x118;" horiz-adv-x="601" 
d="M567 121v-121h-493v710h484v-121h-346v-171h299v-112h-299v-185h355zM407 -110q0 34 25 68t77 63h42l16 -21q-37 -26 -56 -47.5t-19 -39.5t19.5 -27t55.5 -10l-27 -76q-50 5 -79.5 18.5t-41.5 32.5t-12 39z" />
    <glyph glyph-name="eogonek" unicode="&#x119;" horiz-adv-x="599" 
d="M304 -10q-63 0 -114 21.5t-87 59t-55.5 86t-19.5 102.5q0 75 33.5 137t96 99.5t147.5 37.5q86 0 147 -37.5t93.5 -99t32.5 -132.5q0 -12 -1 -24.5t-2 -20.5h-405q4 -40 23.5 -70t50 -45.5t65.5 -15.5q40 0 75.5 19.5t48.5 51.5l115 -32q-19 -40 -54.5 -71t-83.5 -48.5
t-106 -17.5zM167 304h274q-4 40 -22.5 69.5t-48.5 46t-67 16.5q-36 0 -65.5 -16.5t-48 -46t-22.5 -69.5zM222 -110q0 34 25 68t77 63h42l16 -21q-37 -26 -56 -47.5t-19 -39.5t19.5 -27t55.5 -10l-27 -76q-50 5 -79.5 18.5t-41.5 32.5t-12 39z" />
    <glyph glyph-name="Ecaron" unicode="&#x11a;" horiz-adv-x="601" 
d="M567 121v-121h-493v710h484v-121h-346v-171h299v-112h-299v-185h355zM241 915l85 -63l85 63l69 -32l-106 -101h-97l-106 101z" />
    <glyph glyph-name="ecaron" unicode="&#x11b;" horiz-adv-x="599" 
d="M304 -10q-63 0 -114 21.5t-87 59t-55.5 86t-19.5 102.5q0 75 33.5 137t96 99.5t147.5 37.5q86 0 147 -37.5t93.5 -99t32.5 -132.5q0 -12 -1 -24.5t-2 -20.5h-405q4 -40 23.5 -70t50 -45.5t65.5 -15.5q40 0 75.5 19.5t48.5 51.5l115 -32q-19 -40 -54.5 -71t-83.5 -48.5
t-106 -17.5zM167 304h274q-4 40 -22.5 69.5t-48.5 46t-67 16.5q-36 0 -65.5 -16.5t-48 -46t-22.5 -69.5zM218 730l85 -63l85 63l69 -32l-106 -101h-97l-106 101z" />
    <glyph glyph-name="Gcircumflex" unicode="&#x11c;" horiz-adv-x="725" 
d="M369 -5q-69 0 -130.5 28t-108 77.5t-72.5 115.5t-26 143q0 73 26 137.5t73 113.5t110 77t137 28q100 0 171.5 -42.5t107.5 -112.5l-103 -76q-27 53 -75.5 81t-105.5 28q-45 0 -82 -19t-64 -52t-41.5 -76t-14.5 -91q0 -51 15.5 -94t44 -75t66.5 -50.5t84 -18.5
q54 0 103.5 28t92.5 82v-136q-89 -96 -208 -96zM567 264h-143v101h257v-365h-114v264zM223 814l106 101h97l106 -101l-69 -32l-85 63l-85 -63z" />
    <glyph glyph-name="gcircumflex" unicode="&#x11d;" horiz-adv-x="634" 
d="M266 -3q-52 0 -95.5 20.5t-75 57.5t-48.5 85t-17 102q0 57 18 106t50.5 86.5t77 58t98.5 20.5q61 0 107 -27.5t76 -73.5v92h117v-499q0 -78 -37.5 -133.5t-103.5 -85t-150 -29.5q-85 0 -144 28.5t-101 80.5l73 71q30 -37 75.5 -58t96.5 -21q43 0 78.5 15.5t57 48
t21.5 83.5v66q-26 -45 -73.5 -69.5t-100.5 -24.5zM311 104q22 0 42 7t37 19t30 28.5t20 33.5v125q-12 31 -33.5 54t-48 35.5t-55.5 12.5q-31 0 -56 -13t-43 -36.5t-27.5 -52t-9.5 -59.5q0 -32 11 -60t30.5 -49t46 -33t56.5 -12zM158 629l106 101h97l106 -101l-69 -32l-85 63
l-85 -63z" />
    <glyph glyph-name="Gbreve" unicode="&#x11e;" horiz-adv-x="725" 
d="M369 -5q-69 0 -130.5 28t-108 77.5t-72.5 115.5t-26 143q0 73 26 137.5t73 113.5t110 77t137 28q100 0 171.5 -42.5t107.5 -112.5l-103 -76q-27 53 -75.5 81t-105.5 28q-45 0 -82 -19t-64 -52t-41.5 -76t-14.5 -91q0 -51 15.5 -94t44 -75t66.5 -50.5t84 -18.5
q54 0 103.5 28t92.5 82v-136q-89 -96 -208 -96zM567 264h-143v101h257v-365h-114v264zM377 841q23 0 40 21t20 53h71q0 -58 -36.5 -96t-94.5 -38q-57 0 -94 38t-37 96h72q0 -30 18 -52t41 -22z" />
    <glyph glyph-name="gbreve" unicode="&#x11f;" horiz-adv-x="634" 
d="M266 -3q-52 0 -95.5 20.5t-75 57.5t-48.5 85t-17 102q0 57 18 106t50.5 86.5t77 58t98.5 20.5q61 0 107 -27.5t76 -73.5v92h117v-499q0 -78 -37.5 -133.5t-103.5 -85t-150 -29.5q-85 0 -144 28.5t-101 80.5l73 71q30 -37 75.5 -58t96.5 -21q43 0 78.5 15.5t57 48
t21.5 83.5v66q-26 -45 -73.5 -69.5t-100.5 -24.5zM311 104q22 0 42 7t37 19t30 28.5t20 33.5v125q-12 31 -33.5 54t-48 35.5t-55.5 12.5q-31 0 -56 -13t-43 -36.5t-27.5 -52t-9.5 -59.5q0 -32 11 -60t30.5 -49t46 -33t56.5 -12zM312 656q23 0 40 21t20 53h71
q0 -58 -36.5 -96t-94.5 -38q-57 0 -94 38t-37 96h72q0 -30 18 -52t41 -22z" />
    <glyph glyph-name="Gdotaccent" unicode="&#x120;" horiz-adv-x="725" 
d="M369 -5q-69 0 -130.5 28t-108 77.5t-72.5 115.5t-26 143q0 73 26 137.5t73 113.5t110 77t137 28q100 0 171.5 -42.5t107.5 -112.5l-103 -76q-27 53 -75.5 81t-105.5 28q-45 0 -82 -19t-64 -52t-41.5 -76t-14.5 -91q0 -51 15.5 -94t44 -75t66.5 -50.5t84 -18.5
q54 0 103.5 28t92.5 82v-136q-89 -96 -208 -96zM567 264h-143v101h257v-365h-114v264zM317 789v126h121v-126h-121z" />
    <glyph glyph-name="gdotaccent" unicode="&#x121;" horiz-adv-x="634" 
d="M266 -3q-52 0 -95.5 20.5t-75 57.5t-48.5 85t-17 102q0 57 18 106t50.5 86.5t77 58t98.5 20.5q61 0 107 -27.5t76 -73.5v92h117v-499q0 -78 -37.5 -133.5t-103.5 -85t-150 -29.5q-85 0 -144 28.5t-101 80.5l73 71q30 -37 75.5 -58t96.5 -21q43 0 78.5 15.5t57 48
t21.5 83.5v66q-26 -45 -73.5 -69.5t-100.5 -24.5zM311 104q22 0 42 7t37 19t30 28.5t20 33.5v125q-12 31 -33.5 54t-48 35.5t-55.5 12.5q-31 0 -56 -13t-43 -36.5t-27.5 -52t-9.5 -59.5q0 -32 11 -60t30.5 -49t46 -33t56.5 -12zM252 604v126h121v-126h-121z" />
    <glyph glyph-name="uni0122" unicode="&#x122;" horiz-adv-x="725" 
d="M369 -5q-69 0 -130.5 28t-108 77.5t-72.5 115.5t-26 143q0 73 26 137.5t73 113.5t110 77t137 28q100 0 171.5 -42.5t107.5 -112.5l-103 -76q-27 53 -75.5 81t-105.5 28q-45 0 -82 -19t-64 -52t-41.5 -76t-14.5 -91q0 -51 15.5 -94t44 -75t66.5 -50.5t84 -18.5
q54 0 103.5 28t92.5 82v-136q-89 -96 -208 -96zM567 264h-143v101h257v-365h-114v264zM324 -213l27 72h-39v94h113v-94l-40 -72h-61z" />
    <glyph glyph-name="uni0123" unicode="&#x123;" horiz-adv-x="634" 
d="M266 -3q-52 0 -95.5 20.5t-75 57.5t-48.5 85t-17 102q0 57 18 106t50.5 86.5t77 58t98.5 20.5q61 0 107 -27.5t76 -73.5v92h117v-499q0 -78 -37.5 -133.5t-103.5 -85t-150 -29.5q-85 0 -144 28.5t-101 80.5l73 71q30 -37 75.5 -58t96.5 -21q43 0 78.5 15.5t57 48
t21.5 83.5v66q-26 -45 -73.5 -69.5t-100.5 -24.5zM311 104q22 0 42 7t37 19t30 28.5t20 33.5v125q-12 31 -33.5 54t-48 35.5t-55.5 12.5q-31 0 -56 -13t-43 -36.5t-27.5 -52t-9.5 -59.5q0 -32 11 -60t30.5 -49t46 -33t56.5 -12zM357 730l-27 -63h39v-84h-113v84l40 63h61z
" />
    <glyph glyph-name="Hcircumflex" unicode="&#x124;" horiz-adv-x="745" 
d="M671 710v-710h-137v303h-322v-303h-138v710h138v-287h322v287h137zM221 814l106 101h97l106 -101l-69 -32l-85 63l-85 -63z" />
    <glyph glyph-name="hcircumflex" unicode="&#x125;" horiz-adv-x="604" 
d="M548 0h-134v294q0 61 -23.5 91t-64.5 30q-24 0 -51 -14t-48.5 -38.5t-31.5 -56.5v-306h-134v730h134v-303q29 50 79 78t109 28q51 0 83 -17.5t50 -47t25 -66t7 -75.5v-327zM166 815l106 101h97l106 -101l-69 -32l-85 63l-85 -63z" />
    <glyph glyph-name="Hbar" unicode="&#x126;" horiz-adv-x="753" 
d="M28 533v76h697v-76h-697zM675 710v-710h-137v303h-322v-303h-138v710h138v-287h322v287h137z" />
    <glyph glyph-name="hbar" unicode="&#x127;" horiz-adv-x="604" 
d="M16 597v79h297v-79h-297zM548 0h-134v294q0 61 -23.5 91t-64.5 30q-24 0 -51 -14t-48.5 -38.5t-31.5 -56.5v-306h-134v730h134v-303q29 50 79 78t109 28q51 0 83 -17.5t50 -47t25 -66t7 -75.5v-327z" />
    <glyph glyph-name="Itilde" unicode="&#x128;" horiz-adv-x="286" 
d="M74 0v710h138v-710h-138zM208 787q-30 0 -51.5 11.5t-39.5 22.5t-40 11t-32.5 -11.5t-13 -23.5t-2.5 -13h-74q0 9 6 30t19.5 43.5t36 38.5t55.5 16q31 0 51 -12t38.5 -23.5t42.5 -11.5t35 12t14.5 24t3.5 14h74q0 -7 -6 -27t-20.5 -43.5t-38 -40.5t-58.5 -17z" />
    <glyph glyph-name="itilde" unicode="&#x129;" horiz-adv-x="255" 
d="M61 0v524h134v-524h-134zM193 602q-30 0 -51.5 11.5t-39.5 22.5t-40 11t-32.5 -11.5t-13 -23.5t-2.5 -13h-74q0 9 6 30t19.5 43.5t36 38.5t55.5 16q31 0 51 -12t38.5 -23.5t42.5 -11.5t35 12t14.5 24t3.5 14h74q0 -7 -6 -27t-20.5 -43.5t-38 -40.5t-58.5 -17z" />
    <glyph glyph-name="Imacron" unicode="&#x12a;" horiz-adv-x="286" 
d="M74 0v710h138v-710h-138zM-6 818v83h300v-83h-300z" />
    <glyph glyph-name="imacron" unicode="&#x12b;" horiz-adv-x="255" 
d="M61 0v524h134v-524h-134zM-21 633v83h300v-83h-300z" />
    <glyph glyph-name="Ibreve" unicode="&#x12c;" horiz-adv-x="286" 
d="M74 0v710h138v-710h-138zM142 841q23 0 40 21t20 53h71q0 -58 -36.5 -96t-94.5 -38q-57 0 -94 38t-37 96h72q0 -30 18 -52t41 -22z" />
    <glyph glyph-name="ibreve" unicode="&#x12d;" horiz-adv-x="255" 
d="M61 0v524h134v-524h-134zM127 656q23 0 40 21t20 53h71q0 -58 -36.5 -96t-94.5 -38q-57 0 -94 38t-37 96h72q0 -30 18 -52t41 -22z" />
    <glyph glyph-name="Iogonek" unicode="&#x12e;" horiz-adv-x="286" 
d="M74 0v710h138v-710h-138zM51 -110q0 34 25 68t77 63h42l16 -21q-37 -26 -56 -47.5t-19 -39.5t19.5 -27t55.5 -10l-27 -76q-50 5 -79.5 18.5t-41.5 32.5t-12 39z" />
    <glyph glyph-name="iogonek" unicode="&#x12f;" horiz-adv-x="255" 
d="M61 0v524h134v-524h-134zM61 597v133h134v-133h-134zM34 -110q0 34 25 68t77 63h42l16 -21q-37 -26 -56 -47.5t-19 -39.5t19.5 -27t55.5 -10l-27 -76q-50 5 -79.5 18.5t-41.5 32.5t-12 39z" />
    <glyph glyph-name="Idotaccent" unicode="&#x130;" horiz-adv-x="286" 
d="M74 0v710h138v-710h-138zM82 789v126h121v-126h-121z" />
    <glyph glyph-name="dotlessi" unicode="&#x131;" horiz-adv-x="255" 
d="M61 0v524h134v-524h-134z" />
    <glyph glyph-name="IJ" unicode="&#x132;" horiz-adv-x="777" 
d="M74 0v710h138v-710h-138zM324 145q13 -9 46 -21.5t78 -12.5q39 0 64 13.5t38.5 40.5t18 70t4.5 103v372h138v-361q0 -80 -9 -146t-35 -114t-78.5 -74t-139.5 -26q-48 0 -86 11t-70 33z" />
    <glyph glyph-name="ij" unicode="&#x133;" horiz-adv-x="516" 
d="M61 0v524h134v-524h-134zM61 597v133h134v-133h-134zM273 -196q-37 0 -71 11.5t-62 35.5l58 91q11 -12 27 -17t32 -5q18 0 32.5 8.5t23 23.5t8.5 34v538h134v-528q0 -56 -24.5 -100t-65 -68t-92.5 -24zM321 597v133h134v-133h-134z" />
    <glyph glyph-name="Jcircumflex" unicode="&#x134;" horiz-adv-x="491" 
d="M38 145q13 -9 46 -21.5t78 -12.5q39 0 64 13.5t38.5 40.5t18 70t4.5 103v372h138v-361q0 -80 -9 -146t-35 -114t-78.5 -74t-139.5 -26q-48 0 -86 11t-70 33zM203 814l106 101h97l106 -101l-69 -32l-85 63l-85 -63z" />
    <glyph glyph-name="jcircumflex" unicode="&#x135;" horiz-adv-x="255" 
d="M13 -196q-37 0 -71.5 11.5t-61.5 35.5l57 91q12 -12 28 -17t31 -5q18 0 32.5 8.5t23.5 23.5t9 34v538h134v-528q0 -56 -25 -100t-65.5 -68t-91.5 -24zM-27 629l106 101h97l106 -101l-69 -32l-85 63l-85 -63z" />
    <glyph glyph-name="uni0136" unicode="&#x136;" horiz-adv-x="669" 
d="M74 0v709h138v-337l298 338h152l-272 -315l289 -395h-156l-221 306l-90 -94v-212h-138zM305 -213l27 72h-39v94h113v-94l-40 -72h-61z" />
    <glyph glyph-name="uni0137" unicode="&#x137;" horiz-adv-x="558" 
d="M419 0l-153 226l-71 -70v-156h-134v730h134v-442l211 235h142l-195 -222l209 -301h-143zM241 -213l27 72h-39v94h113v-94l-40 -72h-61z" />
    <glyph glyph-name="kgreenlandic" unicode="&#x138;" horiz-adv-x="558" 
d="M419 0l-152 227l-72 -71v-156h-134v524h134v-237l210 236h143l-195 -222l209 -301h-143z" />
    <glyph glyph-name="Lacute" unicode="&#x139;" horiz-adv-x="584" 
d="M74 0v710h138v-589h362v-121h-500zM187 770l-86 26l54 119h125z" />
    <glyph glyph-name="lacute" unicode="&#x13a;" horiz-adv-x="317" 
d="M60 730h134v-562q0 -36 12 -48.5t33 -12.5q16 0 33 4t30 10l18 -102q-27 -13 -63 -20t-65 -7q-63 0 -97.5 33.5t-34.5 95.5v609zM171 771l-86 26l54 119h125z" />
    <glyph glyph-name="uni013B" unicode="&#x13b;" horiz-adv-x="584" 
d="M74 0v710h138v-589h362v-121h-500zM288 -213l27 72h-39v94h113v-94l-40 -72h-61z" />
    <glyph glyph-name="uni013C" unicode="&#x13c;" horiz-adv-x="317" 
d="M60 730h134v-562q0 -36 12 -48.5t33 -12.5q16 0 33 4t30 10l18 -102q-27 -13 -63 -20t-65 -7q-63 0 -97.5 33.5t-34.5 95.5v609zM142 -213l27 72h-39v94h113v-94l-40 -72h-61z" />
    <glyph glyph-name="Lcaron" unicode="&#x13d;" horiz-adv-x="584" 
d="M74 0v710h138v-589h362v-121h-500zM446 587l-86 26l54 119h125z" />
    <glyph glyph-name="lcaron" unicode="&#x13e;" horiz-adv-x="317" 
d="M60 730h134v-562q0 -36 12 -48.5t33 -12.5q16 0 33 4t30 10l18 -102q-27 -13 -63 -20t-65 -7q-63 0 -97.5 33.5t-34.5 95.5v609zM320 585l-86 26l54 119h125z" />
    <glyph glyph-name="Ldot" unicode="&#x13f;" horiz-adv-x="584" 
d="M74 0v710h138v-589h362v-121h-500zM365 331v151h110v-151h-110z" />
    <glyph glyph-name="ldot" unicode="&#x140;" horiz-adv-x="397" 
d="M60 730h134v-562q0 -36 12 -48.5t33 -12.5q16 0 33 4t30 10l18 -102q-27 -13 -63 -20t-65 -7q-63 0 -97.5 33.5t-34.5 95.5v609zM270 242v151h110v-151h-110z" />
    <glyph glyph-name="Lslash" unicode="&#x141;" horiz-adv-x="594" 
d="M31 242l-33 73l333 210l33 -73zM83 0v710h138v-589h362v-121h-500z" />
    <glyph glyph-name="lslash" unicode="&#x142;" horiz-adv-x="344" 
d="M33 269l-34 72l305 183l34 -72zM84 730h134v-562q0 -36 12.5 -48.5t32.5 -12.5q17 0 33.5 4t29.5 10l18 -102q-27 -13 -63 -20t-65 -7q-63 0 -97.5 33.5t-34.5 95.5v609z" />
    <glyph glyph-name="Nacute" unicode="&#x143;" horiz-adv-x="763" 
d="M212 456v-456h-138v710h110l367 -468v467h138v-709h-115zM426 770l-86 26l54 119h125z" />
    <glyph glyph-name="nacute" unicode="&#x144;" horiz-adv-x="604" 
d="M548 0h-134v294q0 63 -22 92t-61 29q-27 0 -54.5 -14t-49.5 -38.5t-32 -56.5v-306h-134v524h121v-97q20 34 51 57.5t71.5 36t85.5 12.5q49 0 80.5 -17.5t48 -47t23 -66.5t6.5 -75v-327zM361 585l-86 26l54 119h125z" />
    <glyph glyph-name="uni0145" unicode="&#x145;" horiz-adv-x="763" 
d="M212 456v-456h-138v710h110l367 -468v467h138v-709h-115zM333 -213l27 72h-39v94h113v-94l-40 -72h-61z" />
    <glyph glyph-name="uni0146" unicode="&#x146;" horiz-adv-x="604" 
d="M548 0h-134v294q0 63 -22 92t-61 29q-27 0 -54.5 -14t-49.5 -38.5t-32 -56.5v-306h-134v524h121v-97q20 34 51 57.5t71.5 36t85.5 12.5q49 0 80.5 -17.5t48 -47t23 -66.5t6.5 -75v-327zM254 -213l27 72h-39v94h113v-94l-40 -72h-61z" />
    <glyph glyph-name="Ncaron" unicode="&#x147;" horiz-adv-x="763" 
d="M212 456v-456h-138v710h110l367 -468v467h138v-709h-115zM297 915l85 -63l85 63l69 -32l-106 -101h-97l-106 101z" />
    <glyph glyph-name="ncaron" unicode="&#x148;" horiz-adv-x="604" 
d="M548 0h-134v294q0 63 -22 92t-61 29q-27 0 -54.5 -14t-49.5 -38.5t-32 -56.5v-306h-134v524h121v-97q20 34 51 57.5t71.5 36t85.5 12.5q49 0 80.5 -17.5t48 -47t23 -66.5t6.5 -75v-327zM232 730l85 -63l85 63l69 -32l-106 -101h-97l-106 101z" />
    <glyph glyph-name="napostrophe" unicode="&#x149;" horiz-adv-x="604" 
d="M548 0h-134v294q0 63 -22 92t-61 29q-27 0 -54.5 -14t-49.5 -38.5t-32 -56.5v-306h-134v524h121v-97q20 34 51 57.5t71.5 36t85.5 12.5q49 0 80.5 -17.5t48 -47t23 -66.5t6.5 -75v-327zM155 730l-93 -145l-86 26l35 73l-7 46h151z" />
    <glyph glyph-name="Eng" unicode="&#x14a;" horiz-adv-x="750" 
d="M212 451v-451h-138v710h106l358 -460v459h137v-718q0 -56 -24.5 -98t-66.5 -65.5t-91 -23.5q-37 0 -71.5 11.5t-61.5 35.5l58 91q11 -12 27 -17t31 -5q18 0 32.5 8.5t23.5 23.5t9 34v42z" />
    <glyph glyph-name="eng" unicode="&#x14b;" horiz-adv-x="604" 
d="M366 -196q-38 0 -72 11.5t-61 35.5l57 91q12 -12 28 -17t31 -5q18 0 32.5 8.5t23.5 23.5t9 34v308q0 63 -22 92t-61 29q-27 0 -54.5 -14t-49.5 -38.5t-32 -56.5v-306h-134v524h121v-97q20 34 51 57.5t71.5 36t85.5 12.5q49 0 80.5 -17.5t48 -47t22.5 -66.5t6 -75v-331
q0 -56 -24.5 -100t-65.5 -68t-91 -24z" />
    <glyph glyph-name="Omacron" unicode="&#x14c;" horiz-adv-x="756" 
d="M377 -5q-78 0 -141.5 30t-109 81.5t-70.5 116t-25 132.5q0 71 26.5 135.5t73 115t110 80t139.5 29.5q77 0 140.5 -31t108.5 -83t70 -116t25 -132q0 -70 -26 -134.5t-72.5 -115t-110 -79.5t-138.5 -29zM171 355q0 -46 14 -89t40.5 -76.5t65 -53t87.5 -19.5q50 0 89 20.5
t65 55t39.5 77t13.5 85.5q0 46 -14.5 88.5t-41 76t-65 53t-86.5 19.5q-51 0 -89.5 -20.5t-64.5 -54.5t-39.5 -76t-13.5 -86zM231 818v83h300v-83h-300z" />
    <glyph glyph-name="omacron" unicode="&#x14d;" horiz-adv-x="606" 
d="M303 -10q-64 0 -115 21.5t-86.5 59.5t-54.5 87t-19 103q0 55 19 104t54.5 87t86.5 59.5t115 21.5t114.5 -21.5t86.5 -59.5t54.5 -87t18.5 -104q0 -54 -18.5 -103t-54 -87t-86.5 -59.5t-115 -21.5zM166 261q0 -46 18 -81.5t49 -55.5t70 -20q38 0 69 20.5t49.5 56
t18.5 81.5q0 45 -18.5 81t-49.5 56t-69 20q-39 0 -70 -20.5t-49 -56t-18 -81.5zM154 633v83h300v-83h-300z" />
    <glyph glyph-name="Obreve" unicode="&#x14e;" horiz-adv-x="756" 
d="M377 -5q-78 0 -141.5 30t-109 81.5t-70.5 116t-25 132.5q0 71 26.5 135.5t73 115t110 80t139.5 29.5q77 0 140.5 -31t108.5 -83t70 -116t25 -132q0 -70 -26 -134.5t-72.5 -115t-110 -79.5t-138.5 -29zM171 355q0 -46 14 -89t40.5 -76.5t65 -53t87.5 -19.5q50 0 89 20.5
t65 55t39.5 77t13.5 85.5q0 46 -14.5 88.5t-41 76t-65 53t-86.5 19.5q-51 0 -89.5 -20.5t-64.5 -54.5t-39.5 -76t-13.5 -86zM379 841q23 0 40 21t20 53h71q0 -58 -36.5 -96t-94.5 -38q-57 0 -94 38t-37 96h72q0 -30 18 -52t41 -22z" />
    <glyph glyph-name="obreve" unicode="&#x14f;" horiz-adv-x="606" 
d="M303 -10q-64 0 -115 21.5t-86.5 59.5t-54.5 87t-19 103q0 55 19 104t54.5 87t86.5 59.5t115 21.5t114.5 -21.5t86.5 -59.5t54.5 -87t18.5 -104q0 -54 -18.5 -103t-54 -87t-86.5 -59.5t-115 -21.5zM166 261q0 -46 18 -81.5t49 -55.5t70 -20q38 0 69 20.5t49.5 56
t18.5 81.5q0 45 -18.5 81t-49.5 56t-69 20q-39 0 -70 -20.5t-49 -56t-18 -81.5zM302 656q23 0 40 21t20 53h71q0 -58 -36.5 -96t-94.5 -38q-57 0 -94 38t-37 96h72q0 -30 18 -52t41 -22z" />
    <glyph glyph-name="Ohungarumlaut" unicode="&#x150;" horiz-adv-x="756" 
d="M377 -5q-78 0 -141.5 30t-109 81.5t-70.5 116t-25 132.5q0 71 26.5 135.5t73 115t110 80t139.5 29.5q77 0 140.5 -31t108.5 -83t70 -116t25 -132q0 -70 -26 -134.5t-72.5 -115t-110 -79.5t-138.5 -29zM171 355q0 -46 14 -89t40.5 -76.5t65 -53t87.5 -19.5q50 0 89 20.5
t65 55t39.5 77t13.5 85.5q0 46 -14.5 88.5t-41 76t-65 53t-86.5 19.5q-51 0 -89.5 -20.5t-64.5 -54.5t-39.5 -76t-13.5 -86zM316 771l-66 26l48 119h104zM476 771l-65 26l47 119h105z" />
    <glyph glyph-name="ohungarumlaut" unicode="&#x151;" horiz-adv-x="606" 
d="M303 -10q-64 0 -115 21.5t-86.5 59.5t-54.5 87t-19 103q0 55 19 104t54.5 87t86.5 59.5t115 21.5t114.5 -21.5t86.5 -59.5t54.5 -87t18.5 -104q0 -54 -18.5 -103t-54 -87t-86.5 -59.5t-115 -21.5zM166 261q0 -46 18 -81.5t49 -55.5t70 -20q38 0 69 20.5t49.5 56
t18.5 81.5q0 45 -18.5 81t-49.5 56t-69 20q-39 0 -70 -20.5t-49 -56t-18 -81.5zM240 586l-66 26l48 119h104zM400 586l-65 26l47 119h105z" />
    <glyph glyph-name="OE" unicode="&#x152;" horiz-adv-x="1085" 
d="M1052 121v-121h-480v105q-22 -32 -53.5 -56.5t-69.5 -39t-81 -14.5q-75 0 -137 30t-107 81.5t-69 116t-24 132.5q0 71 25.5 135.5t71.5 115t107.5 80t134.5 29.5q44 0 81.5 -14.5t68 -39t52.5 -55.5v104h471v-121h-333v-167h279v-121h-279v-180h342zM369 117
q48 0 85 20.5t62 55t37.5 77t12.5 86.5q0 46 -13.5 88.5t-39 75.5t-62.5 53t-83 20q-47 0 -84 -20.5t-62 -55t-38 -76.5t-13 -86q0 -46 13 -89t39 -76t63 -53t83 -20z" />
    <glyph glyph-name="oe" unicode="&#x153;" horiz-adv-x="1011" 
d="M301 -10q-78 0 -140 35.5t-97.5 96.5t-35.5 139t35.5 139.5t97.5 97t140 35.5q45 0 83.5 -14t69.5 -41.5t54 -66.5q38 61 90 91.5t120 30.5q78 0 138.5 -34t95.5 -95.5t38 -141.5q0 -10 -1 -22.5t-2 -20.5h-404q3 -37 22.5 -67.5t51 -48.5t69.5 -18q42 0 77.5 21t48.5 53
l111 -32q-20 -41 -56.5 -72.5t-84 -48t-101.5 -16.5q-41 0 -78.5 13.5t-70.5 40t-63 64.5q-30 -39 -62.5 -65.5t-68 -39.5t-77.5 -13zM303 104q39 0 70 20.5t49 56t18 80.5q0 46 -18 81.5t-48.5 56t-70.5 20.5q-39 0 -70 -20.5t-49 -56.5t-18 -82q0 -45 17.5 -80t49 -55.5
t70.5 -20.5zM853 302q-3 40 -22.5 70t-49.5 47t-67 17t-66.5 -17t-47.5 -47t-21 -70h274z" />
    <glyph glyph-name="Racute" unicode="&#x154;" horiz-adv-x="665" 
d="M74 0v710h314q49 0 90.5 -20t72 -54t47 -76t16.5 -86q0 -45 -15.5 -86.5t-44.5 -72.5t-68 -48l162 -267h-152l-146 238h-138v-238h-138zM212 359h173q26 0 46 15.5t32 41.5t12 58q0 34 -14 59.5t-35.5 40.5t-46.5 15h-167v-230zM357 771l-86 26l54 119h125z" />
    <glyph glyph-name="racute" unicode="&#x155;" horiz-adv-x="387" 
d="M373 408q-61 0 -109 -23.5t-69 -67.5v-317h-134v524h123v-112q28 54 71 85t91 34h17t10 -1v-122zM260 585l-86 26l54 119h125z" />
    <glyph glyph-name="uni0156" unicode="&#x156;" horiz-adv-x="665" 
d="M74 0v710h314q49 0 90.5 -20t72 -54t47 -76t16.5 -86q0 -45 -15.5 -86.5t-44.5 -72.5t-68 -48l162 -267h-152l-146 238h-138v-238h-138zM212 359h173q26 0 46 15.5t32 41.5t12 58q0 34 -14 59.5t-35.5 40.5t-46.5 15h-167v-230zM294 -213l27 72h-39v94h113v-94l-40 -72
h-61z" />
    <glyph glyph-name="uni0157" unicode="&#x157;" horiz-adv-x="387" 
d="M373 408q-61 0 -109 -23.5t-69 -67.5v-317h-134v524h123v-112q28 54 71 85t91 34h17t10 -1v-122zM75 -213l27 72h-39v94h113v-94l-40 -72h-61z" />
    <glyph glyph-name="Rcaron" unicode="&#x158;" horiz-adv-x="665" 
d="M74 0v710h314q49 0 90.5 -20t72 -54t47 -76t16.5 -86q0 -45 -15.5 -86.5t-44.5 -72.5t-68 -48l162 -267h-152l-146 238h-138v-238h-138zM212 359h173q26 0 46 15.5t32 41.5t12 58q0 34 -14 59.5t-35.5 40.5t-46.5 15h-167v-230zM228 916l85 -63l85 63l69 -32l-106 -101
h-97l-106 101z" />
    <glyph glyph-name="rcaron" unicode="&#x159;" horiz-adv-x="387" 
d="M373 408q-61 0 -109 -23.5t-69 -67.5v-317h-134v524h123v-112q28 54 71 85t91 34h17t10 -1v-122zM131 730l85 -63l85 63l69 -32l-106 -101h-97l-106 101z" />
    <glyph glyph-name="Sacute" unicode="&#x15a;" horiz-adv-x="613" 
d="M497 524q-7 7 -25.5 19t-45 23t-57.5 19.5t-63 8.5q-56 0 -84.5 -21t-28.5 -59q0 -29 18 -46t54 -29t90 -26q70 -17 121.5 -41.5t79 -64t27.5 -104.5q0 -57 -21 -97.5t-58 -65.5t-84 -36.5t-100 -11.5t-106 11t-102 31.5t-90 49.5l61 119q9 -9 32 -23.5t56 -29t72 -24.5
t79 -10q56 0 85 19t29 54q0 32 -23 50t-64 31.5t-97 29.5q-67 19 -112 42.5t-67 59.5t-22 90q0 73 34.5 122.5t93.5 75t131 25.5q50 0 94.5 -11t83.5 -29t70 -39zM358 777l-86 26l54 119h125z" />
    <glyph glyph-name="sacute" unicode="&#x15b;" horiz-adv-x="494" 
d="M254 -10q-67 0 -128 22t-105 65l48 87q47 -38 92.5 -56t87.5 -18q39 0 62.5 14t23.5 42q0 19 -13 29.5t-37.5 18.5t-59.5 18q-58 19 -97 37t-58.5 45.5t-19.5 70.5q0 52 26.5 89.5t74 58.5t111.5 21q56 0 106 -17.5t91 -56.5l-54 -85q-40 31 -76 45.5t-73 14.5
q-21 0 -39.5 -5t-30 -16.5t-11.5 -32.5q0 -19 10.5 -29.5t32 -18.5t52.5 -18q63 -18 106.5 -37t65.5 -46.5t22 -75.5q0 -78 -57 -122t-153 -44zM299 585l-86 26l54 119h125z" />
    <glyph glyph-name="Scircumflex" unicode="&#x15c;" horiz-adv-x="613" 
d="M497 524q-7 7 -25.5 19t-45 23t-57.5 19.5t-63 8.5q-56 0 -84.5 -21t-28.5 -59q0 -29 18 -46t54 -29t90 -26q70 -17 121.5 -41.5t79 -64t27.5 -104.5q0 -57 -21 -97.5t-58 -65.5t-84 -36.5t-100 -11.5t-106 11t-102 31.5t-90 49.5l61 119q9 -9 32 -23.5t56 -29t72 -24.5
t79 -10q56 0 85 19t29 54q0 32 -23 50t-64 31.5t-97 29.5q-67 19 -112 42.5t-67 59.5t-22 90q0 73 34.5 122.5t93.5 75t131 25.5q50 0 94.5 -11t83.5 -29t70 -39zM159 821l106 101h97l106 -101l-69 -32l-85 63l-85 -63z" />
    <glyph glyph-name="scircumflex" unicode="&#x15d;" horiz-adv-x="494" 
d="M254 -10q-67 0 -128 22t-105 65l48 87q47 -38 92.5 -56t87.5 -18q39 0 62.5 14t23.5 42q0 19 -13 29.5t-37.5 18.5t-59.5 18q-58 19 -97 37t-58.5 45.5t-19.5 70.5q0 52 26.5 89.5t74 58.5t111.5 21q56 0 106 -17.5t91 -56.5l-54 -85q-40 31 -76 45.5t-73 14.5
q-21 0 -39.5 -5t-30 -16.5t-11.5 -32.5q0 -19 10.5 -29.5t32 -18.5t52.5 -18q63 -18 106.5 -37t65.5 -46.5t22 -75.5q0 -78 -57 -122t-153 -44zM100 629l106 101h97l106 -101l-69 -32l-85 63l-85 -63z" />
    <glyph glyph-name="Scedilla" unicode="&#x15e;" horiz-adv-x="613" 
d="M497 524q-7 7 -25.5 19t-45 23t-57.5 19.5t-63 8.5q-56 0 -84.5 -21t-28.5 -59q0 -29 18 -46t54 -29t90 -26q70 -17 121.5 -41.5t79 -64t27.5 -104.5q0 -57 -21 -97.5t-58 -65.5t-84 -36.5t-100 -11.5t-106 11t-102 31.5t-90 49.5l61 119q9 -9 32 -23.5t56 -29t72 -24.5
t79 -10q56 0 85 19t29 54q0 32 -23 50t-64 31.5t-97 29.5q-67 19 -112 42.5t-67 59.5t-22 90q0 73 34.5 122.5t93.5 75t131 25.5q50 0 94.5 -11t83.5 -29t70 -39zM307 -201q-27 0 -58 7.5t-62 22.5l34 71q15 -10 30.5 -15.5t32.5 -5.5q26 0 40.5 11.5t14.5 33.5
q0 21 -14.5 39.5t-41.5 36.5l45 29q40 -26 66 -56.5t26 -74.5q0 -42 -28.5 -70.5t-84.5 -28.5z" />
    <glyph glyph-name="scedilla" unicode="&#x15f;" horiz-adv-x="494" 
d="M254 -10q-67 0 -128 22t-105 65l48 87q47 -38 92.5 -56t87.5 -18q39 0 62.5 14t23.5 42q0 19 -13 29.5t-37.5 18.5t-59.5 18q-58 19 -97 37t-58.5 45.5t-19.5 70.5q0 52 26.5 89.5t74 58.5t111.5 21q56 0 106 -17.5t91 -56.5l-54 -85q-40 31 -76 45.5t-73 14.5
q-21 0 -39.5 -5t-30 -16.5t-11.5 -32.5q0 -19 10.5 -29.5t32 -18.5t52.5 -18q63 -18 106.5 -37t65.5 -46.5t22 -75.5q0 -78 -57 -122t-153 -44zM241 -201q-27 0 -58 7.5t-62 22.5l34 71q15 -10 30.5 -15.5t32.5 -5.5q26 0 40.5 11.5t14.5 33.5q0 21 -14.5 39.5t-41.5 36.5
l45 29q40 -26 66 -56.5t26 -74.5q0 -42 -28.5 -70.5t-84.5 -28.5z" />
    <glyph glyph-name="Scaron" unicode="&#x160;" horiz-adv-x="613" 
d="M497 524q-7 7 -25.5 19t-45 23t-57.5 19.5t-63 8.5q-56 0 -84.5 -21t-28.5 -59q0 -29 18 -46t54 -29t90 -26q70 -17 121.5 -41.5t79 -64t27.5 -104.5q0 -57 -21 -97.5t-58 -65.5t-84 -36.5t-100 -11.5t-106 11t-102 31.5t-90 49.5l61 119q9 -9 32 -23.5t56 -29t72 -24.5
t79 -10q56 0 85 19t29 54q0 32 -23 50t-64 31.5t-97 29.5q-67 19 -112 42.5t-67 59.5t-22 90q0 73 34.5 122.5t93.5 75t131 25.5q50 0 94.5 -11t83.5 -29t70 -39zM229 922l85 -63l85 63l69 -32l-106 -101h-97l-106 101z" />
    <glyph glyph-name="scaron" unicode="&#x161;" horiz-adv-x="494" 
d="M254 -10q-67 0 -128 22t-105 65l48 87q47 -38 92.5 -56t87.5 -18q39 0 62.5 14t23.5 42q0 19 -13 29.5t-37.5 18.5t-59.5 18q-58 19 -97 37t-58.5 45.5t-19.5 70.5q0 52 26.5 89.5t74 58.5t111.5 21q56 0 106 -17.5t91 -56.5l-54 -85q-40 31 -76 45.5t-73 14.5
q-21 0 -39.5 -5t-30 -16.5t-11.5 -32.5q0 -19 10.5 -29.5t32 -18.5t52.5 -18q63 -18 106.5 -37t65.5 -46.5t22 -75.5q0 -78 -57 -122t-153 -44zM170 730l85 -63l85 63l69 -32l-106 -101h-97l-106 101z" />
    <glyph glyph-name="uni0162" unicode="&#x162;" horiz-adv-x="619" 
d="M605 589h-227v-589h-137v589h-227v121h591v-121zM297 -201q-27 0 -58 7.5t-62 22.5l34 71q15 -10 30.5 -15.5t32.5 -5.5q26 0 40.5 11.5t14.5 33.5q0 21 -14.5 39.5t-41.5 36.5l45 29q40 -26 66 -56.5t26 -74.5q0 -42 -28.5 -70.5t-84.5 -28.5z" />
    <glyph glyph-name="uni0163" unicode="&#x163;" horiz-adv-x="384" 
d="M375 27q-17 -7 -41 -16t-51.5 -14.5t-55.5 -5.5q-37 0 -68 13t-49.5 41.5t-18.5 74.5v301h-69v103h69v170h134v-170h110v-103h-110v-256q1 -27 15 -39t35 -12t41 7t32 12zM212 -201q-27 0 -58 7.5t-62 22.5l34 71q15 -10 30.5 -15.5t32.5 -5.5q26 0 40.5 11.5t14.5 33.5
q0 21 -14.5 39.5t-41.5 36.5l45 29q40 -26 66 -56.5t26 -74.5q0 -42 -28.5 -70.5t-84.5 -28.5z" />
    <glyph glyph-name="Tcaron" unicode="&#x164;" horiz-adv-x="619" 
d="M605 589h-227v-589h-137v589h-227v121h591v-121zM230 915l85 -63l85 63l69 -32l-106 -101h-97l-106 101z" />
    <glyph glyph-name="tcaron" unicode="&#x165;" horiz-adv-x="384" 
d="M375 27q-17 -7 -41 -16t-51.5 -14.5t-55.5 -5.5q-37 0 -68 13t-49.5 41.5t-18.5 74.5v301h-69v103h69v170h134v-170h110v-103h-110v-256q1 -27 15 -39t35 -12t41 7t32 12zM358 585l-86 26l54 119h125z" />
    <glyph glyph-name="Tbar" unicode="&#x166;" horiz-adv-x="644" 
d="M73 291v75h498v-75h-498zM617 589h-226v-589h-138v589h-227v121h591v-121z" />
    <glyph glyph-name="tbar" unicode="&#x167;" horiz-adv-x="385" 
d="M32 252v80h293v-80h-293zM376 27q-17 -7 -41 -16t-51.5 -14.5t-55.5 -5.5q-37 0 -68 13t-49.5 41.5t-18.5 74.5v301h-69v103h69v170h134v-170h110v-103h-110v-256q1 -27 15 -39t35 -12t41 7t32 12z" />
    <glyph glyph-name="Utilde" unicode="&#x168;" horiz-adv-x="750" 
d="M375 -5q-85 0 -144.5 28.5t-96 78.5t-53.5 113.5t-17 132.5v362h138v-362q0 -44 8.5 -85.5t28.5 -74.5t53 -52t82 -19q50 0 83.5 19.5t53 52.5t28.5 74.5t9 84.5v362h137v-362q0 -73 -17.5 -137t-55 -112.5t-96.5 -76t-141 -27.5zM440 787q-30 0 -51.5 11.5t-39.5 22.5
t-40 11t-32.5 -11.5t-13 -23.5t-2.5 -13h-74q0 9 6 30t19.5 43.5t36 38.5t55.5 16q31 0 51 -12t38.5 -23.5t42.5 -11.5t35 12t14.5 24t3.5 14h74q0 -7 -6 -27t-20.5 -43.5t-38 -40.5t-58.5 -17z" />
    <glyph glyph-name="utilde" unicode="&#x169;" horiz-adv-x="618" 
d="M56 196v328h134v-299q0 -60 22 -90.5t65 -30.5q26 0 51.5 10.5t47 31.5t36.5 53v325h134v-374q0 -21 7.5 -30t24.5 -11v-109q-20 -3 -33.5 -4.5t-24.5 -1.5q-36 0 -58.5 16.5t-26.5 45.5l-3 42q-35 -53 -90 -80.5t-121 -27.5q-81 0 -123 52.5t-42 153.5zM365 602
q-30 0 -51.5 11.5t-39.5 22.5t-40 11t-32.5 -11.5t-13 -23.5t-2.5 -13h-74q0 9 6 30t19.5 43.5t36 38.5t55.5 16q31 0 51 -12t38.5 -23.5t42.5 -11.5t35 12t14.5 24t3.5 14h74q0 -7 -6 -27t-20.5 -43.5t-38 -40.5t-58.5 -17z" />
    <glyph glyph-name="Umacron" unicode="&#x16a;" horiz-adv-x="750" 
d="M375 -5q-85 0 -144.5 28.5t-96 78.5t-53.5 113.5t-17 132.5v362h138v-362q0 -44 8.5 -85.5t28.5 -74.5t53 -52t82 -19q50 0 83.5 19.5t53 52.5t28.5 74.5t9 84.5v362h137v-362q0 -73 -17.5 -137t-55 -112.5t-96.5 -76t-141 -27.5zM226 818v83h300v-83h-300z" />
    <glyph glyph-name="umacron" unicode="&#x16b;" horiz-adv-x="618" 
d="M56 196v328h134v-299q0 -60 22 -90.5t65 -30.5q26 0 51.5 10.5t47 31.5t36.5 53v325h134v-374q0 -21 7.5 -30t24.5 -11v-109q-20 -3 -33.5 -4.5t-24.5 -1.5q-36 0 -58.5 16.5t-26.5 45.5l-3 42q-35 -53 -90 -80.5t-121 -27.5q-81 0 -123 52.5t-42 153.5zM152 633v83h300
v-83h-300z" />
    <glyph glyph-name="Ubreve" unicode="&#x16c;" horiz-adv-x="750" 
d="M375 -5q-85 0 -144.5 28.5t-96 78.5t-53.5 113.5t-17 132.5v362h138v-362q0 -44 8.5 -85.5t28.5 -74.5t53 -52t82 -19q50 0 83.5 19.5t53 52.5t28.5 74.5t9 84.5v362h137v-362q0 -73 -17.5 -137t-55 -112.5t-96.5 -76t-141 -27.5zM375 841q23 0 40 21t20 53h71
q0 -58 -36.5 -96t-94.5 -38q-57 0 -94 38t-37 96h72q0 -30 18 -52t41 -22z" />
    <glyph glyph-name="ubreve" unicode="&#x16d;" horiz-adv-x="618" 
d="M56 196v328h134v-299q0 -60 22 -90.5t65 -30.5q26 0 51.5 10.5t47 31.5t36.5 53v325h134v-374q0 -21 7.5 -30t24.5 -11v-109q-20 -3 -33.5 -4.5t-24.5 -1.5q-36 0 -58.5 16.5t-26.5 45.5l-3 42q-35 -53 -90 -80.5t-121 -27.5q-81 0 -123 52.5t-42 153.5zM300 656
q23 0 40 21t20 53h71q0 -58 -36.5 -96t-94.5 -38q-57 0 -94 38t-37 96h72q0 -30 18 -52t41 -22z" />
    <glyph glyph-name="Uring" unicode="&#x16e;" horiz-adv-x="750" 
d="M375 -5q-85 0 -144.5 28.5t-96 78.5t-53.5 113.5t-17 132.5v362h138v-362q0 -44 8.5 -85.5t28.5 -74.5t53 -52t82 -19q50 0 83.5 19.5t53 52.5t28.5 74.5t9 84.5v362h137v-362q0 -73 -17.5 -137t-55 -112.5t-96.5 -76t-141 -27.5zM270 840q0 42 29.5 66.5t75.5 24.5
q47 0 76 -24.5t29 -66.5q0 -41 -29 -65.5t-76 -24.5q-46 0 -75.5 24.5t-29.5 65.5zM375 884q-18 0 -31 -12.5t-13 -30.5t12.5 -31t31.5 -13q18 0 31 12.5t13 31.5q0 18 -13 30.5t-31 12.5z" />
    <glyph glyph-name="uring" unicode="&#x16f;" horiz-adv-x="618" 
d="M56 196v328h134v-299q0 -60 22 -90.5t65 -30.5q26 0 51.5 10.5t47 31.5t36.5 53v325h134v-374q0 -21 7.5 -30t24.5 -11v-109q-20 -3 -33.5 -4.5t-24.5 -1.5q-36 0 -58.5 16.5t-26.5 45.5l-3 42q-35 -53 -90 -80.5t-121 -27.5q-81 0 -123 52.5t-42 153.5zM195 655
q0 42 29.5 66.5t75.5 24.5q47 0 76 -24.5t29 -66.5q0 -41 -29 -65.5t-76 -24.5q-46 0 -75.5 24.5t-29.5 65.5zM300 699q-18 0 -31 -12.5t-13 -30.5t12.5 -31t31.5 -13q18 0 31 12.5t13 31.5q0 18 -13 30.5t-31 12.5z" />
    <glyph glyph-name="Uhungarumlaut" unicode="&#x170;" horiz-adv-x="750" 
d="M375 -5q-85 0 -144.5 28.5t-96 78.5t-53.5 113.5t-17 132.5v362h138v-362q0 -44 8.5 -85.5t28.5 -74.5t53 -52t82 -19q50 0 83.5 19.5t53 52.5t28.5 74.5t9 84.5v362h137v-362q0 -73 -17.5 -137t-55 -112.5t-96.5 -76t-141 -27.5zM312 771l-66 26l48 119h104zM472 771
l-65 26l47 119h105z" />
    <glyph glyph-name="uhungarumlaut" unicode="&#x171;" horiz-adv-x="618" 
d="M56 196v328h134v-299q0 -60 22 -90.5t65 -30.5q26 0 51.5 10.5t47 31.5t36.5 53v325h134v-374q0 -21 7.5 -30t24.5 -11v-109q-20 -3 -33.5 -4.5t-24.5 -1.5q-36 0 -58.5 16.5t-26.5 45.5l-3 42q-35 -53 -90 -80.5t-121 -27.5q-81 0 -123 52.5t-42 153.5zM237 586l-66 26
l48 119h104zM397 586l-65 26l47 119h105z" />
    <glyph glyph-name="Uogonek" unicode="&#x172;" horiz-adv-x="750" 
d="M375 -5q-85 0 -144.5 28.5t-96 78.5t-53.5 113.5t-17 132.5v362h138v-362q0 -44 8.5 -85.5t28.5 -74.5t53 -52t82 -19q50 0 83.5 19.5t53 52.5t28.5 74.5t9 84.5v362h137v-362q0 -73 -17.5 -137t-55 -112.5t-96.5 -76t-141 -27.5zM292 -107q0 34 25 68t77 63h42l16 -21
q-37 -26 -56 -47.5t-19 -39.5t19.5 -27t55.5 -10l-27 -76q-50 5 -79.5 18.5t-41.5 32.5t-12 39z" />
    <glyph glyph-name="uogonek" unicode="&#x173;" horiz-adv-x="618" 
d="M56 196v328h134v-299q0 -60 22 -90.5t65 -30.5q26 0 51.5 10.5t47 31.5t36.5 53v325h134v-374q0 -21 7.5 -30t24.5 -11v-109q-20 -3 -33.5 -4.5t-24.5 -1.5q-36 0 -58.5 16.5t-26.5 45.5l-3 42q-35 -53 -90 -80.5t-121 -27.5q-81 0 -123 52.5t-42 153.5zM417 -110
q0 34 25 68t77 63h42l16 -21q-37 -26 -56 -47.5t-19 -39.5t19.5 -27t55.5 -10l-27 -76q-50 5 -79.5 18.5t-41.5 32.5t-12 39z" />
    <glyph glyph-name="Wcircumflex" unicode="&#x174;" horiz-adv-x="1053" 
d="M317 708h128l81 -235l82 235h127l-122 -323l90 -226l201 551h150l-284 -710h-119l-125 298l-124 -298h-119l-283 710h148l202 -551l88 226zM371 814l106 101h97l106 -101l-69 -32l-85 63l-85 -63z" />
    <glyph glyph-name="wcircumflex" unicode="&#x175;" horiz-adv-x="839" 
d="M711 524h127l-219 -524h-112l-88 225l-86 -225h-113l-218 524h126l156 -396l61 171l-91 224h111l54 -160l55 160h111l-91 -224l62 -171zM265 629l106 101h97l106 -101l-69 -32l-85 63l-85 -63z" />
    <glyph glyph-name="Ycircumflex" unicode="&#x176;" horiz-adv-x="660" 
d="M154 710l175 -334l178 334h149l-258 -462v-248h-137v250l-257 460h150zM175 814l106 101h97l106 -101l-69 -32l-85 63l-85 -63z" />
    <glyph glyph-name="ycircumflex" unicode="&#x177;" horiz-adv-x="550" 
d="M72 -102q18 -4 33.5 -7t26.5 -3q19 0 31.5 9.5t24.5 34t25 68.5l-207 524h139l141 -387l124 387h128l-220 -628q-12 -35 -36.5 -63.5t-61 -45t-81.5 -16.5q-16 0 -32 2.5t-35 8.5v116zM132 629l106 101h97l106 -101l-69 -32l-85 63l-85 -63z" />
    <glyph glyph-name="Ydieresis" unicode="&#x178;" horiz-adv-x="660" 
d="M154 710l175 -334l178 334h149l-258 -462v-248h-137v250l-257 460h150zM178 790v119h111v-119h-111zM370 790v119h111v-119h-111z" />
    <glyph glyph-name="Zacute" unicode="&#x179;" horiz-adv-x="627" 
d="M30 104l396 485h-385v121h549v-104l-383 -485h386v-121h-563v104zM371 770l-86 26l54 119h125z" />
    <glyph glyph-name="zacute" unicode="&#x17a;" horiz-adv-x="493" 
d="M26 82l289 348h-277v94h421v-82l-287 -348h292v-94h-438v82zM294 585l-86 26l54 119h125z" />
    <glyph glyph-name="Zdotaccent" unicode="&#x17b;" horiz-adv-x="627" 
d="M30 104l396 485h-385v121h549v-104l-383 -485h386v-121h-563v104zM266 789v126h121v-126h-121z" />
    <glyph glyph-name="zdotaccent" unicode="&#x17c;" horiz-adv-x="493" 
d="M26 82l289 348h-277v94h421v-82l-287 -348h292v-94h-438v82zM189 604v126h121v-126h-121z" />
    <glyph glyph-name="Zcaron" unicode="&#x17d;" horiz-adv-x="627" 
d="M30 104l396 485h-385v121h549v-104l-383 -485h386v-121h-563v104zM242 915l85 -63l85 63l69 -32l-106 -101h-97l-106 101z" />
    <glyph glyph-name="zcaron" unicode="&#x17e;" horiz-adv-x="493" 
d="M26 82l289 348h-277v94h421v-82l-287 -348h292v-94h-438v82zM165 730l85 -63l85 63l69 -32l-106 -101h-97l-106 101z" />
    <glyph glyph-name="uni018F" unicode="&#x18f;" horiz-adv-x="746" 
d="M369 -5q-79 0 -142.5 29.5t-110 79.5t-71.5 112.5t-25 127.5q0 16 1.5 31.5t3.5 25.5h539q-4 43 -21.5 78.5t-44.5 60.5t-60.5 38.5t-70.5 13.5q-38 0 -72.5 -13.5t-60 -38t-35.5 -57.5l-139 47q27 56 73 97t107 64.5t131 23.5q77 0 139.5 -30t108.5 -80.5t70.5 -114
t24.5 -131.5q0 -72 -24.5 -137.5t-70 -116t-108.5 -80.5t-142 -30zM371 116q52 0 93.5 22.5t67.5 62.5t30 92h-391q5 -51 32.5 -91t71 -63t96.5 -23z" />
    <glyph glyph-name="florin" unicode="&#x192;" horiz-adv-x="548" 
d="M162 -196q-37 0 -71.5 11.5t-61.5 35.5l58 91q11 -12 27 -17t32 -5q18 0 32 8.5t23 23.5t9 34v374h-68v103h68v65q0 65 21.5 112.5t61 73.5t92.5 26q32 0 65 -8t64 -23l-27 -101q-15 8 -35.5 13.5t-37.5 5.5q-34 0 -52 -24t-18 -70v-70h128v-103h-128v-371q0 -54 -25 -96
t-66 -65.5t-91 -23.5z" />
    <glyph glyph-name="Ohorn" unicode="&#x1a0;" horiz-adv-x="756" 
d="M377 -5q-78 0 -141.5 30t-109 81.5t-70.5 116t-25 132.5q0 71 26.5 135.5t73 115t110 80t139.5 29.5q77 0 140.5 -31t108.5 -83t70 -116t25 -132q0 -70 -26 -134.5t-72.5 -115t-110 -79.5t-138.5 -29zM171 355q0 -46 14 -89t40.5 -76.5t65 -53t87.5 -19.5q50 0 89 20.5
t65 55t39.5 77t13.5 85.5q0 46 -14.5 88.5t-41 76t-65 53t-86.5 19.5q-51 0 -89.5 -20.5t-64.5 -54.5t-39.5 -76t-13.5 -86zM435 617l2 92q35 0 56 5.5t33 17.5q11 14 13.5 30.5t3.5 35.5h97q0 -22 -3 -45t-12 -44.5t-27 -41.5q-15 -15 -40.5 -26.5t-57 -17.5t-65.5 -6z" />
    <glyph glyph-name="ohorn" unicode="&#x1a1;" horiz-adv-x="606" 
d="M303 -10q-64 0 -115 21.5t-86.5 59.5t-54.5 87t-19 103q0 55 19 104t54.5 87t86.5 59.5t115 21.5t114.5 -21.5t86.5 -59.5t54.5 -87t18.5 -104q0 -54 -18.5 -103t-54 -87t-86.5 -59.5t-115 -21.5zM166 261q0 -46 18 -81.5t49 -55.5t70 -20q38 0 69 20.5t49.5 56
t18.5 81.5q0 45 -18.5 81t-49.5 56t-69 20q-39 0 -70 -20.5t-49 -56t-18 -81.5zM360 431l2 92q35 0 56 5.5t33 17.5q11 14 13.5 30.5t3.5 35.5h97q0 -22 -3 -45t-12 -44.5t-27 -41.5q-15 -15 -40.5 -26.5t-57 -17.5t-65.5 -6z" />
    <glyph glyph-name="Uhorn" unicode="&#x1af;" horiz-adv-x="750" 
d="M375 -5q-85 0 -144.5 28.5t-96 78.5t-53.5 113.5t-17 132.5v362h138v-362q0 -44 8.5 -85.5t28.5 -74.5t53 -52t82 -19q50 0 83.5 19.5t53 52.5t28.5 74.5t9 84.5v362h137v-362q0 -73 -17.5 -137t-55 -112.5t-96.5 -76t-141 -27.5zM599 618l2 92q35 0 56 5.5t33 17.5
q11 14 13.5 30.5t3.5 35.5h97q0 -22 -3 -45t-12 -44.5t-27 -41.5q-15 -15 -40.5 -26.5t-57 -17.5t-65.5 -6z" />
    <glyph glyph-name="uhorn" unicode="&#x1b0;" horiz-adv-x="618" 
d="M56 196v328h134v-299q0 -60 22 -90.5t65 -30.5q26 0 51.5 10.5t47 31.5t36.5 53v325h134v-374q0 -21 7.5 -30t24.5 -11v-109q-20 -3 -33.5 -4.5t-24.5 -1.5q-36 0 -58.5 16.5t-26.5 45.5l-3 42q-35 -53 -90 -80.5t-121 -27.5q-81 0 -123 52.5t-42 153.5zM471 431l2 92
q35 0 56 5.5t33 17.5q11 14 13.5 30.5t3.5 35.5h97q0 -22 -3 -45t-12 -44.5t-27 -41.5q-15 -15 -40.5 -26.5t-57 -17.5t-65.5 -6z" />
    <glyph glyph-name="uni01C4" unicode="&#x1c4;" horiz-adv-x="1343" 
d="M746 104l396 485h-385v121h549v-104l-383 -485h386v-121h-563v104zM74 0v710h258q116 0 194 -47.5t117 -128t39 -178.5q0 -108 -43 -188t-121.5 -124t-185.5 -44h-258zM543 356q0 69 -25 121.5t-72 82t-114 29.5h-120v-468h120q68 0 115 30.5t71.5 84t24.5 120.5z
M957 915l85 -63l85 63l70 -32l-107 -101h-96l-107 101z" />
    <glyph glyph-name="uni01C5" unicode="&#x1c5;" horiz-adv-x="1209" 
d="M74 0v710h258q116 0 194 -47.5t117 -128t39 -178.5q0 -108 -43 -188t-121.5 -124t-185.5 -44h-258zM543 356q0 69 -25 121.5t-72 82t-114 29.5h-120v-468h120q68 0 115 30.5t71.5 84t24.5 120.5zM742 82l289 348h-277v94h421v-82l-287 -348h292v-94h-438v82zM880 730
l85 -63l85 63l70 -32l-107 -101h-96l-107 101z" />
    <glyph glyph-name="uni01C6" unicode="&#x1c6;" horiz-adv-x="1139" 
d="M29 262q0 76 30 137.5t83 97.5t121 36q58 0 104.5 -28.5t72.5 -72.5v298h134v-580q0 -21 7 -30t24 -11v-109q-35 -7 -57 -7q-36 0 -59.5 18t-26.5 47l-2 33q-29 -49 -78.5 -75t-103.5 -26t-99.5 21t-79 58t-52 86.5t-18.5 106.5zM440 192v125q-10 29 -32 52t-49 36.5
t-54 13.5q-31 0 -56 -13t-43.5 -35t-28 -51t-9.5 -61t10.5 -60.5t30.5 -49.5t46.5 -33t57.5 -12q19 0 38.5 6.5t37 18t31 28t20.5 35.5zM672 82l288 348h-277v94h421v-82l-287 -348h292v-94h-437v82zM809 730l85 -63l85 63l70 -32l-106 -101h-97l-106 101z" />
    <glyph glyph-name="uni01C7" unicode="&#x1c7;" horiz-adv-x="1075" 
d="M74 0v710h138v-589h362v-121h-500zM622 145q13 -9 46 -21.5t78 -12.5q39 0 64 13.5t38.5 40.5t18 70t4.5 103v372h138v-361q0 -80 -9 -146t-35 -114t-78.5 -74t-139.5 -26q-48 0 -86 11t-70 33z" />
    <glyph glyph-name="uni01C8" unicode="&#x1c8;" horiz-adv-x="845" 
d="M74 0v710h138v-589h362v-121h-500zM602 -196q-37 0 -71 11.5t-62 35.5l58 91q11 -12 27 -17t32 -5q18 0 32.5 8.5t23 23.5t8.5 34v538h134v-528q0 -56 -24.5 -100t-65 -68t-92.5 -24zM650 597v133h134v-133h-134z" />
    <glyph glyph-name="uni01C9" unicode="&#x1c9;" horiz-adv-x="578" 
d="M60 730h134v-562q0 -36 12 -48.5t33 -12.5q16 0 33 4t30 10l18 -102q-27 -13 -63 -20t-65 -7q-63 0 -97.5 33.5t-34.5 95.5v609zM335 -196q-37 0 -71 11.5t-62 35.5l58 91q11 -12 27 -17t32 -5q18 0 32.5 8.5t23 23.5t8.5 34v538h134v-528q0 -56 -24.5 -100t-65 -68
t-92.5 -24zM383 597v133h134v-133h-134z" />
    <glyph glyph-name="uni01CA" unicode="&#x1ca;" horiz-adv-x="1254" 
d="M212 456v-456h-138v710h110l367 -468v467h138v-709h-115zM801 145q13 -9 46 -21.5t78 -12.5q39 0 64 13.5t38.5 40.5t18 70t4.5 103v372h138v-361q0 -80 -9 -146t-35 -114t-78.5 -74t-139.5 -26q-48 0 -86 11t-70 33z" />
    <glyph glyph-name="uni01CB" unicode="&#x1cb;" horiz-adv-x="1024" 
d="M212 456v-456h-138v710h110l367 -468v467h138v-709h-115zM781 -196q-37 0 -71 11.5t-62 35.5l58 91q11 -12 27 -17t32 -5q18 0 32.5 8.5t23 23.5t8.5 34v538h134v-528q0 -56 -24.5 -100t-65 -68t-92.5 -24zM829 597v133h134v-133h-134z" />
    <glyph glyph-name="uni01CC" unicode="&#x1cc;" horiz-adv-x="865" 
d="M548 0h-134v294q0 63 -22 92t-61 29q-27 0 -54.5 -14t-49.5 -38.5t-32 -56.5v-306h-134v524h121v-97q20 34 51 57.5t71.5 36t85.5 12.5q49 0 80.5 -17.5t48 -47t23 -66.5t6.5 -75v-327zM622 -196q-37 0 -71 11.5t-62 35.5l58 91q11 -12 27 -17t32 -5q18 0 32.5 8.5
t23 23.5t8.5 34v538h134v-528q0 -56 -24.5 -100t-65 -68t-92.5 -24zM670 597v133h134v-133h-134z" />
    <glyph glyph-name="Gcaron" unicode="&#x1e6;" horiz-adv-x="725" 
d="M369 -5q-69 0 -130.5 28t-108 77.5t-72.5 115.5t-26 143q0 73 26 137.5t73 113.5t110 77t137 28q100 0 171.5 -42.5t107.5 -112.5l-103 -76q-27 53 -75.5 81t-105.5 28q-45 0 -82 -19t-64 -52t-41.5 -76t-14.5 -91q0 -51 15.5 -94t44 -75t66.5 -50.5t84 -18.5
q54 0 103.5 28t92.5 82v-136q-89 -96 -208 -96zM567 264h-143v101h257v-365h-114v264zM293 915l85 -63l85 63l69 -32l-106 -101h-97l-106 101z" />
    <glyph glyph-name="gcaron" unicode="&#x1e7;" horiz-adv-x="634" 
d="M266 -3q-52 0 -95.5 20.5t-75 57.5t-48.5 85t-17 102q0 57 18 106t50.5 86.5t77 58t98.5 20.5q61 0 107 -27.5t76 -73.5v92h117v-499q0 -78 -37.5 -133.5t-103.5 -85t-150 -29.5q-85 0 -144 28.5t-101 80.5l73 71q30 -37 75.5 -58t96.5 -21q43 0 78.5 15.5t57 48
t21.5 83.5v66q-26 -45 -73.5 -69.5t-100.5 -24.5zM311 104q22 0 42 7t37 19t30 28.5t20 33.5v125q-12 31 -33.5 54t-48 35.5t-55.5 12.5q-31 0 -56 -13t-43 -36.5t-27.5 -52t-9.5 -59.5q0 -32 11 -60t30.5 -49t46 -33t56.5 -12zM228 730l85 -63l85 63l69 -32l-106 -101h-97
l-106 101z" />
    <glyph glyph-name="uni01EA" unicode="&#x1ea;" horiz-adv-x="756" 
d="M377 -5q-78 0 -141.5 30t-109 81.5t-70.5 116t-25 132.5q0 71 26.5 135.5t73 115t110 80t139.5 29.5q77 0 140.5 -31t108.5 -83t70 -116t25 -132q0 -70 -26 -134.5t-72.5 -115t-110 -79.5t-138.5 -29zM171 355q0 -46 14 -89t40.5 -76.5t65 -53t87.5 -19.5q50 0 89 20.5
t65 55t39.5 77t13.5 85.5q0 46 -14.5 88.5t-41 76t-65 53t-86.5 19.5q-51 0 -89.5 -20.5t-64.5 -54.5t-39.5 -76t-13.5 -86zM300 -104q0 34 25 68t77 63h42l16 -21q-37 -26 -56 -47.5t-19 -39.5t19.5 -27t55.5 -10l-27 -76q-50 5 -79.5 18.5t-41.5 32.5t-12 39z" />
    <glyph glyph-name="uni01EB" unicode="&#x1eb;" horiz-adv-x="606" 
d="M303 -10q-64 0 -115 21.5t-86.5 59.5t-54.5 87t-19 103q0 55 19 104t54.5 87t86.5 59.5t115 21.5t114.5 -21.5t86.5 -59.5t54.5 -87t18.5 -104q0 -54 -18.5 -103t-54 -87t-86.5 -59.5t-115 -21.5zM166 261q0 -46 18 -81.5t49 -55.5t70 -20q38 0 69 20.5t49.5 56
t18.5 81.5q0 45 -18.5 81t-49.5 56t-69 20q-39 0 -70 -20.5t-49 -56t-18 -81.5zM220 -110q0 34 25 68t77 63h42l16 -21q-37 -26 -56 -47.5t-19 -39.5t19.5 -27t55.5 -10l-27 -76q-50 5 -79.5 18.5t-41.5 32.5t-12 39z" />
    <glyph glyph-name="uni01F1" unicode="&#x1f1;" horiz-adv-x="1332" 
d="M74 0v710h258q116 0 194 -47.5t117 -128t39 -178.5q0 -108 -43 -188t-121.5 -124t-185.5 -44h-258zM543 356q0 69 -25 121.5t-72 82t-114 29.5h-120v-468h120q68 0 115 30.5t71.5 84t24.5 120.5zM735 104l396 485h-385v121h549v-104l-383 -485h386v-121h-563v104z" />
    <glyph glyph-name="uni01F2" unicode="&#x1f2;" horiz-adv-x="1207" 
d="M74 0v710h258q116 0 194 -47.5t117 -128t39 -178.5q0 -108 -43 -188t-121.5 -124t-185.5 -44h-258zM543 356q0 69 -25 121.5t-72 82t-114 29.5h-120v-468h120q68 0 115 30.5t71.5 84t24.5 120.5zM739 82l289 348h-277v94h421v-82l-287 -348h292v-94h-438v82z" />
    <glyph glyph-name="uni01F3" unicode="&#x1f3;" horiz-adv-x="1139" 
d="M29 262q0 76 30 137.5t83 97.5t121 36q58 0 104.5 -28.5t72.5 -72.5v298h134v-580q0 -21 7 -30t24 -11v-109q-35 -7 -57 -7q-36 0 -59.5 18t-26.5 47l-2 33q-29 -49 -78.5 -75t-103.5 -26t-99.5 21t-79 58t-52 86.5t-18.5 106.5zM440 192v125q-10 29 -32 52t-49 36.5
t-54 13.5q-31 0 -56 -13t-43.5 -35t-28 -51t-9.5 -61t10.5 -60.5t30.5 -49.5t46.5 -33t57.5 -12q19 0 38.5 6.5t37 18t31 28t20.5 35.5zM671 82l289 348h-277v94h421v-82l-287 -348h292v-94h-438v82z" />
    <glyph glyph-name="Gacute" unicode="&#x1f4;" horiz-adv-x="725" 
d="M369 -5q-69 0 -130.5 28t-108 77.5t-72.5 115.5t-26 143q0 73 26 137.5t73 113.5t110 77t137 28q100 0 171.5 -42.5t107.5 -112.5l-103 -76q-27 53 -75.5 81t-105.5 28q-45 0 -82 -19t-64 -52t-41.5 -76t-14.5 -91q0 -51 15.5 -94t44 -75t66.5 -50.5t84 -18.5
q54 0 103.5 28t92.5 82v-136q-89 -96 -208 -96zM567 264h-143v101h257v-365h-114v264zM417 770l-86 26l54 119h125z" />
    <glyph glyph-name="gacute" unicode="&#x1f5;" horiz-adv-x="634" 
d="M265 -3q-52 0 -95.5 20.5t-75 57.5t-48.5 85t-17 102q0 57 18 106t50.5 86.5t77 58t98.5 20.5q61 0 107 -27.5t76 -73.5v92h117v-499q0 -78 -37.5 -133.5t-103.5 -85t-150 -29.5q-85 0 -144 28.5t-101 80.5l73 71q30 -37 75.5 -58t96.5 -21q43 0 78.5 15.5t57 48
t21.5 83.5v66q-26 -45 -73.5 -69.5t-100.5 -24.5zM310 104q22 0 42 7t37 19t30 28.5t20 33.5v125q-12 31 -33.5 54t-48 35.5t-55.5 12.5q-31 0 -56 -13t-43 -36.5t-27.5 -52t-9.5 -59.5q0 -32 11 -60t30.5 -49t46 -33t56.5 -12zM349 585l-86 26l54 119h125z" />
    <glyph glyph-name="Aringacute" unicode="&#x1fa;" horiz-adv-x="672" 
d="M370 803l-86 23l54 108h125zM267 710h140l261 -710h-142l-66 177h-248l-65 -177h-142zM435 274l-98 293l-102 -293h200zM232 761q0 42 29 66.5t76 24.5t76 -24.5t29 -66.5q0 -40 -29 -64.5t-76 -24.5t-76 24.5t-29 64.5zM337 805q-18 0 -31 -12t-13 -31q0 -18 12.5 -31
t31.5 -13q18 0 31 13t13 31q0 19 -13 31t-31 12z" />
    <glyph glyph-name="aringacute" unicode="&#x1fb;" horiz-adv-x="574" 
d="M25 155q0 51 28.5 89.5t79.5 59.5t117 21q33 0 67 -5t59 -16v28q0 50 -29.5 77t-87.5 27q-43 0 -82 -15t-82 -44l-43 88q52 34 106.5 51t114.5 17q112 0 174.5 -56t62.5 -160v-167q0 -21 7.5 -30t24.5 -11v-109q-18 -3 -32.5 -5t-24.5 -2q-40 0 -60.5 18t-25.5 44l-3 27
q-34 -44 -85 -68t-104 -24q-52 0 -93.5 21.5t-65 59t-23.5 84.5zM351 128q11 12 18 24t7 22v53q-24 10 -52 15.5t-53 5.5q-52 0 -85.5 -22.5t-33.5 -59.5q0 -20 11 -38t32 -29t50 -11q30 0 59 11.5t47 28.5zM167 655q0 42 29.5 66.5t75.5 24.5q47 0 76 -24.5t29 -66.5
q0 -41 -29 -65.5t-76 -24.5q-46 0 -75.5 24.5t-29.5 65.5zM272 699q-18 0 -31 -12.5t-13 -30.5t12.5 -31t31.5 -13q18 0 31 12.5t13 31.5q0 18 -13 30.5t-31 12.5zM332 770l-86 26l54 119h125z" />
    <glyph glyph-name="AEacute" unicode="&#x1fc;" horiz-adv-x="966" 
d="M418 710h505v-121h-333v-167h279v-121h-279v-180h342v-121h-478v177h-228l-105 -177h-146zM444 297v258l-159 -258h159zM657 770l-86 26l54 119h125z" />
    <glyph glyph-name="aeacute" unicode="&#x1fd;" horiz-adv-x="937" 
d="M204 -10q-51 0 -91.5 21.5t-64 59.5t-23.5 85q0 50 28.5 88t79 59.5t115.5 21.5q32 0 63 -5t55 -15q1 11 3 22.5t5 21.5q-4 44 -33 67.5t-82 23.5q-42 0 -82 -15t-83 -44l-41 85q104 67 219 67q62 0 108 -19t75 -55q33 34 80.5 54t105.5 20q85 0 146.5 -37.5t95 -99
t33.5 -134.5q0 -10 -1 -22.5t-2 -20.5h-410q3 -40 23.5 -70t52 -45.5t68.5 -15.5q40 0 75.5 19.5t48.5 51.5l115 -32q-19 -40 -54.5 -71t-83.5 -48.5t-106 -17.5q-74 0 -131.5 29.5t-93.5 78.5q-23 -38 -59.5 -62t-77 -35t-76.5 -11zM242 88q33 0 64 12t48 32q21 17 22 36
q-4 13 -6.5 31.5t-3.5 33.5q-22 8 -47.5 12.5t-48.5 4.5q-52 0 -85.5 -23t-33.5 -60q0 -22 12 -40.5t32.5 -28.5t46.5 -10zM778 302q-4 40 -22.5 70t-48.5 47t-68 17t-68.5 -17t-48.5 -47t-21 -70h277zM509 585l-86 26l54 119h125z" />
    <glyph glyph-name="Oslashacute" unicode="&#x1fe;" horiz-adv-x="755" 
d="M377 -5q-78 0 -141.5 30t-109 81.5t-70.5 116t-25 132.5q0 71 26.5 135.5t73 115t110 80t139.5 29.5q77 0 140.5 -31t108.5 -83t70 -116t25 -132q0 -70 -26 -134.5t-72.5 -115t-110 -79.5t-138.5 -29zM171 355q0 -46 14 -89t40.5 -76.5t65 -53t87.5 -19.5q50 0 89 20.5
t65 55t39.5 77t13.5 85.5q0 46 -14.5 88.5t-41 76t-65 53t-86.5 19.5q-51 0 -89.5 -20.5t-64.5 -54.5t-39.5 -76t-13.5 -86zM700 710l-496 -710h-148l495 710h149zM424 770l-86 26l54 119h125z" />
    <glyph glyph-name="oslashacute" unicode="&#x1ff;" horiz-adv-x="606" 
d="M303 -10q-64 0 -115 21.5t-86.5 59.5t-54.5 87t-19 103q0 55 19 104t54.5 87t86.5 59.5t115 21.5t114.5 -21.5t86.5 -59.5t54.5 -87t18.5 -104q0 -54 -18.5 -103t-54 -87t-86.5 -59.5t-115 -21.5zM303 104q38 0 69 20.5t49.5 56t18.5 81.5q0 45 -18.5 81t-49.5 56t-69 20
q-39 0 -70 -20.5t-49 -56t-18 -81.5t18 -81.5t49 -55.5t70 -20zM42 -4l103 127l56 -41l-73 -86h-86zM211 94l-49 36l235 308l55 -29zM469 417l-63 32l65 79h88zM308 585l-86 26l54 119h125z" />
    <glyph glyph-name="uni0200" unicode="&#x200;" horiz-adv-x="672" 
d="M267 710h140l261 -710h-142l-66 177h-248l-65 -177h-142zM435 274l-98 293l-102 -293h200zM310 916h105l47 -119l-66 -26zM150 916h104l48 -119l-66 -26z" />
    <glyph glyph-name="uni0201" unicode="&#x201;" horiz-adv-x="574" 
d="M25 155q0 51 28.5 89.5t79.5 59.5t117 21q33 0 67 -5t59 -16v28q0 50 -29.5 77t-87.5 27q-43 0 -82 -15t-82 -44l-43 88q52 34 106.5 51t114.5 17q112 0 174.5 -56t62.5 -160v-167q0 -21 7.5 -30t24.5 -11v-109q-18 -3 -32.5 -5t-24.5 -2q-40 0 -60.5 18t-25.5 44l-3 27
q-34 -44 -85 -68t-104 -24q-52 0 -93.5 21.5t-65 59t-23.5 84.5zM351 128q11 12 18 24t7 22v53q-24 10 -52 15.5t-53 5.5q-52 0 -85.5 -22.5t-33.5 -59.5q0 -20 11 -38t32 -29t50 -11q30 0 59 11.5t47 28.5zM245 731h105l47 -119l-66 -26zM85 731h104l48 -119l-66 -26z" />
    <glyph glyph-name="uni0202" unicode="&#x202;" horiz-adv-x="672" 
d="M267 710h140l261 -710h-142l-66 177h-248l-65 -177h-142zM435 274l-98 293l-102 -293h200zM337 855q-23 0 -41 -22t-18 -52h-72q0 58 37 96t94 38q58 0 94.5 -38t36.5 -96h-71q-3 32 -20 53t-40 21z" />
    <glyph glyph-name="uni0203" unicode="&#x203;" horiz-adv-x="574" 
d="M25 155q0 51 28.5 89.5t79.5 59.5t117 21q33 0 67 -5t59 -16v28q0 50 -29.5 77t-87.5 27q-43 0 -82 -15t-82 -44l-43 88q52 34 106.5 51t114.5 17q112 0 174.5 -56t62.5 -160v-167q0 -21 7.5 -30t24.5 -11v-109q-18 -3 -32.5 -5t-24.5 -2q-40 0 -60.5 18t-25.5 44l-3 27
q-34 -44 -85 -68t-104 -24q-52 0 -93.5 21.5t-65 59t-23.5 84.5zM351 128q11 12 18 24t7 22v53q-24 10 -52 15.5t-53 5.5q-52 0 -85.5 -22.5t-33.5 -59.5q0 -20 11 -38t32 -29t50 -11q30 0 59 11.5t47 28.5zM272 670q-23 0 -41 -22t-18 -52h-72q0 58 37 96t94 38
q58 0 94.5 -38t36.5 -96h-71q-3 32 -20 53t-40 21z" />
    <glyph glyph-name="uni0204" unicode="&#x204;" horiz-adv-x="601" 
d="M567 121v-121h-493v710h484v-121h-346v-171h299v-112h-299v-185h355zM299 916h105l47 -119l-66 -26zM139 916h104l48 -119l-66 -26z" />
    <glyph glyph-name="uni0205" unicode="&#x205;" horiz-adv-x="599" 
d="M304 -10q-63 0 -114 21.5t-87 59t-55.5 86t-19.5 102.5q0 75 33.5 137t96 99.5t147.5 37.5q86 0 147 -37.5t93.5 -99t32.5 -132.5q0 -12 -1 -24.5t-2 -20.5h-405q4 -40 23.5 -70t50 -45.5t65.5 -15.5q40 0 75.5 19.5t48.5 51.5l115 -32q-19 -40 -54.5 -71t-83.5 -48.5
t-106 -17.5zM167 304h274q-4 40 -22.5 69.5t-48.5 46t-67 16.5q-36 0 -65.5 -16.5t-48 -46t-22.5 -69.5zM275 731h105l47 -119l-66 -26zM115 731h104l48 -119l-66 -26z" />
    <glyph glyph-name="uni0206" unicode="&#x206;" horiz-adv-x="601" 
d="M567 121v-121h-493v710h484v-121h-346v-171h299v-112h-299v-185h355zM326 855q-23 0 -41 -22t-18 -52h-72q0 58 37 96t94 38q58 0 94.5 -38t36.5 -96h-71q-3 32 -20 53t-40 21z" />
    <glyph glyph-name="uni0207" unicode="&#x207;" horiz-adv-x="599" 
d="M304 -10q-63 0 -114 21.5t-87 59t-55.5 86t-19.5 102.5q0 75 33.5 137t96 99.5t147.5 37.5q86 0 147 -37.5t93.5 -99t32.5 -132.5q0 -12 -1 -24.5t-2 -20.5h-405q4 -40 23.5 -70t50 -45.5t65.5 -15.5q40 0 75.5 19.5t48.5 51.5l115 -32q-19 -40 -54.5 -71t-83.5 -48.5
t-106 -17.5zM167 304h274q-4 40 -22.5 69.5t-48.5 46t-67 16.5q-36 0 -65.5 -16.5t-48 -46t-22.5 -69.5zM302 670q-23 0 -41 -22t-18 -52h-72q0 58 37 96t94 38q58 0 94.5 -38t36.5 -96h-71q-3 32 -20 53t-40 21z" />
    <glyph glyph-name="uni0208" unicode="&#x208;" horiz-adv-x="286" 
d="M74 0v710h138v-710h-138zM115 916h105l47 -119l-66 -26zM-45 916h104l48 -119l-66 -26z" />
    <glyph glyph-name="uni0209" unicode="&#x209;" horiz-adv-x="255" 
d="M61 0v524h134v-524h-134zM100 731h105l47 -119l-66 -26zM-60 731h104l48 -119l-66 -26z" />
    <glyph glyph-name="uni020A" unicode="&#x20a;" horiz-adv-x="286" 
d="M74 0v710h138v-710h-138zM142 855q-23 0 -41 -22t-18 -52h-72q0 58 37 96t94 38q58 0 94.5 -38t36.5 -96h-71q-3 32 -20 53t-40 21z" />
    <glyph glyph-name="uni020B" unicode="&#x20b;" horiz-adv-x="255" 
d="M61 0v524h134v-524h-134zM127 670q-23 0 -41 -22t-18 -52h-72q0 58 37 96t94 38q58 0 94.5 -38t36.5 -96h-71q-3 32 -20 53t-40 21z" />
    <glyph glyph-name="uni020C" unicode="&#x20c;" horiz-adv-x="756" 
d="M377 -5q-78 0 -141.5 30t-109 81.5t-70.5 116t-25 132.5q0 71 26.5 135.5t73 115t110 80t139.5 29.5q77 0 140.5 -31t108.5 -83t70 -116t25 -132q0 -70 -26 -134.5t-72.5 -115t-110 -79.5t-138.5 -29zM171 355q0 -46 14 -89t40.5 -76.5t65 -53t87.5 -19.5q50 0 89 20.5
t65 55t39.5 77t13.5 85.5q0 46 -14.5 88.5t-41 76t-65 53t-86.5 19.5q-51 0 -89.5 -20.5t-64.5 -54.5t-39.5 -76t-13.5 -86zM352 916h105l47 -119l-66 -26zM192 916h104l48 -119l-66 -26z" />
    <glyph glyph-name="uni020D" unicode="&#x20d;" horiz-adv-x="606" 
d="M303 -10q-64 0 -115 21.5t-86.5 59.5t-54.5 87t-19 103q0 55 19 104t54.5 87t86.5 59.5t115 21.5t114.5 -21.5t86.5 -59.5t54.5 -87t18.5 -104q0 -54 -18.5 -103t-54 -87t-86.5 -59.5t-115 -21.5zM166 261q0 -46 18 -81.5t49 -55.5t70 -20q38 0 69 20.5t49.5 56
t18.5 81.5q0 45 -18.5 81t-49.5 56t-69 20q-39 0 -70 -20.5t-49 -56t-18 -81.5zM275 731h105l47 -119l-66 -26zM115 731h104l48 -119l-66 -26z" />
    <glyph glyph-name="uni020E" unicode="&#x20e;" horiz-adv-x="756" 
d="M377 -5q-78 0 -141.5 30t-109 81.5t-70.5 116t-25 132.5q0 71 26.5 135.5t73 115t110 80t139.5 29.5q77 0 140.5 -31t108.5 -83t70 -116t25 -132q0 -70 -26 -134.5t-72.5 -115t-110 -79.5t-138.5 -29zM171 355q0 -46 14 -89t40.5 -76.5t65 -53t87.5 -19.5q50 0 89 20.5
t65 55t39.5 77t13.5 85.5q0 46 -14.5 88.5t-41 76t-65 53t-86.5 19.5q-51 0 -89.5 -20.5t-64.5 -54.5t-39.5 -76t-13.5 -86zM379 855q-23 0 -41 -22t-18 -52h-72q0 58 37 96t94 38q58 0 94.5 -38t36.5 -96h-71q-3 32 -20 53t-40 21z" />
    <glyph glyph-name="uni020F" unicode="&#x20f;" horiz-adv-x="606" 
d="M303 -10q-64 0 -115 21.5t-86.5 59.5t-54.5 87t-19 103q0 55 19 104t54.5 87t86.5 59.5t115 21.5t114.5 -21.5t86.5 -59.5t54.5 -87t18.5 -104q0 -54 -18.5 -103t-54 -87t-86.5 -59.5t-115 -21.5zM166 261q0 -46 18 -81.5t49 -55.5t70 -20q38 0 69 20.5t49.5 56
t18.5 81.5q0 45 -18.5 81t-49.5 56t-69 20q-39 0 -70 -20.5t-49 -56t-18 -81.5zM302 670q-23 0 -41 -22t-18 -52h-72q0 58 37 96t94 38q58 0 94.5 -38t36.5 -96h-71q-3 32 -20 53t-40 21z" />
    <glyph glyph-name="uni0210" unicode="&#x210;" horiz-adv-x="665" 
d="M74 0v710h314q49 0 90.5 -20t72 -54t47 -76t16.5 -86q0 -45 -15.5 -86.5t-44.5 -72.5t-68 -48l162 -267h-152l-146 238h-138v-238h-138zM212 359h173q26 0 46 15.5t32 41.5t12 58q0 34 -14 59.5t-35.5 40.5t-46.5 15h-167v-230zM286 917h105l47 -119l-66 -26zM126 917
h104l48 -119l-66 -26z" />
    <glyph glyph-name="uni0211" unicode="&#x211;" horiz-adv-x="387" 
d="M373 408q-61 0 -109 -23.5t-69 -67.5v-317h-134v524h123v-112q28 54 71 85t91 34h17t10 -1v-122zM188 731h105l47 -119l-66 -26zM28 731h104l48 -119l-66 -26z" />
    <glyph glyph-name="uni0212" unicode="&#x212;" horiz-adv-x="665" 
d="M74 0v710h314q49 0 90.5 -20t72 -54t47 -76t16.5 -86q0 -45 -15.5 -86.5t-44.5 -72.5t-68 -48l162 -267h-152l-146 238h-138v-238h-138zM212 359h173q26 0 46 15.5t32 41.5t12 58q0 34 -14 59.5t-35.5 40.5t-46.5 15h-167v-230zM313 856q-23 0 -41 -22t-18 -52h-72
q0 58 37 96t94 38q58 0 94.5 -38t36.5 -96h-71q-3 32 -20 53t-40 21z" />
    <glyph glyph-name="uni0213" unicode="&#x213;" horiz-adv-x="387" 
d="M373 408q-61 0 -109 -23.5t-69 -67.5v-317h-134v524h123v-112q28 54 71 85t91 34h17t10 -1v-122zM215 670q-23 0 -41 -22t-18 -52h-72q0 58 37 96t94 38q58 0 94.5 -38t36.5 -96h-71q-3 32 -20 53t-40 21z" />
    <glyph glyph-name="uni0214" unicode="&#x214;" horiz-adv-x="750" 
d="M375 -5q-85 0 -144.5 28.5t-96 78.5t-53.5 113.5t-17 132.5v362h138v-362q0 -44 8.5 -85.5t28.5 -74.5t53 -52t82 -19q50 0 83.5 19.5t53 52.5t28.5 74.5t9 84.5v362h137v-362q0 -73 -17.5 -137t-55 -112.5t-96.5 -76t-141 -27.5zM348 916h105l47 -119l-66 -26zM188 916
h104l48 -119l-66 -26z" />
    <glyph glyph-name="uni0215" unicode="&#x215;" horiz-adv-x="618" 
d="M56 196v328h134v-299q0 -60 22 -90.5t65 -30.5q26 0 51.5 10.5t47 31.5t36.5 53v325h134v-374q0 -21 7.5 -30t24.5 -11v-109q-20 -3 -33.5 -4.5t-24.5 -1.5q-36 0 -58.5 16.5t-26.5 45.5l-3 42q-35 -53 -90 -80.5t-121 -27.5q-81 0 -123 52.5t-42 153.5zM273 731h105
l47 -119l-66 -26zM113 731h104l48 -119l-66 -26z" />
    <glyph glyph-name="uni0216" unicode="&#x216;" horiz-adv-x="750" 
d="M375 -5q-85 0 -144.5 28.5t-96 78.5t-53.5 113.5t-17 132.5v362h138v-362q0 -44 8.5 -85.5t28.5 -74.5t53 -52t82 -19q50 0 83.5 19.5t53 52.5t28.5 74.5t9 84.5v362h137v-362q0 -73 -17.5 -137t-55 -112.5t-96.5 -76t-141 -27.5zM375 855q-23 0 -41 -22t-18 -52h-72
q0 58 37 96t94 38q58 0 94.5 -38t36.5 -96h-71q-3 32 -20 53t-40 21z" />
    <glyph glyph-name="uni0217" unicode="&#x217;" horiz-adv-x="618" 
d="M56 196v328h134v-299q0 -60 22 -90.5t65 -30.5q26 0 51.5 10.5t47 31.5t36.5 53v325h134v-374q0 -21 7.5 -30t24.5 -11v-109q-20 -3 -33.5 -4.5t-24.5 -1.5q-36 0 -58.5 16.5t-26.5 45.5l-3 42q-35 -53 -90 -80.5t-121 -27.5q-81 0 -123 52.5t-42 153.5zM300 670
q-23 0 -41 -22t-18 -52h-72q0 58 37 96t94 38q58 0 94.5 -38t36.5 -96h-71q-3 32 -20 53t-40 21z" />
    <glyph glyph-name="uni0218" unicode="&#x218;" horiz-adv-x="613" 
d="M497 524q-7 7 -25.5 19t-45 23t-57.5 19.5t-63 8.5q-56 0 -84.5 -21t-28.5 -59q0 -29 18 -46t54 -29t90 -26q70 -17 121.5 -41.5t79 -64t27.5 -104.5q0 -57 -21 -97.5t-58 -65.5t-84 -36.5t-100 -11.5t-106 11t-102 31.5t-90 49.5l61 119q9 -9 32 -23.5t56 -29t72 -24.5
t79 -10q56 0 85 19t29 54q0 32 -23 50t-64 31.5t-97 29.5q-67 19 -112 42.5t-67 59.5t-22 90q0 73 34.5 122.5t93.5 75t131 25.5q50 0 94.5 -11t83.5 -29t70 -39zM272 -213l27 72h-39v94h113v-94l-40 -72h-61z" />
    <glyph glyph-name="uni0219" unicode="&#x219;" horiz-adv-x="494" 
d="M254 -10q-67 0 -128 22t-105 65l48 87q47 -38 92.5 -56t87.5 -18q39 0 62.5 14t23.5 42q0 19 -13 29.5t-37.5 18.5t-59.5 18q-58 19 -97 37t-58.5 45.5t-19.5 70.5q0 52 26.5 89.5t74 58.5t111.5 21q56 0 106 -17.5t91 -56.5l-54 -85q-40 31 -76 45.5t-73 14.5
q-21 0 -39.5 -5t-30 -16.5t-11.5 -32.5q0 -19 10.5 -29.5t32 -18.5t52.5 -18q63 -18 106.5 -37t65.5 -46.5t22 -75.5q0 -78 -57 -122t-153 -44zM207 -213l27 72h-39v94h113v-94l-40 -72h-61z" />
    <glyph glyph-name="uni021A" unicode="&#x21a;" horiz-adv-x="619" 
d="M605 589h-227v-589h-137v589h-227v121h591v-121zM263 -213l27 72h-39v94h113v-94l-40 -72h-61z" />
    <glyph glyph-name="uni021B" unicode="&#x21b;" horiz-adv-x="384" 
d="M375 27q-17 -7 -41 -16t-51.5 -14.5t-55.5 -5.5q-37 0 -68 13t-49.5 41.5t-18.5 74.5v301h-69v103h69v170h134v-170h110v-103h-110v-256q1 -27 15 -39t35 -12t41 7t32 12zM178 -213l27 72h-39v94h113v-94l-40 -72h-61z" />
    <glyph glyph-name="uni022A" unicode="&#x22a;" horiz-adv-x="756" 
d="M377 -5q-78 0 -141.5 30t-109 81.5t-70.5 116t-25 132.5q0 71 26.5 135.5t73 115t110 80t139.5 29.5q77 0 140.5 -31t108.5 -83t70 -116t25 -132q0 -70 -26 -134.5t-72.5 -115t-110 -79.5t-138.5 -29zM171 355q0 -46 14 -89t40.5 -76.5t65 -53t87.5 -19.5q50 0 89 20.5
t65 55t39.5 77t13.5 85.5q0 46 -14.5 88.5t-41 76t-65 53t-86.5 19.5q-51 0 -89.5 -20.5t-64.5 -54.5t-39.5 -76t-13.5 -86zM228 790v119h111v-119h-111zM420 790v119h111v-119h-111zM231 1015v83h300v-83h-300z" />
    <glyph glyph-name="uni022B" unicode="&#x22b;" horiz-adv-x="606" 
d="M303 -10q-64 0 -115 21.5t-86.5 59.5t-54.5 87t-19 103q0 55 19 104t54.5 87t86.5 59.5t115 21.5t114.5 -21.5t86.5 -59.5t54.5 -87t18.5 -104q0 -54 -18.5 -103t-54 -87t-86.5 -59.5t-115 -21.5zM166 261q0 -46 18 -81.5t49 -55.5t70 -20q38 0 69 20.5t49.5 56
t18.5 81.5q0 45 -18.5 81t-49.5 56t-69 20q-39 0 -70 -20.5t-49 -56t-18 -81.5zM151 605v119h111v-119h-111zM343 605v119h111v-119h-111zM154 830v83h300v-83h-300z" />
    <glyph glyph-name="uni022C" unicode="&#x22c;" horiz-adv-x="756" 
d="M377 -5q-78 0 -141.5 30t-109 81.5t-70.5 116t-25 132.5q0 71 26.5 135.5t73 115t110 80t139.5 29.5q77 0 140.5 -31t108.5 -83t70 -116t25 -132q0 -70 -26 -134.5t-72.5 -115t-110 -79.5t-138.5 -29zM171 355q0 -46 14 -89t40.5 -76.5t65 -53t87.5 -19.5q50 0 89 20.5
t65 55t39.5 77t13.5 85.5q0 46 -14.5 88.5t-41 76t-65 53t-86.5 19.5q-51 0 -89.5 -20.5t-64.5 -54.5t-39.5 -76t-13.5 -86zM445 787q-30 0 -51.5 11.5t-39.5 22.5t-40 11t-32.5 -11.5t-13 -23.5t-2.5 -13h-74q0 9 6 30t19.5 43.5t36 38.5t55.5 16q31 0 51 -12t38.5 -23.5
t42.5 -11.5t35 12t14.5 24t3.5 14h74q0 -7 -6 -27t-20.5 -43.5t-38 -40.5t-58.5 -17zM231 1024v83h300v-83h-300z" />
    <glyph glyph-name="uni022D" unicode="&#x22d;" horiz-adv-x="606" 
d="M303 -10q-64 0 -115 21.5t-86.5 59.5t-54.5 87t-19 103q0 55 19 104t54.5 87t86.5 59.5t115 21.5t114.5 -21.5t86.5 -59.5t54.5 -87t18.5 -104q0 -54 -18.5 -103t-54 -87t-86.5 -59.5t-115 -21.5zM166 261q0 -46 18 -81.5t49 -55.5t70 -20q38 0 69 20.5t49.5 56
t18.5 81.5q0 45 -18.5 81t-49.5 56t-69 20q-39 0 -70 -20.5t-49 -56t-18 -81.5zM368 602q-30 0 -51.5 11.5t-39.5 22.5t-40 11t-32.5 -11.5t-13 -23.5t-2.5 -13h-74q0 9 6 30t19.5 43.5t36 38.5t55.5 16q31 0 51 -12t38.5 -23.5t42.5 -11.5t35 12t14.5 24t3.5 14h74
q0 -7 -6 -27t-20.5 -43.5t-38 -40.5t-58.5 -17zM154 839v83h300v-83h-300z" />
    <glyph glyph-name="uni0230" unicode="&#x230;" horiz-adv-x="756" 
d="M377 -5q-78 0 -141.5 30t-109 81.5t-70.5 116t-25 132.5q0 71 26.5 135.5t73 115t110 80t139.5 29.5q77 0 140.5 -31t108.5 -83t70 -116t25 -132q0 -70 -26 -134.5t-72.5 -115t-110 -79.5t-138.5 -29zM171 355q0 -46 14 -89t40.5 -76.5t65 -53t87.5 -19.5q50 0 89 20.5
t65 55t39.5 77t13.5 85.5q0 46 -14.5 88.5t-41 76t-65 53t-86.5 19.5q-51 0 -89.5 -20.5t-64.5 -54.5t-39.5 -76t-13.5 -86zM319 789v126h121v-126h-121zM231 1024v83h300v-83h-300z" />
    <glyph glyph-name="uni0231" unicode="&#x231;" horiz-adv-x="606" 
d="M303 -10q-64 0 -115 21.5t-86.5 59.5t-54.5 87t-19 103q0 55 19 104t54.5 87t86.5 59.5t115 21.5t114.5 -21.5t86.5 -59.5t54.5 -87t18.5 -104q0 -54 -18.5 -103t-54 -87t-86.5 -59.5t-115 -21.5zM166 261q0 -46 18 -81.5t49 -55.5t70 -20q38 0 69 20.5t49.5 56
t18.5 81.5q0 45 -18.5 81t-49.5 56t-69 20q-39 0 -70 -20.5t-49 -56t-18 -81.5zM242 604v126h121v-126h-121zM154 839v83h300v-83h-300z" />
    <glyph glyph-name="uni0232" unicode="&#x232;" horiz-adv-x="660" 
d="M154 710l175 -334l178 334h149l-258 -462v-248h-137v250l-257 460h150zM181 818v83h300v-83h-300z" />
    <glyph glyph-name="uni0233" unicode="&#x233;" horiz-adv-x="550" 
d="M72 -102q18 -4 33.5 -7t26.5 -3q19 0 31.5 9.5t24.5 34t25 68.5l-207 524h139l141 -387l124 387h128l-220 -628q-12 -35 -36.5 -63.5t-61 -45t-81.5 -16.5q-16 0 -32 2.5t-35 8.5v116zM138 633v83h300v-83h-300z" />
    <glyph glyph-name="uni0237" unicode="&#x237;" horiz-adv-x="255" 
d="M13 -196q-37 0 -71.5 11.5t-61.5 35.5l57 91q12 -12 28 -17t31 -5q18 0 32.5 8.5t23.5 23.5t9 34v538h134v-528q0 -56 -25 -100t-65.5 -68t-91.5 -24z" />
    <glyph glyph-name="uni0259" unicode="&#x259;" horiz-adv-x="599" 
d="M297 -10q-86 0 -147.5 37.5t-94.5 99.5t-34 134q0 10 1 22.5t2 20.5h405q-3 41 -23 70.5t-50 45t-65 15.5q-41 0 -76.5 -19.5t-48.5 -51.5l-114 32q19 40 54 71t83 48.5t106 17.5q64 0 115 -21.5t86.5 -58.5t55 -86t19.5 -104q0 -74 -33 -136t-94.5 -99.5t-146.5 -37.5z
M298 87q37 0 65.5 17t47 47t21.5 70h-272q3 -40 22.5 -70t49.5 -47t66 -17z" />
    <glyph glyph-name="uni02B9" unicode="&#x2b9;" horiz-adv-x="235" 
d="M61 499v224h114l-35 -224h-79z" />
    <glyph glyph-name="uni02BA" unicode="&#x2ba;" horiz-adv-x="471" 
d="M61 499v224h114l-35 -224h-79zM296 499v224h114l-35 -224h-79z" />
    <glyph glyph-name="uni02BB" unicode="&#x2bb;" horiz-adv-x="201" 
d="M128 730l-27 -63h39v-84h-113v84l40 63h61z" />
    <glyph glyph-name="uni02BC" unicode="&#x2bc;" horiz-adv-x="255" 
d="M133 585l-86 26l54 119h125z" />
    <glyph glyph-name="uni02BE" unicode="&#x2be;" horiz-adv-x="157" 
d="M26 565v47q18 0 31 12.5t13 31.5q0 18 -13 30.5t-31 12.5v47q47 0 76 -24.5t29 -66.5q0 -41 -29 -65.5t-76 -24.5z" />
    <glyph glyph-name="uni02BF" unicode="&#x2bf;" horiz-adv-x="157" 
d="M131 565q-46 0 -75.5 24.5t-29.5 65.5q0 42 29.5 66.5t75.5 24.5v-47q-18 0 -31 -12.5t-13 -30.5t12.5 -31t31.5 -13v-47z" />
    <glyph glyph-name="circumflex" unicode="&#x2c6;" horiz-adv-x="369" 
d="M30 629l106 101h97l106 -101l-69 -32l-85 63l-85 -63z" />
    <glyph glyph-name="caron" unicode="&#x2c7;" horiz-adv-x="369" 
d="M100 730l85 -63l85 63l69 -32l-106 -101h-97l-106 101z" />
    <glyph glyph-name="uni02C8" unicode="&#x2c8;" horiz-adv-x="275" 
d="M195 775v-394h-114v394h114z" />
    <glyph glyph-name="uni02C9" unicode="&#x2c9;" horiz-adv-x="419" 
d="M60 633v83h300v-83h-300z" />
    <glyph glyph-name="uni02CA" unicode="&#x2ca;" horiz-adv-x="235" 
d="M61 499v224h114l-35 -224h-79z" />
    <glyph glyph-name="uni02CB" unicode="&#x2cb;" horiz-adv-x="235" 
d="M95 499l-34 224h114v-224h-80z" />
    <glyph glyph-name="uni02CC" unicode="&#x2cc;" horiz-adv-x="275" 
d="M195 264v-394h-114v394h114z" />
    <glyph glyph-name="breve" unicode="&#x2d8;" horiz-adv-x="328" 
d="M164 656q23 0 40 21t20 53h71q0 -58 -36.5 -96t-94.5 -38q-57 0 -94 38t-37 96h72q0 -30 18 -52t41 -22z" />
    <glyph glyph-name="dotaccent" unicode="&#x2d9;" horiz-adv-x="221" 
d="M50 604v126h121v-126h-121z" />
    <glyph glyph-name="ring" unicode="&#x2da;" horiz-adv-x="262" 
d="M26 655q0 42 29.5 66.5t75.5 24.5q47 0 76 -24.5t29 -66.5q0 -41 -29 -65.5t-76 -24.5q-46 0 -75.5 24.5t-29.5 65.5zM131 699q-18 0 -31 -12.5t-13 -30.5t12.5 -31t31.5 -13q18 0 31 12.5t13 31.5q0 18 -13 30.5t-31 12.5z" />
    <glyph glyph-name="ogonek" unicode="&#x2db;" horiz-adv-x="290" 
d="M63 -110q0 34 25 68t77 63h42l16 -21q-37 -26 -56 -47.5t-19 -39.5t19.5 -27t55.5 -10l-27 -76q-50 5 -79.5 18.5t-41.5 32.5t-12 39z" />
    <glyph glyph-name="tilde" unicode="&#x2dc;" horiz-adv-x="437" 
d="M284 602q-30 0 -51.5 11.5t-39.5 22.5t-40 11t-32.5 -11.5t-13 -23.5t-2.5 -13h-74q0 9 6 30t19.5 43.5t36 38.5t55.5 16q31 0 51 -12t38.5 -23.5t42.5 -11.5t35 12t14.5 24t3.5 14h74q0 -7 -6 -27t-20.5 -43.5t-38 -40.5t-58.5 -17z" />
    <glyph glyph-name="hungarumlaut" unicode="&#x2dd;" horiz-adv-x="366" 
d="M99 585l-66 26l48 119h104zM259 585l-65 26l47 119h105z" />
    <glyph glyph-name="gravecomb" unicode="&#x300;" 
d="M47 730h124l55 -119l-86 -26z" />
    <glyph glyph-name="acutecomb" unicode="&#x301;" 
d="M133 585l-86 26l54 119h125z" />
    <glyph glyph-name="uni0302" unicode="&#x302;" 
d="M30 629l106 101h97l106 -101l-69 -32l-85 63l-85 -63z" />
    <glyph glyph-name="tildecomb" unicode="&#x303;" 
d="M284 602q-30 0 -51.5 11.5t-39.5 22.5t-40 11t-32.5 -11.5t-13 -23.5t-2.5 -13h-74q0 9 6 30t19.5 43.5t36 38.5t55.5 16q31 0 51 -12t38.5 -23.5t42.5 -11.5t35 12t14.5 24t3.5 14h74q0 -7 -6 -27t-20.5 -43.5t-38 -40.5t-58.5 -17z" />
    <glyph glyph-name="uni0304" unicode="&#x304;" 
d="M60 633v83h300v-83h-300z" />
    <glyph glyph-name="uni0306" unicode="&#x306;" 
d="M164 656q23 0 40 21t20 53h71q0 -58 -36.5 -96t-94.5 -38q-57 0 -94 38t-37 96h72q0 -30 18 -52t41 -22z" />
    <glyph glyph-name="uni0307" unicode="&#x307;" 
d="M50 604v126h121v-126h-121z" />
    <glyph glyph-name="uni0308" unicode="&#x308;" 
d="M77 604v119h111v-119h-111zM269 604v119h111v-119h-111z" />
    <glyph glyph-name="hookabovecomb" unicode="&#x309;" 
d="M256 687l-41 41q24 23 48.5 34.5t51.5 11.5q40 0 61.5 -21.5t21.5 -52.5q0 -29 -15.5 -53t-48.5 -51l-34 37q17 14 24.5 25.5t7.5 24.5q0 12 -7.5 20t-20.5 8t-23 -5.5t-25 -18.5z" />
    <glyph glyph-name="uni030A" unicode="&#x30a;" 
d="M26 655q0 42 29.5 66.5t75.5 24.5q47 0 76 -24.5t29 -66.5q0 -41 -29 -65.5t-76 -24.5q-46 0 -75.5 24.5t-29.5 65.5zM131 699q-18 0 -31 -12.5t-13 -30.5t12.5 -31t31.5 -13q18 0 31 12.5t13 31.5q0 18 -13 30.5t-31 12.5z" />
    <glyph glyph-name="uni030B" unicode="&#x30b;" 
d="M99 585l-66 26l48 119h104zM259 585l-65 26l47 119h105z" />
    <glyph glyph-name="uni030C" unicode="&#x30c;" 
d="M100 730l85 -63l85 63l69 -32l-106 -101h-97l-106 101z" />
    <glyph glyph-name="uni030F" unicode="&#x30f;" 
d="M180 730h105l47 -119l-66 -26zM20 730h104l48 -119l-66 -26z" />
    <glyph glyph-name="uni0311" unicode="&#x311;" 
d="M164 670q-23 0 -41 -22t-18 -52h-72q0 58 37 96t94 38q58 0 94.5 -38t36.5 -96h-71q-3 32 -20 53t-40 21z" />
    <glyph glyph-name="uni0312" unicode="&#x312;" 
d="M128 730l-27 -63h39v-84h-113v84l40 63h61z" />
    <glyph glyph-name="uni031B" unicode="&#x31b;" 
d="M50 483l2 92q35 0 56 5.5t33 17.5q11 14 13.5 30.5t3.5 35.5h97q0 -22 -3 -45t-12 -44.5t-27 -41.5q-15 -15 -40.5 -26.5t-57 -17.5t-65.5 -6z" />
    <glyph glyph-name="dotbelowcomb" unicode="&#x323;" 
d="M50 -199v126h121v-126h-121z" />
    <glyph glyph-name="uni0324" unicode="&#x324;" 
d="M77 -199v119h111v-119h-111zM269 -199v119h111v-119h-111z" />
    <glyph glyph-name="uni0326" unicode="&#x326;" 
d="M73 -213l27 72h-39v94h113v-94l-40 -72h-61z" />
    <glyph glyph-name="uni0327" unicode="&#x327;" 
d="M148 -201q-27 0 -58 7.5t-62 22.5l34 71q15 -10 30.5 -15.5t32.5 -5.5q26 0 40.5 11.5t14.5 33.5q0 21 -14.5 39.5t-41.5 36.5l45 29q40 -26 66 -56.5t26 -74.5q0 -42 -28.5 -70.5t-84.5 -28.5z" />
    <glyph glyph-name="uni0328" unicode="&#x328;" 
d="M63 -110q0 34 25 68t77 63h42l16 -21q-37 -26 -56 -47.5t-19 -39.5t19.5 -27t55.5 -10l-27 -76q-50 5 -79.5 18.5t-41.5 32.5t-12 39z" />
    <glyph glyph-name="uni032E" unicode="&#x32e;" 
d="M164 -127q23 0 40 21t20 53h71q0 -58 -36.5 -96t-94.5 -38q-57 0 -94 38t-37 96h72q0 -30 18 -52t41 -22z" />
    <glyph glyph-name="uni0331" unicode="&#x331;" 
d="M60 -163v83h300v-83h-300z" />
    <glyph glyph-name="uni0335" unicode="&#x335;" 
d="M50 252v80h293v-80h-293z" />
    <glyph glyph-name="uni0394" unicode="&#x394;" horiz-adv-x="652" 
d="M383 710l250 -606v-104h-615v104l253 606h112zM159 121h338l-170 436z" />
    <glyph glyph-name="uni03A9" unicode="&#x3a9;" horiz-adv-x="774" 
d="M38 0v102h165q-48 27 -82.5 67.5t-53.5 91.5t-19 109q0 68 25 130t71.5 110.5t108.5 76.5t134 28q73 0 135 -28t108 -76.5t71.5 -110.5t25.5 -130q0 -58 -19 -109t-54 -91.5t-83 -67.5h166v-102h-307v102q37 13 66.5 40.5t50.5 64.5t32.5 78.5t11.5 84.5q0 41 -14 80.5
t-40.5 71.5t-64.5 51t-85 19t-84.5 -19t-64.5 -51t-40.5 -71.5t-13.5 -80.5q0 -43 11 -84.5t32.5 -78.5t51 -64.5t66.5 -40.5v-102h-307z" />
    <glyph glyph-name="uni03BC" unicode="&#x3bc;" horiz-adv-x="628" 
d="M61 -212v736h134v-299q0 -60 22 -90.5t68 -30.5q24 0 49 10.5t47 31.5t37 53v325h134v-370q0 -21 8 -30t28 -10v-114q-21 -3 -36 -4.5t-27 -1.5q-37 0 -59.5 18t-25.5 48l-2 38q-11 -23 -36 -48.5t-57.5 -42.5t-68.5 -17q-25 0 -44 9.5t-30 23.5t-16 26l6 -261h-131z" />
    <glyph glyph-name="pi" unicode="&#x3c0;" horiz-adv-x="642" 
d="M233 406v-406h-132v406h-75v116h567v-116h-96v-238q0 -29 14 -45t40 -16q12 0 26.5 4t26.5 10l19 -102q-28 -13 -63.5 -20t-65.5 -7q-61 0 -95.5 33.5t-34.5 95.5v285h-131z" />
    <glyph glyph-name="uni0400" unicode="&#x400;" horiz-adv-x="601" 
d="M567 121v-121h-493v710h484v-121h-346v-171h299v-112h-299v-185h355zM201 916h124l55 -119l-86 -26z" />
    <glyph glyph-name="uni0401" unicode="&#x401;" horiz-adv-x="601" 
d="M567 121v-121h-493v710h484v-121h-346v-171h299v-112h-299v-185h355zM174 790v119h111v-119h-111zM366 790v119h111v-119h-111z" />
    <glyph glyph-name="uni0402" unicode="&#x402;" horiz-adv-x="763" 
d="M484 -9q-27 0 -55.5 4t-55.5 13l34 107q15 -5 31.5 -9.5t33.5 -4.5q53 0 88 28.5t35 92.5q0 43 -18.5 71.5t-49.5 43t-70 14.5q-40 0 -83 -14.5t-82 -41.5v-295h-134v593h-144v117h553v-117h-275v-192q42 27 90 41.5t99 14.5q73 0 128 -29t85 -81.5t30 -124.5
q0 -112 -64 -171.5t-176 -59.5z" />
    <glyph glyph-name="uni0403" unicode="&#x403;" horiz-adv-x="537" 
d="M76 0v710h436v-121h-299v-589h-137zM373 771l-86 26l54 119h125z" />
    <glyph glyph-name="uni0404" unicode="&#x404;" horiz-adv-x="716" 
d="M379 -6q-79 0 -143 31t-110 83.5t-70.5 118t-24.5 133.5q0 66 23 129t68 114t111 81t152 30q100 0 172.5 -43t108.5 -112l-107 -73q-18 40 -47 63.5t-63.5 33t-67.5 9.5q-43 0 -77.5 -14t-60 -38t-41 -55t-21.5 -67h262v-110h-266q5 -40 22 -75t44.5 -61t63 -41t76.5 -15
q34 0 69 11t64.5 35t46.5 62l113 -65q-22 -53 -70.5 -90t-108 -56t-118.5 -19z" />
    <glyph glyph-name="uni0405" unicode="&#x405;" horiz-adv-x="613" 
d="M497 524q-7 7 -25.5 19t-45 23t-57.5 19.5t-63 8.5q-56 0 -84.5 -21t-28.5 -59q0 -29 18 -46t54 -29t90 -26q70 -17 121.5 -41.5t79 -64t27.5 -104.5q0 -57 -21 -97.5t-58 -65.5t-84 -36.5t-100 -11.5t-106 11t-102 31.5t-90 49.5l61 119q9 -9 32 -23.5t56 -29t72 -24.5
t79 -10q56 0 85 19t29 54q0 32 -23 50t-64 31.5t-97 29.5q-67 19 -112 42.5t-67 59.5t-22 90q0 73 34.5 122.5t93.5 75t131 25.5q50 0 94.5 -11t83.5 -29t70 -39z" />
    <glyph glyph-name="uni0406" unicode="&#x406;" horiz-adv-x="286" 
d="M74 0v710h138v-710h-138z" />
    <glyph glyph-name="uni0407" unicode="&#x407;" horiz-adv-x="286" 
d="M74 0v710h138v-710h-138zM-9 790v119h111v-119h-111zM183 790v119h111v-119h-111z" />
    <glyph glyph-name="uni0408" unicode="&#x408;" horiz-adv-x="491" 
d="M38 145q13 -9 46 -21.5t78 -12.5q39 0 64 13.5t38.5 40.5t18 70t4.5 103v372h138v-361q0 -80 -9 -146t-35 -114t-78.5 -74t-139.5 -26q-48 0 -86 11t-70 33z" />
    <glyph glyph-name="uni0409" unicode="&#x409;" horiz-adv-x="1031" 
d="M30 -5v119q37 4 63.5 22t44 61t27.5 120.5t13 199.5l5 193h456v-266h126q76 0 129.5 -27.5t81 -77t27.5 -117.5q0 -65 -26.5 -115t-78 -78.5t-125.5 -28.5h-271v589h-195l-2 -126q-1 -115 -13.5 -196.5t-34 -134t-54 -82.5t-75.5 -42.5t-98 -12.5zM639 112h116
q38 0 61.5 15t35 40t11.5 55q0 29 -11 53.5t-34.5 40t-63.5 15.5h-115v-219z" />
    <glyph glyph-name="uni040A" unicode="&#x40a;" horiz-adv-x="1035" 
d="M76 0v710h137v-282h293v282h137v-276h126q114 0 176 -58.5t62 -156.5q0 -64 -27 -113.5t-78 -77.5t-125 -28h-271v308h-293v-308h-137zM643 112h115q38 0 62 14.5t35.5 38.5t11.5 54q0 27 -11 50t-35 38t-64 15h-114v-210z" />
    <glyph glyph-name="uni040B" unicode="&#x40b;" horiz-adv-x="744" 
d="M158 0v593h-144v117h539v-117h-261v-173q36 15 78.5 24t90.5 9q114 0 176 -59t62 -187v-207h-134v191q0 67 -30.5 100.5t-99.5 33.5q-40 0 -78 -10t-65 -25v-290h-134z" />
    <glyph glyph-name="uni040C" unicode="&#x40c;" horiz-adv-x="688" 
d="M76 0v710h137v-286h70l211 286h154l-258 -344l278 -366h-167l-220 299h-68v-299h-137zM384 771l-86 26l54 119h125z" />
    <glyph glyph-name="uni040D" unicode="&#x40d;" horiz-adv-x="767" 
d="M79 0v710h137v-516l344 516h128v-710h-137v510l-340 -510h-132zM260 917h124l55 -119l-86 -26z" />
    <glyph glyph-name="uni040E" unicode="&#x40e;" horiz-adv-x="639" 
d="M143 -5v114h56q26 0 39 11t23 35l16 35l-282 520h152l191 -380l166 380h145l-283 -620q-26 -53 -59 -74t-88 -21h-76zM329 759q-77 0 -121 39.5t-44 101.5h83q0 -30 20 -50t62 -20t60.5 19t22.5 51h83q0 -62 -44 -101.5t-122 -39.5z" />
    <glyph glyph-name="uni040F" unicode="&#x40f;" horiz-adv-x="711" 
d="M299 -136v136h-225v710h138v-589h288v589h137v-710h-221v-136h-117z" />
    <glyph glyph-name="uni0410" unicode="&#x410;" horiz-adv-x="672" 
d="M267 710h140l261 -710h-142l-66 177h-248l-65 -177h-142zM435 274l-98 293l-102 -293h200z" />
    <glyph glyph-name="uni0411" unicode="&#x411;" horiz-adv-x="668" 
d="M76 0v710h512v-119h-375v-171h193q119 0 179 -56t60 -150q0 -63 -26 -111t-77 -75.5t-129 -27.5h-337zM213 119h181q40 0 64 14.5t35 37t11 47.5t-9.5 46.5t-33.5 35t-69 13.5h-179v-194z" />
    <glyph glyph-name="uni0412" unicode="&#x412;" horiz-adv-x="680" 
d="M646 183q0 -60 -31 -100.5t-83.5 -61.5t-114.5 -21h-343v710h380q50 0 86.5 -26.5t56 -68t19.5 -86.5q0 -51 -26 -97t-76 -68q61 -18 96.5 -65t35.5 -116zM507 209q0 27 -11 48.5t-29.5 34t-42.5 12.5h-212v-187h205q25 0 45.5 12.5t32.5 33.5t12 46zM212 592v-179h184
q23 0 42 11t30.5 31t11.5 48q0 27 -10.5 47t-28 31t-39.5 11h-190z" />
    <glyph glyph-name="uni0413" unicode="&#x413;" horiz-adv-x="537" 
d="M76 0v710h436v-121h-299v-589h-137z" />
    <glyph glyph-name="uni0414" unicode="&#x414;" horiz-adv-x="789" 
d="M30 -136v257h38q27 0 47 21t34 67t22.5 119.5t11.5 178.5l6 203h473v-589h94v-257h-121v136h-484v-136h-121zM233 121h292v468h-211l-2 -100q-3 -104 -11.5 -177t-24 -120t-43.5 -71z" />
    <glyph glyph-name="uni0415" unicode="&#x415;" horiz-adv-x="601" 
d="M567 121v-121h-493v710h484v-121h-346v-171h299v-112h-299v-185h355z" />
    <glyph glyph-name="uni0416" unicode="&#x416;" horiz-adv-x="1071" 
d="M20 0l274 368l-254 342h160l207 -286h60v286h137v-286h60l207 286h160l-254 -342l274 -368h-158l-227 299h-62v-299h-137v299h-63l-226 -299h-158z" />
    <glyph glyph-name="uni0417" unicode="&#x417;" horiz-adv-x="605" 
d="M304 -7q-87 0 -156 35t-109 98l103 64q25 -38 65 -60.5t94 -22.5q64 0 95.5 28t31.5 74q0 30 -13.5 52.5t-40.5 35t-68 12.5h-85v105h86q32 0 54.5 11.5t34 31.5t11.5 46q0 27 -12.5 47t-37 31.5t-62.5 11.5q-54 0 -93 -21.5t-60 -56.5l-99 70q40 59 102.5 95t155.5 36
q74 0 127 -22.5t82.5 -65.5t29.5 -104q0 -49 -23.5 -91.5t-74.5 -65.5q60 -18 92.5 -64t32.5 -107q0 -66 -34.5 -111.5t-93.5 -68.5t-135 -23z" />
    <glyph glyph-name="uni0418" unicode="&#x418;" horiz-adv-x="767" 
d="M79 0v710h137v-516l344 516h128v-710h-137v510l-340 -510h-132z" />
    <glyph glyph-name="uni0419" unicode="&#x419;" horiz-adv-x="767" 
d="M79 0v710h137v-516l344 516h128v-710h-137v510l-340 -510h-132zM384 754q-57 0 -98.5 18.5t-64 51.5t-22.5 74h94q0 -29 21.5 -51.5t69.5 -22.5q47 0 69 21t22 53h95q0 -41 -22.5 -74t-64 -51.5t-99.5 -18.5z" />
    <glyph glyph-name="uni041A" unicode="&#x41a;" horiz-adv-x="688" 
d="M76 0v710h137v-286h70l211 286h154l-258 -344l278 -366h-167l-220 299h-68v-299h-137z" />
    <glyph glyph-name="uni041B" unicode="&#x41b;" horiz-adv-x="738" 
d="M526 0v589h-208l-4 -120q-5 -141 -23 -233t-52 -144.5t-85.5 -74t-123.5 -21.5v119q37 0 64 16t45.5 58t29.5 119t15 199l7 203h472v-710h-137z" />
    <glyph glyph-name="uni041C" unicode="&#x41c;" horiz-adv-x="865" 
d="M653 0v466l-182 -347h-77l-182 347v-466h-138v710h148l210 -404l212 404h147v-710h-138z" />
    <glyph glyph-name="uni041D" unicode="&#x41d;" horiz-adv-x="745" 
d="M671 710v-710h-137v303h-322v-303h-138v710h138v-287h322v287h137z" />
    <glyph glyph-name="uni041E" unicode="&#x41e;" horiz-adv-x="756" 
d="M377 -5q-78 0 -141.5 30t-109 81.5t-70.5 116t-25 132.5q0 71 26.5 135.5t73 115t110 80t139.5 29.5q77 0 140.5 -31t108.5 -83t70 -116t25 -132q0 -70 -26 -134.5t-72.5 -115t-110 -79.5t-138.5 -29zM171 355q0 -46 14 -89t40.5 -76.5t65 -53t87.5 -19.5q50 0 89 20.5
t65 55t39.5 77t13.5 85.5q0 46 -14.5 88.5t-41 76t-65 53t-86.5 19.5q-51 0 -89.5 -20.5t-64.5 -54.5t-39.5 -76t-13.5 -86z" />
    <glyph glyph-name="uni041F" unicode="&#x41f;" horiz-adv-x="727" 
d="M76 0v710h575v-710h-137v589h-301v-589h-137z" />
    <glyph glyph-name="uni0420" unicode="&#x420;" horiz-adv-x="623" 
d="M74 0v710h301q49 0 90 -20t71.5 -54t47.5 -76t17 -86q0 -60 -28 -114t-77 -88t-116 -34h-168v-238h-138zM212 359h160q25 0 45 14t32 40.5t12 60.5q0 37 -13.5 63t-35 39t-46.5 13h-154v-230z" />
    <glyph glyph-name="uni0421" unicode="&#x421;" horiz-adv-x="686" 
d="M31 360q0 65 23.5 127.5t68.5 114t110 82t148 30.5q98 0 169.5 -43t106.5 -112l-106 -73q-18 40 -47 63.5t-62 33t-65 9.5q-52 0 -90.5 -21t-64.5 -55t-38.5 -76t-12.5 -84q0 -47 15 -90.5t42.5 -77t66 -53t84.5 -19.5q33 0 67 11t63 35t45 62l113 -65q-21 -53 -68.5 -90
t-106.5 -56t-117 -19q-76 0 -139 31.5t-108.5 84t-71 118t-25.5 132.5z" />
    <glyph glyph-name="uni0422" unicode="&#x422;" horiz-adv-x="619" 
d="M605 589h-227v-589h-137v589h-227v121h591v-121z" />
    <glyph glyph-name="uni0423" unicode="&#x423;" horiz-adv-x="639" 
d="M143 -5v114h56q26 0 39 11t23 35l16 35l-282 520h152l191 -380l166 380h145l-283 -620q-26 -53 -59 -74t-88 -21h-76z" />
    <glyph glyph-name="uni0424" unicode="&#x424;" horiz-adv-x="827" 
d="M348 0v64q-64 4 -121 27t-101 64t-69.5 97.5t-25.5 124.5q0 72 26.5 128.5t71.5 97t101.5 62.5t117.5 26v54h131v-54q61 -4 118 -26.5t101.5 -63t70.5 -97t26 -127.5q0 -70 -25.5 -126t-70 -97t-101.5 -63.5t-119 -26.5v-64h-131zM352 175v405q-50 -3 -92 -28
t-66.5 -68.5t-24.5 -106.5q0 -47 15 -83.5t40.5 -62t58.5 -40t69 -16.5zM475 175q49 4 91 28.5t67 68t25 105.5q0 47 -14.5 83t-40 62t-58.5 41t-70 17v-405z" />
    <glyph glyph-name="uni0425" unicode="&#x425;" horiz-adv-x="646" 
d="M148 710l176 -262l175 262h150l-246 -360l238 -350h-150l-167 252l-168 -252h-151l238 350l-246 360h151z" />
    <glyph glyph-name="uni0426" unicode="&#x426;" horiz-adv-x="756" 
d="M603 -135v135h-529v710h138v-589h281v589h137v-589h94v-256h-121z" />
    <glyph glyph-name="uni0427" unicode="&#x427;" horiz-adv-x="676" 
d="M468 0v277q-11 -5 -32 -13t-53 -14t-75 -6q-124 0 -186 55t-62 176v235h134v-220q0 -63 32.5 -92.5t111.5 -29.5q35 0 70 7.5t60 19.5v315h134v-710h-134z" />
    <glyph glyph-name="uni0428" unicode="&#x428;" horiz-adv-x="996" 
d="M74 0v710h138v-589h217v589h138v-589h217v589h138v-710h-848z" />
    <glyph glyph-name="uni0429" unicode="&#x429;" horiz-adv-x="1048" 
d="M895 -135v135h-821v710h138v-589h217v589h138v-589h217v589h138v-589h93v-256h-120z" />
    <glyph glyph-name="uni042A" unicode="&#x42a;" horiz-adv-x="736" 
d="M186 0v596h-166v114h304v-254h139q79 0 133.5 -28t83.5 -78.5t29 -119.5q0 -68 -28 -120t-81 -81t-129 -29h-285zM324 112h128q41 0 66.5 16t38 42.5t12.5 59.5q0 29 -12 55t-37.5 42.5t-68.5 16.5h-127v-232z" />
    <glyph glyph-name="uni042B" unicode="&#x42b;" horiz-adv-x="920" 
d="M74 0v710h138v-254h145q79 0 133.5 -28t83.5 -78.5t29 -119.5q0 -68 -28 -120t-81 -81t-129 -29h-291zM212 112h134q41 0 66.5 16t37.5 42.5t12 59.5q0 29 -11.5 55t-37 42.5t-68.5 16.5h-133v-232zM708 0v709h138v-709h-138z" />
    <glyph glyph-name="uni042C" unicode="&#x42c;" horiz-adv-x="632" 
d="M76 0v710h137v-254h146q79 0 133.5 -28t83 -78.5t28.5 -119.5q0 -68 -27.5 -120t-80.5 -81t-129 -29h-291zM213 112h135q40 0 66 16t38 42.5t12 59.5q0 29 -11.5 55t-37 42.5t-68.5 16.5h-134v-232z" />
    <glyph glyph-name="uni042D" unicode="&#x42d;" horiz-adv-x="713" 
d="M329 -6q-68 0 -124 20.5t-98 57.5t-71 87l114 65q18 -33 45 -57.5t61.5 -37.5t73.5 -13q48 0 87 18.5t66.5 51t42 75t14.5 89.5l56 -38h-327v102h324l-54 -37q-2 42 -16 81t-41 69t-65 47.5t-87 17.5q-38 0 -72 -12.5t-60 -36.5t-44 -59l-109 75q43 68 111.5 111.5
t174.5 43.5q83 0 148 -30t110 -81t68.5 -115t23.5 -133q0 -72 -24.5 -137t-71 -115.5t-111.5 -79.5t-145 -29z" />
    <glyph glyph-name="uni042E" unicode="&#x42e;" horiz-adv-x="1006" 
d="M642 -5q-88 0 -156.5 37t-111.5 105t-54 161h-108v-298h-138v710h138v-292h109q12 94 56.5 160t113.5 101.5t154 35.5q99 0 172.5 -45.5t115 -127t41.5 -189.5q0 -116 -43 -195.5t-117.5 -121t-171.5 -41.5zM644 117q61 0 103.5 30.5t64.5 84.5t22 123q0 74 -23 126.5
t-66 81.5t-102 29q-60 0 -102 -30t-64 -83.5t-22 -123.5q0 -73 22.5 -126.5t65 -82.5t101.5 -29z" />
    <glyph glyph-name="uni042F" unicode="&#x42f;" horiz-adv-x="676" 
d="M55 0l174 285q-66 22 -103.5 76.5t-37.5 129.5q0 63 30 112.5t83 78t124 28.5h277v-710h-137v268h-72h-12.5h-12.5l-158 -268h-155zM341 386h124v207h-122q-31 0 -57.5 -11.5t-42 -34t-15.5 -56.5t14 -57.5t40 -35.5t59 -12z" />
    <glyph glyph-name="uni0430" unicode="&#x430;" horiz-adv-x="574" 
d="M25 155q0 51 28.5 89.5t79.5 59.5t117 21q33 0 67 -5t59 -16v28q0 50 -29.5 77t-87.5 27q-43 0 -82 -15t-82 -44l-43 88q52 34 106.5 51t114.5 17q112 0 174.5 -56t62.5 -160v-167q0 -21 7.5 -30t24.5 -11v-109q-18 -3 -32.5 -5t-24.5 -2q-40 0 -60.5 18t-25.5 44l-3 27
q-34 -44 -85 -68t-104 -24q-52 0 -93.5 21.5t-65 59t-23.5 84.5zM351 128q11 12 18 24t7 22v53q-24 10 -52 15.5t-53 5.5q-52 0 -85.5 -22.5t-33.5 -59.5q0 -20 11 -38t32 -29t50 -11q30 0 59 11.5t47 28.5z" />
    <glyph glyph-name="uni0431" unicode="&#x431;" horiz-adv-x="622" 
d="M322 -10q-135 0 -204.5 79.5t-69.5 232.5q0 96 17 162t50 109t83.5 70t116.5 43l225 57l2 -109l-222 -58q-48 -14 -84 -38.5t-57.5 -63t-27.5 -96.5q30 49 82 77.5t126 28.5q70 0 123 -30t82.5 -83t29.5 -123q0 -75 -31.5 -133.5t-92 -91.5t-148.5 -33zM322 104
q62 0 98.5 37.5t36.5 99.5q0 60 -36 98t-99 38q-39 0 -69.5 -16t-48.5 -46.5t-18 -73.5q0 -40 16 -71t46.5 -48.5t73.5 -17.5z" />
    <glyph glyph-name="uni0432" unicode="&#x432;" horiz-adv-x="566" 
d="M61 0v524h292q54 0 87.5 -18t49.5 -47t16 -62q0 -44 -19.5 -77t-60.5 -51q46 -13 75 -44.5t29 -82.5q0 -49 -23 -80.5t-66 -46.5t-102 -15h-278zM188 91h147q18 0 33 9t23.5 24t8.5 33q0 19 -8 33.5t-22.5 23t-33.5 8.5h-148v-131zM188 306h131q18 0 32 9t21.5 24t7.5 33
q0 26 -16.5 43.5t-43.5 17.5h-132v-127z" />
    <glyph glyph-name="uni0433" unicode="&#x433;" horiz-adv-x="424" 
d="M61 0v524h347v-117h-213v-407h-134z" />
    <glyph glyph-name="uni0434" unicode="&#x434;" horiz-adv-x="632" 
d="M18 -127v244h14q20 0 37.5 11t31 37.5t22 73.5t11.5 120l6 165h393v-407h73v-244h-117v127h-353v-127h-118zM201 117h198v294h-142l-3 -65q-3 -66 -9.5 -111.5t-17 -74t-26.5 -43.5z" />
    <glyph glyph-name="uni0435" unicode="&#x435;" horiz-adv-x="599" 
d="M304 -10q-63 0 -114 21.5t-87 59t-55.5 86t-19.5 102.5q0 75 33.5 137t96 99.5t147.5 37.5q86 0 147 -37.5t93.5 -99t32.5 -132.5q0 -12 -1 -24.5t-2 -20.5h-405q4 -40 23.5 -70t50 -45.5t65.5 -15.5q40 0 75.5 19.5t48.5 51.5l115 -32q-19 -40 -54.5 -71t-83.5 -48.5
t-106 -17.5zM167 304h274q-4 40 -22.5 69.5t-48.5 46t-67 16.5q-36 0 -65.5 -16.5t-48 -46t-22.5 -69.5z" />
    <glyph glyph-name="uni0436" unicode="&#x436;" horiz-adv-x="856" 
d="M22 0l184 271l-171 253h149l134 -199h41v199h138v-199h44l131 199h150l-171 -253l185 -271h-153l-142 209h-44v-209h-137v209h-42l-144 -209h-152z" />
    <glyph glyph-name="uni0437" unicode="&#x437;" horiz-adv-x="496" 
d="M248 -8q-84 0 -140 30t-88 83l108 49q17 -26 44.5 -40.5t68.5 -14.5q47 0 72.5 18.5t25.5 48.5q0 28 -21 45t-62 17h-54v83h55q19 0 32.5 7.5t21 20.5t7.5 30q0 25 -19.5 41t-61.5 16q-35 0 -57.5 -13t-37.5 -39l-101 54q28 49 80.5 77t122.5 28q55 0 98.5 -17t68.5 -49
t25 -80q0 -34 -16.5 -66t-53.5 -47q48 -14 72.5 -48t24.5 -80q0 -50 -28 -84.5t-76 -52t-111 -17.5z" />
    <glyph glyph-name="uni0438" unicode="&#x438;" horiz-adv-x="613" 
d="M61 0v523h134v-344l235 345h122v-524h-134v336l-232 -336h-125z" />
    <glyph glyph-name="uni0439" unicode="&#x439;" horiz-adv-x="613" 
d="M61 0v523h134v-344l235 345h122v-524h-134v336l-232 -336h-125zM307 573q-77 0 -121 39.5t-44 101.5h83q0 -30 20 -50t62 -20t60.5 19t22.5 51h83q0 -62 -44 -101.5t-122 -39.5z" />
    <glyph glyph-name="uni043A" unicode="&#x43a;" horiz-adv-x="570" 
d="M61 0v524h134v-198h45l142 198h146l-186 -253l206 -271h-153l-157 208h-43v-208h-134z" />
    <glyph glyph-name="uni043B" unicode="&#x43b;" horiz-adv-x="595" 
d="M23 -7v119q24 1 43 12t33.5 37.5t23 74.5t11.5 123l7 165h393v-524h-134v407h-141l-2 -61q-4 -103 -20 -171t-44.5 -107.5t-70.5 -56.5t-99 -18z" />
    <glyph glyph-name="uni043C" unicode="&#x43c;" horiz-adv-x="730" 
d="M61 0v524h140l164 -303l165 303h138v-524h-127v339l-134 -246h-84l-135 246v-339h-127z" />
    <glyph glyph-name="uni043D" unicode="&#x43d;" horiz-adv-x="603" 
d="M61 0v524h134v-200h212v200h134v-524h-134v212h-212v-212h-134z" />
    <glyph glyph-name="uni043E" unicode="&#x43e;" horiz-adv-x="606" 
d="M303 -10q-64 0 -115 21.5t-86.5 59.5t-54.5 87t-19 103q0 55 19 104t54.5 87t86.5 59.5t115 21.5t114.5 -21.5t86.5 -59.5t54.5 -87t18.5 -104q0 -54 -18.5 -103t-54 -87t-86.5 -59.5t-115 -21.5zM166 261q0 -46 18 -81.5t49 -55.5t70 -20q38 0 69 20.5t49.5 56
t18.5 81.5q0 45 -18.5 81t-49.5 56t-69 20q-39 0 -70 -20.5t-49 -56t-18 -81.5z" />
    <glyph glyph-name="uni043F" unicode="&#x43f;" horiz-adv-x="592" 
d="M61 0v524h470v-524h-134v407h-202v-407h-134z" />
    <glyph glyph-name="uni0440" unicode="&#x440;" horiz-adv-x="634" 
d="M375 -10q-61 0 -107.5 27.5t-72.5 74.5v-305h-134v737h117v-90q30 46 76 72.5t105 26.5q53 0 97.5 -21t77.5 -58.5t51.5 -86t18.5 -104.5q0 -76 -29.5 -138t-81 -98.5t-118.5 -36.5zM330 104q31 0 56 13t43.5 35.5t28 51t9.5 59.5q0 33 -10.5 61t-30.5 49.5t-46.5 33.5
t-57.5 12q-19 0 -38.5 -6.5t-37.5 -18.5t-31.5 -28t-19.5 -35v-123q12 -29 32.5 -53t47.5 -37.5t55 -13.5z" />
    <glyph glyph-name="uni0441" unicode="&#x441;" horiz-adv-x="564" 
d="M305 -10q-64 0 -115 21.5t-87 60t-55.5 87.5t-19.5 103q0 74 33.5 135.5t95.5 98.5t147 37t146 -37t91 -97l-131 -40q-17 29 -45 44.5t-62 15.5q-38 0 -69.5 -19.5t-49.5 -55t-18 -82.5q0 -46 18.5 -81.5t49.5 -56t69 -20.5q24 0 45.5 8t38.5 22t25 32l131 -40
q-18 -39 -52.5 -70t-81 -48.5t-104.5 -17.5z" />
    <glyph glyph-name="uni0442" unicode="&#x442;" horiz-adv-x="497" 
d="M182 0v407h-166v117h467v-117h-167v-407h-134z" />
    <glyph glyph-name="uni0443" unicode="&#x443;" horiz-adv-x="550" 
d="M139 -226q-21 0 -42.5 5t-49.5 15l26 106q15 -7 28.5 -10t24.5 -3q25 0 44.5 18t31.5 55l16 43l-212 521h139l141 -387l124 387h128l-214 -599q-17 -48 -45 -81.5t-64 -51.5t-76 -18z" />
    <glyph glyph-name="uni0444" unicode="&#x444;" horiz-adv-x="745" 
d="M305 -213v213h-15q-83 0 -141.5 36.5t-89.5 96t-31 128.5q0 71 31.5 130.5t90 95.5t140.5 36h15v207h134v-207h16q82 0 141 -36t90 -95.5t31 -130.5q0 -69 -31 -128.5t-89.5 -96t-141.5 -36.5h-16v-213h-134zM290 107h22v309h-22q-38 0 -67.5 -20t-46.5 -55t-17 -80
t17 -80t46 -54.5t68 -19.5zM433 107h22q39 0 68.5 19.5t46 54.5t16.5 80t-17 80t-46 55t-68 20h-22v-309z" />
    <glyph glyph-name="uni0445" unicode="&#x445;" horiz-adv-x="531" 
d="M147 524l110 -164l8 -18l10 18l109 164h141l-182 -261l185 -263h-141l-113 163l-9 17l-8 -17l-112 -163h-141l185 260l-182 264h140z" />
    <glyph glyph-name="uni0446" unicode="&#x446;" horiz-adv-x="613" 
d="M469 -127v127h-408v524h134v-407h184v407h134v-407h74v-244h-118z" />
    <glyph glyph-name="uni0447" unicode="&#x447;" horiz-adv-x="549" 
d="M353 0v188q-30 -13 -60.5 -19t-69.5 -6q-83 0 -130 44.5t-47 130.5v186h134v-168q0 -47 20.5 -69t63.5 -22q24 0 48 5t41 14v240h135v-524h-135z" />
    <glyph glyph-name="uni0448" unicode="&#x448;" horiz-adv-x="858" 
d="M61 0v524h134v-407h167v407h135v-407h166v407h134v-524h-736z" />
    <glyph glyph-name="uni0449" unicode="&#x449;" horiz-adv-x="897" 
d="M754 -127v127h-693v524h134v-407h167v407h135v-407h166v407h134v-407h74v-244h-117z" />
    <glyph glyph-name="uni044A" unicode="&#x44a;" horiz-adv-x="618" 
d="M153 0v416h-135v108h264v-165h120q94 0 143.5 -48t49.5 -127q0 -53 -21 -95t-62 -65.5t-102 -23.5h-257zM282 102h107q27 0 44.5 11t26 29t8.5 41q0 22 -8 39.5t-25.5 28t-46.5 10.5h-106v-159z" />
    <glyph glyph-name="uni044B" unicode="&#x44b;" horiz-adv-x="760" 
d="M61 0v524h134v-165h92q95 0 145 -48t50 -127q0 -53 -21.5 -95t-62.5 -65.5t-102 -23.5h-235zM195 102h80q28 0 45 11t25.5 29t8.5 41q0 22 -8 39.5t-25.5 28t-46.5 10.5h-79v-159zM564 0v523h134v-523h-134z" />
    <glyph glyph-name="uni044C" unicode="&#x44c;" horiz-adv-x="531" 
d="M61 0v524h134v-165h119q94 0 144 -48t50 -127q0 -53 -21 -95t-62 -65.5t-102 -23.5h-262zM195 102h107q27 0 44.5 11t26 29t8.5 41q0 22 -8 39.5t-25.5 28t-46.5 10.5h-106v-159z" />
    <glyph glyph-name="uni044D" unicode="&#x44d;" horiz-adv-x="576" 
d="M274 -9q-53 0 -99.5 15t-82 44.5t-57.5 69.5l107 50q20 -36 52 -54.5t72 -18.5q37 0 67 16.5t50.5 44.5t26.5 63h-184v87h183q-7 32 -26 59t-48.5 43t-68.5 16t-70 -16t-52 -52l-101 53q31 56 90 89t140 33q67 0 118 -22t86 -60.5t53 -87t18 -100.5q0 -53 -18 -101.5
t-53.5 -87t-86.5 -61t-116 -22.5z" />
    <glyph glyph-name="uni044E" unicode="&#x44e;" horiz-adv-x="826" 
d="M532 -10q-71 0 -124 27.5t-86.5 76t-44.5 109.5h-82v-203h-134v524h134v-204h82q11 62 44.5 110.5t87.5 75.5t123 27q85 0 144 -37t90.5 -98.5t31.5 -136.5t-32 -136.5t-91 -98t-143 -36.5zM532 104q38 0 67 20t45 55t16 82q0 49 -16.5 84.5t-45.5 54.5t-66 19
q-36 0 -64.5 -19.5t-44.5 -55t-16 -83.5t16 -83.5t44.5 -54.5t64.5 -19z" />
    <glyph glyph-name="uni044F" unicode="&#x44f;" horiz-adv-x="561" 
d="M33 0l133 204q-47 13 -74.5 51t-27.5 100q0 52 24 90t66 59.5t97 21.5h249v-526h-134v181h-71l-115 -181h-147zM267 277h99v146h-94q-36 0 -57 -20t-21 -52t18.5 -53t54.5 -21z" />
    <glyph glyph-name="uni0450" unicode="&#x450;" horiz-adv-x="599" 
d="M304 -10q-63 0 -114 21.5t-87 59t-55.5 86t-19.5 102.5q0 75 33.5 137t96 99.5t147.5 37.5q86 0 147 -37.5t93.5 -99t32.5 -132.5q0 -12 -1 -24.5t-2 -20.5h-405q4 -40 23.5 -70t50 -45.5t65.5 -15.5q40 0 75.5 19.5t48.5 51.5l115 -32q-19 -40 -54.5 -71t-83.5 -48.5
t-106 -17.5zM167 304h274q-4 40 -22.5 69.5t-48.5 46t-67 16.5q-36 0 -65.5 -16.5t-48 -46t-22.5 -69.5zM175 731h124l55 -119l-86 -26z" />
    <glyph glyph-name="uni0451" unicode="&#x451;" horiz-adv-x="599" 
d="M304 -10q-63 0 -114 21.5t-87 59t-55.5 86t-19.5 102.5q0 75 33.5 137t96 99.5t147.5 37.5q86 0 147 -37.5t93.5 -99t32.5 -132.5q0 -12 -1 -24.5t-2 -20.5h-405q4 -40 23.5 -70t50 -45.5t65.5 -15.5q40 0 75.5 19.5t48.5 51.5l115 -32q-19 -40 -54.5 -71t-83.5 -48.5
t-106 -17.5zM167 304h274q-4 40 -22.5 69.5t-48.5 46t-67 16.5q-36 0 -65.5 -16.5t-48 -46t-22.5 -69.5zM151 605v119h111v-119h-111zM343 605v119h111v-119h-111z" />
    <glyph glyph-name="uni0452" unicode="&#x452;" horiz-adv-x="615" 
d="M346 -205q-36 0 -63 8.5t-46 21t-30 22.5t-15 14l92 67q6 -5 20 -14.5t34 -9.5q28 0 48.5 13t34.5 41.5t20.5 71.5t6.5 104q0 70 -12 112.5t-38.5 62t-71.5 19.5q-44 0 -73 -24.5t-44 -66.5v-237h-134v527h-78v80h78v123h134v-123h217v-80h-217v-165q29 40 69.5 62
t92.5 22q69 0 116 -30.5t71 -97t24 -175.5q0 -72 -12.5 -135.5t-41 -111t-73.5 -74.5t-109 -27z" />
    <glyph glyph-name="uni0453" unicode="&#x453;" horiz-adv-x="424" 
d="M61 0v524h347v-117h-213v-407h-134zM317 585l-86 26l54 119h125z" />
    <glyph glyph-name="uni0454" unicode="&#x454;" horiz-adv-x="577" 
d="M303 -9q-65 0 -116 22.5t-86.5 61t-54 87t-18.5 101.5q0 52 18 100.5t53 87t87 60.5t118 22q81 0 140 -33t90 -89l-101 -53q-21 36 -52 52t-71 16q-39 0 -68.5 -16t-48.5 -43t-26 -59h184v-87h-184q6 -35 26 -63t50.5 -44.5t67.5 -16.5q40 0 71.5 18.5t52.5 54.5l107 -50
q-32 -61 -95.5 -95t-143.5 -34z" />
    <glyph glyph-name="uni0455" unicode="&#x455;" horiz-adv-x="494" 
d="M254 -10q-67 0 -128 22t-105 65l48 87q47 -38 92.5 -56t87.5 -18q39 0 62.5 14t23.5 42q0 19 -13 29.5t-37.5 18.5t-59.5 18q-58 19 -97 37t-58.5 45.5t-19.5 70.5q0 52 26.5 89.5t74 58.5t111.5 21q56 0 106 -17.5t91 -56.5l-54 -85q-40 31 -76 45.5t-73 14.5
q-21 0 -39.5 -5t-30 -16.5t-11.5 -32.5q0 -19 10.5 -29.5t32 -18.5t52.5 -18q63 -18 106.5 -37t65.5 -46.5t22 -75.5q0 -78 -57 -122t-153 -44z" />
    <glyph glyph-name="uni0456" unicode="&#x456;" horiz-adv-x="255" 
d="M61 0v524h134v-524h-134zM61 597v133h134v-133h-134z" />
    <glyph glyph-name="uni0457" unicode="&#x457;" horiz-adv-x="255" 
d="M61 0v524h134v-524h-134zM-24 605v119h111v-119h-111zM168 605v119h111v-119h-111z" />
    <glyph glyph-name="uni0458" unicode="&#x458;" horiz-adv-x="261" 
d="M18 -196q-37 0 -71 11.5t-62 35.5l58 91q11 -12 27 -17t32 -5q18 0 32.5 8.5t23 23.5t8.5 34v538h134v-528q0 -56 -24.5 -100t-65 -68t-92.5 -24zM66 597v133h134v-133h-134z" />
    <glyph glyph-name="uni0459" unicode="&#x459;" horiz-adv-x="839" 
d="M23 -7v119q24 1 43 12t33.5 37.5t23 74.5t11.5 123l7 165h383v-177h98q94 0 144 -46.5t50 -122.5q0 -52 -21 -92.5t-62.5 -63t-101.5 -22.5h-241v407h-131l-2 -61q-4 -103 -20 -171t-44.5 -107.5t-70.5 -56.5t-99 -18zM524 102h85q28 0 45 10t26 27t9 38q0 20 -8 36.5
t-25.5 26t-46.5 9.5h-85v-147z" />
    <glyph glyph-name="uni045A" unicode="&#x45a;" horiz-adv-x="853" 
d="M61 0v524h134v-196h208v196h132v-177h101q94 0 144 -46.5t50 -122.5q0 -52 -21 -92.5t-62 -63t-102 -22.5h-242v212h-208v-212h-134zM535 102h88q28 0 45.5 10t25.5 27t8 38q0 20 -8 36.5t-25 26t-47 9.5h-87v-147z" />
    <glyph glyph-name="uni045B" unicode="&#x45b;" horiz-adv-x="614" 
d="M65 0v547h-77v80h77v103h134v-103h218v-80h-218v-162q30 40 73 62.5t100 22.5q98 0 139.5 -50.5t41.5 -145.5v-274h-134v240q0 56 -23.5 84t-72.5 28q-46 0 -77 -24t-47 -67v-261h-134z" />
    <glyph glyph-name="uni045C" unicode="&#x45c;" horiz-adv-x="570" 
d="M61 0v524h134v-198h45l142 198h146l-186 -253l206 -271h-153l-157 208h-43v-208h-134zM325 585l-86 26l54 119h125z" />
    <glyph glyph-name="uni045D" unicode="&#x45d;" horiz-adv-x="613" 
d="M61 0v523h134v-344l235 345h122v-524h-134v336l-232 -336h-125zM183 731h124l55 -119l-86 -26z" />
    <glyph glyph-name="uni045E" unicode="&#x45e;" horiz-adv-x="550" 
d="M139 -226q-21 0 -42.5 5t-49.5 15l26 106q15 -7 28.5 -10t24.5 -3q25 0 44.5 18t31.5 55l16 43l-212 521h139l141 -387l124 387h128l-214 -599q-17 -48 -45 -81.5t-64 -51.5t-76 -18zM274 573q-77 0 -121 39.5t-44 101.5h83q0 -30 20 -50t62 -20t60.5 19t22.5 51h83
q0 -62 -44 -101.5t-122 -39.5z" />
    <glyph glyph-name="uni045F" unicode="&#x45f;" horiz-adv-x="591" 
d="M239 -127v127h-178v524h134v-407h201v407h134v-524h-178v-127h-113z" />
    <glyph glyph-name="uni0462" unicode="&#x462;" horiz-adv-x="671" 
d="M10 553v85h409v-85h-409zM115 0v724h138v-268h145q79 0 133.5 -28t83.5 -78.5t29 -119.5q0 -68 -28 -120t-81 -81t-129 -29h-291zM253 112h134q41 0 66.5 16t37.5 42.5t12 59.5q0 29 -11.5 55t-37 42.5t-68.5 16.5h-133v-232z" />
    <glyph glyph-name="uni0463" unicode="&#x463;" horiz-adv-x="558" 
d="M88 0v502h-113v83h113v145h134v-145h170v-83h-170v-143h119q94 0 144 -48t50 -127q0 -53 -21 -95t-62 -65.5t-102 -23.5h-262zM222 102h107q27 0 44.5 11t26 29t8.5 41q0 22 -8 39.5t-25.5 28t-46.5 10.5h-106v-159z" />
    <glyph glyph-name="uni046A" unicode="&#x46a;" horiz-adv-x="1063" 
d="M20 0l274 361l-254 349h983l-254 -349l274 -361h-154l-226 292h-63v-292h-137v292h-63l-226 -292h-154zM403 417h257l151 211h-559z" />
    <glyph glyph-name="uni046B" unicode="&#x46b;" horiz-adv-x="882" 
d="M22 0l204 271l-184 253h800l-186 -253l205 -271h-161l-154 209h-36v-209h-137v209h-35l-154 -209h-162zM348 312h188l102 143h-393z" />
    <glyph glyph-name="uni0472" unicode="&#x472;" horiz-adv-x="762" 
d="M116 320v81h531v-81h-531zM377 -5q-78 0 -141.5 30t-109 81.5t-70.5 116t-25 132.5q0 71 26.5 135.5t73 115t110 80t139.5 29.5q77 0 140.5 -31t108.5 -83t70 -116t25 -132q0 -70 -26 -134.5t-72.5 -115t-110 -79.5t-138.5 -29zM171 355q0 -46 14 -89t40.5 -76.5t65 -53
t87.5 -19.5q50 0 89 20.5t65 55t39.5 77t13.5 86.5q0 46 -14.5 88t-41 75.5t-65 53t-87.5 19.5q-50 0 -88.5 -20.5t-64.5 -54.5t-39.5 -76t-13.5 -86z" />
    <glyph glyph-name="uni0473" unicode="&#x473;" horiz-adv-x="605" 
d="M113 236v57h411v-57h-411zM303 -10q-64 0 -115 21.5t-86.5 59.5t-54.5 87t-19 103q0 55 19 104t54.5 87t86.5 59.5t115 21.5t114.5 -21.5t86.5 -59.5t54.5 -87t18.5 -104q0 -54 -18.5 -103t-54 -87t-86.5 -59.5t-115 -21.5zM166 261q0 -46 18 -81.5t49 -55.5t70 -20
q38 0 69 20.5t49.5 56t18.5 81.5q0 45 -18.5 81t-49.5 56t-69 20q-39 0 -70 -20.5t-49 -56t-18 -81.5z" />
    <glyph glyph-name="uni0474" unicode="&#x474;" horiz-adv-x="724" 
d="M281 0l-279 710h145l192 -531l149 404q23 66 59.5 96.5t106.5 30.5h60v-114h-40q-30 0 -46.5 -13.5t-28.5 -44.5l-212 -538h-106z" />
    <glyph glyph-name="uni0475" unicode="&#x475;" horiz-adv-x="584" 
d="M202 0l-193 524h134l133 -408l99 291q18 61 53 89t99 28h57v-103h-36q-28 0 -43 -12.5t-25 -43.5l-142 -365h-136z" />
    <glyph glyph-name="uni048A" unicode="&#x48a;" horiz-adv-x="796" 
d="M87 0v710h137v-516l344 516h128v-710h-137v510l-340 -510h-132zM392 754q-57 0 -98.5 18.5t-64 51.5t-22.5 74h94q0 -29 21.5 -51.5t69.5 -22.5q47 0 69 21t22 53h95q0 -41 -22.5 -74t-64 -51.5t-99.5 -18.5zM589 -138l51 198l74 -60h-155v121h216l-67 -259h-119z" />
    <glyph glyph-name="uni048B" unicode="&#x48b;" horiz-adv-x="649" 
d="M69 0v523h134v-344l235 345h122v-524h-134v336l-232 -336h-125zM315 573q-77 0 -121 39.5t-44 101.5h83q0 -30 20 -50t62 -20t60.5 19t22.5 51h83q0 -62 -44 -101.5t-122 -39.5zM456 -138l51 198l74 -60h-155v117h215l-66 -255h-119z" />
    <glyph glyph-name="uni048C" unicode="&#x48c;" horiz-adv-x="675" 
d="M21 551v80h379v-80h-379zM118 0v710h138v-263h145q79 0 133.5 -27t83.5 -77t29 -118q0 -66 -28 -117t-81 -79.5t-129 -28.5h-291zM256 112h134q41 0 66.5 16t38 42.5t12.5 59.5q0 29 -11.5 55t-37.5 42.5t-69 16.5h-133v-232z" />
    <glyph glyph-name="uni048D" unicode="&#x48d;" horiz-adv-x="589" 
d="M118 0v730h131v-375h123q94 0 144 -47t50 -124q0 -53 -21.5 -95t-62.5 -65.5t-102 -23.5h-262zM249 100h110q28 0 45 10.5t25.5 29t8.5 41.5q0 22 -8 39.5t-25.5 28t-46.5 10.5h-109v-159zM22 435v89h393v-89h-393z" />
    <glyph glyph-name="uni048E" unicode="&#x48e;" horiz-adv-x="641" 
d="M83 0v710h301q51 0 93.5 -19t74.5 -52t49 -75.5t17 -89.5q0 -64 -28.5 -118t-80 -86t-120.5 -32h-169v-238h-137zM220 350h160q30 0 54 14.5t38 41.5t14 64q0 38 -16.5 65t-41.5 40.5t-53 13.5h-155v-239zM346 424l56 44l194 -247l-56 -44z" />
    <glyph glyph-name="uni048F" unicode="&#x48f;" horiz-adv-x="634" 
d="M381 -10q-61 0 -107.5 27.5t-72.5 74.5v-305h-134v737h117v-90q30 46 76 72.5t105 26.5q54 0 97.5 -21t75 -58.5t49 -86t17.5 -104.5q0 -57 -17 -106.5t-47.5 -87t-71 -58.5t-87.5 -21zM341 95q30 0 55.5 13t43.5 35.5t28 52t10 63.5q0 36 -11 65.5t-30.5 50.5t-46 32.5
t-57.5 11.5q-20 0 -40 -6.5t-38.5 -18.5t-32 -28t-21.5 -35v-123q12 -31 33 -57t48.5 -41t58.5 -15zM348 179l49 45l196 -218l-50 -44z" />
    <glyph glyph-name="uni0490" unicode="&#x490;" horiz-adv-x="536" 
d="M76 0v710h315v156h120v-277h-298v-589h-137z" />
    <glyph glyph-name="uni0491" unicode="&#x491;" horiz-adv-x="424" 
d="M61 0v524h228v127h119v-244h-213v-407h-134z" />
    <glyph glyph-name="uni0492" unicode="&#x492;" horiz-adv-x="560" 
d="M5 287v89h403v-89h-403zM99 0v710h436v-121h-298v-589h-138z" />
    <glyph glyph-name="uni0493" unicode="&#x493;" horiz-adv-x="456" 
d="M14 210v76h350v-76h-350zM93 0v524h348v-117h-214v-407h-134z" />
    <glyph glyph-name="uni0494" unicode="&#x494;" horiz-adv-x="688" 
d="M403 -136q-57 0 -111 17l34 112q15 -6 32 -10t33 -4q50 0 84 34.5t34 111.5q0 71 -33 111t-108 40q-43 0 -79.5 -13t-77.5 -39v120q40 23 86 34.5t94 11.5q123 0 187.5 -71t64.5 -194q0 -127 -64 -194t-176 -67zM74 0v710h436v-121h-298v-589h-138z" />
    <glyph glyph-name="uni0495" unicode="&#x495;" horiz-adv-x="553" 
d="M321 -195q-34 0 -65 8.5t-55 26.5l44 86q14 -8 28.5 -12t28.5 -4q55 0 77.5 38.5t22.5 100.5q0 50 -14 80.5t-38 44.5t-57 14q-29 0 -54.5 -7t-54.5 -21v92q38 20 73.5 29.5t73.5 9.5q57 0 102.5 -26.5t72.5 -77t27 -125.5q0 -76 -24.5 -134.5t-72 -90.5t-115.5 -32z
M61 0v524h347v-117h-213v-407h-134z" />
    <glyph glyph-name="uni0496" unicode="&#x496;" horiz-adv-x="1072" 
d="M939 -135v135h-57v121h175v-256h-118zM20 0l274 368l-254 342h160l207 -286h60v286h137v-286h60l207 286h160l-254 -342l274 -368h-158l-227 299h-62v-299h-137v299h-63l-226 -299h-158z" />
    <glyph glyph-name="uni0497" unicode="&#x497;" horiz-adv-x="872" 
d="M747 -127v127h-59v108h170v-235h-111zM22 0l184 271l-171 253h149l134 -199h41v199h138v-199h44l131 199h150l-171 -253l185 -271h-153l-142 209h-44v-209h-137v209h-42l-144 -209h-152z" />
    <glyph glyph-name="uni0498" unicode="&#x498;" horiz-adv-x="605" 
d="M249 -137v229l114 4v-233h-114zM304 -7q-87 0 -156 35t-109 98l103 64q25 -38 65 -60.5t94 -22.5q64 0 95.5 28t31.5 74q0 30 -13.5 52.5t-40.5 35t-68 12.5h-85v105h86q32 0 54.5 11.5t34 31.5t11.5 46q0 27 -12.5 47t-37 31.5t-62.5 11.5q-54 0 -93 -21.5t-60 -56.5
l-99 70q40 59 102.5 95t155.5 36q74 0 127 -22.5t82.5 -65.5t29.5 -104q0 -49 -23.5 -91.5t-74.5 -65.5q60 -18 92.5 -64t32.5 -107q0 -66 -34.5 -111.5t-93.5 -68.5t-135 -23z" />
    <glyph glyph-name="uni0499" unicode="&#x499;" horiz-adv-x="496" 
d="M248 -8q-84 0 -140 30t-88 83l108 49q17 -26 44.5 -40.5t68.5 -14.5q47 0 72.5 18.5t25.5 48.5q0 28 -21 45t-62 17h-54v83h55q19 0 32.5 7.5t21 20.5t7.5 30q0 25 -19.5 41t-61.5 16q-35 0 -57.5 -13t-37.5 -39l-101 54q28 49 80.5 77t122.5 28q55 0 98.5 -17t68.5 -49
t25 -80q0 -34 -16.5 -66t-53.5 -47q48 -14 72.5 -48t24.5 -80q0 -50 -28 -84.5t-76 -52t-111 -17.5zM231 -201q-27 0 -58 7.5t-62 22.5l34 71q15 -10 30.5 -15.5t32.5 -5.5q26 0 40.5 11.5t14.5 33.5q0 21 -14.5 39.5t-41.5 36.5l45 29q40 -26 66 -56.5t26 -74.5
q0 -42 -28.5 -70.5t-84.5 -28.5z" />
    <glyph glyph-name="uni049A" unicode="&#x49a;" horiz-adv-x="693" 
d="M563 -135v135h-54v121h170v-256h-116zM76 0v710h137v-286h70l211 286h154l-258 -344l278 -366h-167l-220 299h-68v-299h-137z" />
    <glyph glyph-name="uni049B" unicode="&#x49b;" horiz-adv-x="575" 
d="M450 -127v127h-51v108h161v-235h-110zM61 0v524h134v-198h45l142 198h146l-186 -253l206 -271h-153l-157 208h-43v-208h-134z" />
    <glyph glyph-name="uni049C" unicode="&#x49c;" horiz-adv-x="682" 
d="M74 0v710h137v-293h152l167 293h143l-195 -344l214 -366h-150l-177 306h-154v-306h-137zM343 189h-58v336h58v-336z" />
    <glyph glyph-name="uni049D" unicode="&#x49d;" horiz-adv-x="625" 
d="M61 0v524h133v-201h129l119 201h143l-152 -253l171 -271h-147l-134 211h-129v-211h-133zM298 122h-54v289h54v-289z" />
    <glyph glyph-name="uni049E" unicode="&#x49e;" horiz-adv-x="728" 
d="M25 551v80h294v-80h-294zM98 0v710h133v-286h95l211 286h151l-258 -344l278 -366h-164l-221 299h-92v-299h-133z" />
    <glyph glyph-name="uni049F" unicode="&#x49f;" horiz-adv-x="557" 
d="M67 0v730h134v-404h45l142 198h146l-186 -253l206 -271h-153l-157 208h-43v-208h-134zM2 565v80h330v-80h-330z" />
    <glyph glyph-name="uni04A0" unicode="&#x4a0;" horiz-adv-x="750" 
d="M7 596v114h161v-114h-161zM168 0v710h137v-286h70l211 286h154l-258 -344l278 -366h-167l-221 299h-67v-299h-137z" />
    <glyph glyph-name="uni04A1" unicode="&#x4a1;" horiz-adv-x="625" 
d="M7 415v109h134v-109h-134zM141 0v524h134v-198h45l142 198h146l-185 -253l206 -271h-154l-157 208h-43v-208h-134z" />
    <glyph glyph-name="uni04A2" unicode="&#x4a2;" horiz-adv-x="833" 
d="M671 710v-710h-137v303h-322v-303h-138v710h138v-287h322v287h137zM682 -135v135h-108v121h226v-256h-118z" />
    <glyph glyph-name="uni04A3" unicode="&#x4a3;" horiz-adv-x="649" 
d="M61 0v524h134v-200h212v200h134v-524h-134v212h-212v-212h-134zM502 -127v127h-95v117h215v-244h-120z" />
    <glyph glyph-name="uni04A4" unicode="&#x4a4;" horiz-adv-x="993" 
d="M670 589l-137 121h435v-121h-298zM671 710v-710h-137v303h-322v-303h-138v710h138v-287h322v287h137z" />
    <glyph glyph-name="uni04A5" unicode="&#x4a5;" horiz-adv-x="770" 
d="M541 407l-134 117h347v-117h-213zM61 0v524h134v-200h212v200h134v-524h-134v212h-212v-212h-134z" />
    <glyph glyph-name="uni04A6" unicode="&#x4a6;" horiz-adv-x="1112" 
d="M74 0v710h560v-710h-137v589h-285v-589h-138zM826 -136q-57 0 -111 17l29 106q17 -5 33.5 -8t31.5 -3q59 0 92 39.5t33 119.5q0 82 -39 124t-108 42q-38 0 -76 -12t-77 -35v108q40 23 86 34.5t94 11.5q83 0 139 -33.5t85 -94t29 -141.5q0 -137 -64.5 -206t-176.5 -69z
" />
    <glyph glyph-name="uni04A7" unicode="&#x4a7;" horiz-adv-x="900" 
d="M668 -195q-33 0 -64.5 8.5t-55.5 26.5l44 86q14 -8 28.5 -12t28.5 -4q55 0 77.5 44t22.5 115q0 56 -14 89t-38 48.5t-57 15.5q-24 0 -51.5 -8t-57.5 -23v-191h-134v407h-202v-407h-134v524h470v-241q38 21 75.5 31t71.5 10q57 0 103 -26.5t72.5 -78t26.5 -127.5
q0 -85 -24.5 -149.5t-71.5 -101t-116 -36.5z" />
    <glyph glyph-name="uni04A8" unicode="&#x4a8;" horiz-adv-x="1122" 
d="M1090 81q-49 -43 -110 -65t-133 -22q-59 0 -115 12t-101 36q-48 -24 -99 -37t-115 -13q-79 0 -147 25.5t-119.5 74t-80.5 118t-29 157.5q0 72 24.5 137.5t69 116t106 77.5t136.5 23l-27 -119q-49 2 -88 -28t-61 -83t-22 -121q0 -80 31 -139.5t86.5 -91.5t128.5 -32
q21 0 39.5 3t37.5 9q-38 29 -66 70t-42.5 91.5t-14.5 107.5q0 94 40 167t111.5 115t165.5 42q72 0 130.5 -25t99.5 -69t63 -101t22 -122q0 -63 -23.5 -120.5t-71 -102t-119.5 -71.5q15 -2 29.5 -3.5t27.5 -1.5q63 0 109 21t83 53zM570 453q-17 -40 -17.5 -80t16 -76
t49.5 -66q39 -13 78 -10t70 23t45 55q24 58 20.5 101t-25 73.5t-53.5 51.5q-38 22 -73.5 18.5t-64 -27t-45.5 -63.5z" />
    <glyph glyph-name="uni04A9" unicode="&#x4a9;" horiz-adv-x="874" 
d="M853 38q-32 -23 -78.5 -35t-95.5 -12q-43 0 -83 9.5t-71 28.5q-38 -19 -81.5 -28.5t-91.5 -9.5q-90 0 -158.5 34.5t-107 98t-38.5 146.5q0 54 20.5 103.5t57.5 87t87 57.5t110 16l-20 -99q-35 -1 -61.5 -23.5t-41.5 -58t-15 -77.5q0 -49 21 -92t61.5 -69.5t96.5 -26.5
q9 0 18 1t19 2q-45 34 -69.5 84t-24.5 110q0 70 33 124.5t91 85.5t134 31t132.5 -29.5t88 -80.5t31.5 -117q0 -71 -38 -130t-115 -94q6 0 11.5 -0.5t10.5 -0.5q43 0 77.5 12.5t65.5 30.5zM565 419q-41 0 -72 -17t-48 -48.5t-17 -74.5q0 -35 13.5 -68.5t39 -60t60.5 -40.5
q46 11 80.5 35.5t54 59.5t19.5 78q0 47 -18 77.5t-47.5 44.5t-64.5 14z" />
    <glyph glyph-name="uni04AA" unicode="&#x4aa;" horiz-adv-x="686" 
d="M322 -137v136q-65 11 -118.5 45t-91.5 84.5t-59.5 110t-21.5 121.5q0 65 23.5 127.5t68.5 114t110 82t148 30.5q98 0 169.5 -43t106.5 -112l-106 -73q-18 40 -47 63.5t-62 33t-65 9.5q-52 0 -90.5 -21t-64.5 -55t-38.5 -76t-12.5 -84q0 -47 15 -90.5t42.5 -77t66 -53
t84.5 -19.5q33 0 67 11t63 35t45 62l113 -65q-18 -44 -53.5 -76.5t-82 -53.5t-95.5 -29v-137h-114z" />
    <glyph glyph-name="uni04AB" unicode="&#x4ab;" horiz-adv-x="564" 
d="M244 -127v123q-67 13 -115.5 52t-74.5 95t-26 119q0 74 33.5 135.5t95.5 98.5t147 37t146 -37t91 -97l-131 -40q-17 29 -45 44.5t-62 15.5q-38 0 -69.5 -19.5t-49.5 -55t-18 -82.5q0 -46 18.5 -81.5t49.5 -56t69 -20.5q24 0 45.5 8t38.5 22t25 32l131 -40
q-15 -33 -41.5 -60.5t-63 -45.5t-80.5 -25v-122h-114z" />
    <glyph glyph-name="uni04AC" unicode="&#x4ac;" horiz-adv-x="619" 
d="M605 589h-227v-589h-137v589h-227v121h591v-121zM395 -135v135h-108v121h226v-256h-118z" />
    <glyph glyph-name="uni04AD" unicode="&#x4ad;" horiz-adv-x="497" 
d="M182 0v407h-166v117h467v-117h-167v-407h-134zM277 -127v127h-95v117h215v-244h-120z" />
    <glyph glyph-name="Ustraitcy" unicode="&#x4ae;" horiz-adv-x="660" 
d="M154 710l175 -334l178 334h149l-258 -462v-248h-137v250l-257 460h150z" />
    <glyph glyph-name="ustraitcy" unicode="&#x4af;" horiz-adv-x="550" 
d="M208 -213v214l-199 523h139l133 -415l134 415h126l-199 -523v-214h-134z" />
    <glyph glyph-name="Ustraitstrokecy" unicode="&#x4b0;" horiz-adv-x="644" 
d="M253 0v149h-159v87h159v14l-256 460h148l176 -342l178 342h150l-260 -462v-12h159v-87h-159v-149h-136z" />
    <glyph glyph-name="ustraitstrokecy" unicode="&#x4b1;" horiz-adv-x="546" 
d="M214 -213v153h-122v60h122v1l-199 523h134l134 -426l136 426h128l-199 -523v-1h118v-60h-118v-153h-134z" />
    <glyph glyph-name="uni04B2" unicode="&#x4b2;" horiz-adv-x="716" 
d="M567 -135v135h-54v121h170v-256h-116zM170 710l176 -262l175 262h151l-247 -360l239 -350h-151l-167 252l-168 -252h-151l238 350l-246 360h151z" />
    <glyph glyph-name="uni04B3" unicode="&#x4b3;" horiz-adv-x="575" 
d="M438 -127v127h-40v108h150v-235h-110zM152 524l109 -164l9 -18l9 18l110 164h140l-182 -261l185 -263h-141l-112 163l-9 17l-8 -17l-113 -163h-141l185 260l-182 264h141z" />
    <glyph glyph-name="uni04B4" unicode="&#x4b4;" horiz-adv-x="908" 
d="M549 589h-176h-138h-221v121h535v-121zM754 -135v135h-519v710h138v-589h271v589h137v-589h94v-256h-121z" />
    <glyph glyph-name="uni04B5" unicode="&#x4b5;" horiz-adv-x="723" 
d="M182 407h-166v117h413v-117h-117h-130zM580 -127v127h-398v524h130v-407h182v407h129v-407h74v-244h-117z" />
    <glyph glyph-name="uni04B6" unicode="&#x4b6;" horiz-adv-x="759" 
d="M468 0v277q-11 -5 -32 -13t-53 -14t-75 -6q-124 0 -186 55t-62 176v235h134v-220q0 -63 32.5 -92.5t111.5 -29.5q35 0 70 7.5t60 19.5v315h134v-710h-134zM608 -135v135h-108v121h226v-256h-118z" />
    <glyph glyph-name="uni04B7" unicode="&#x4b7;" horiz-adv-x="577" 
d="M353 0v188q-30 -13 -60.5 -19t-69.5 -6q-83 0 -130 44.5t-47 130.5v186h134v-168q0 -47 20.5 -69t63.5 -22q24 0 48 5t41 14v240h135v-524h-135zM431 -127v127h-95v117h215v-244h-120z" />
    <glyph glyph-name="uni04B8" unicode="&#x4b8;" horiz-adv-x="676" 
d="M468 0v277q-11 -5 -32 -13t-53 -14t-75 -6q-124 0 -186 55t-62 176v235h134v-220q0 -63 32.5 -92.5t111.5 -29.5q35 0 70 7.5t60 19.5v315h134v-710h-134zM359 150h-58v336h58v-336z" />
    <glyph glyph-name="uni04B9" unicode="&#x4b9;" horiz-adv-x="567" 
d="M371 0v188q-30 -13 -60.5 -19t-69.5 -6q-91 0 -143 44.5t-52 130.5v186h134v-168q0 -47 23 -69t79 -22q24 0 48 5t41 14v240h135v-524h-135zM305 82h-54v289h54v-289z" />
    <glyph glyph-name="uni04BA" unicode="&#x4ba;" horiz-adv-x="676" 
d="M208 710v-277q11 5 32 13t53 14t75 6q125 0 186 -55t61 -176v-235h-133v220q0 63 -32 92.5t-112 29.5q-35 0 -70 -7.5t-60 -19.5v-315h-134v710h134z" />
    <glyph glyph-name="uni04BB" unicode="&#x4bb;" horiz-adv-x="604" 
d="M548 0h-134v294q0 61 -23.5 91t-64.5 30q-24 0 -51 -14t-48.5 -38.5t-31.5 -56.5v-306h-134v730h134v-303q29 50 79 78t109 28q51 0 83 -17.5t50 -47t25 -66t7 -75.5v-327z" />
    <glyph glyph-name="uni04BC" unicode="&#x4bc;" horiz-adv-x="892" 
d="M24 452q0 28 12.5 56.5t38.5 58.5l76 -21q-18 -23 -26 -43.5t-8 -37.5q0 -27 19 -42t58 -15h161v-99h-120q-101 0 -156 38t-55 105zM518 715q77 0 140 -29.5t108 -79.5t69.5 -112.5t24.5 -127.5q0 -16 -1.5 -31.5t-3.5 -25.5h-527q4 -43 21 -78.5t44 -60.5t60 -38.5
t69 -13.5q39 0 74 13.5t61 38.5t36 57l129 -47q-26 -55 -72.5 -96.5t-106.5 -65t-127 -23.5q-76 0 -138 30t-106.5 81t-68 115.5t-23.5 135.5q0 69 24 133.5t68.5 115t107 80t138.5 29.5zM519 596q-52 0 -93.5 -24t-66.5 -66.5t-30 -97.5h387q-5 54 -31.5 97t-69.5 67
t-96 24z" />
    <glyph glyph-name="uni04BD" unicode="&#x4bd;" horiz-adv-x="686" 
d="M12 343q0 21 10.5 45.5t32.5 47.5l55 -19q-11 -17 -16.5 -32t-5.5 -28q0 -26 19.5 -41.5t49.5 -15.5h143v-81h-118q-79 0 -124.5 34.5t-45.5 89.5zM400 -10q-57 0 -104 21.5t-81.5 59t-53 86t-18.5 102.5q0 56 18.5 105.5t52.5 87.5t81.5 59.5t105.5 21.5q83 0 142 -37.5
t90.5 -99t31.5 -132.5q0 -12 -1 -24.5t-3 -20.5h-395q3 -40 24 -70t52.5 -45.5t64.5 -15.5q40 0 74.5 19.5t47.5 51.5l110 -32q-18 -40 -53 -71t-82 -48.5t-104 -17.5zM262 300h279q-3 41 -22 71.5t-48.5 47.5t-66.5 17q-36 0 -67 -17t-51 -47.5t-24 -71.5z" />
    <glyph glyph-name="uni04BE" unicode="&#x4be;" horiz-adv-x="903" 
d="M440 -135v135l119 88v-223h-119zM36 452q0 28 12 56.5t38 58.5l77 -21q-18 -23 -26.5 -43.5t-8.5 -37.5q0 -27 19.5 -42t57.5 -15h162v-99h-120q-101 0 -156 38t-55 105zM529 715q78 0 141 -29.5t108 -79.5t69 -112.5t24 -127.5q0 -16 -1 -31.5t-3 -25.5h-528
q4 -43 21.5 -78.5t44 -60.5t59.5 -38.5t70 -13.5q39 0 74 13.5t60.5 38.5t35.5 57l129 -47q-26 -55 -72.5 -96.5t-106.5 -65t-126 -23.5q-77 0 -138.5 30t-106 81t-68.5 115.5t-24 135.5q0 69 24 133.5t69 115t107 80t138 29.5zM530 596q-52 0 -93 -24t-66.5 -66.5
t-30.5 -97.5h387q-4 54 -30.5 97t-69.5 67t-97 24z" />
    <glyph glyph-name="uni04BF" unicode="&#x4bf;" horiz-adv-x="691" 
d="M338 -127v127l120 41v-168h-120zM17 343q0 21 10.5 45.5t32.5 47.5l55 -19q-11 -17 -16.5 -32t-5.5 -28q0 -26 19.5 -41.5t49.5 -15.5h143v-81h-118q-79 0 -124.5 34.5t-45.5 89.5zM405 -10q-57 0 -104 21.5t-81.5 59t-53 86t-18.5 102.5q0 56 18.5 105.5t52.5 87.5
t81.5 59.5t105.5 21.5q83 0 142 -37.5t90.5 -99t31.5 -132.5q0 -12 -1 -24.5t-3 -20.5h-395q3 -40 24 -70t52.5 -45.5t64.5 -15.5q40 0 74.5 19.5t47.5 51.5l110 -32q-18 -40 -53 -71t-82 -48.5t-104 -17.5zM267 300h279q-3 41 -22 71.5t-48.5 47.5t-66.5 17q-36 0 -67 -17
t-51 -47.5t-24 -71.5z" />
    <glyph glyph-name="uni04C0" unicode="&#x4c0;" horiz-adv-x="286" 
d="M74 0v710h138v-710h-138z" />
    <glyph glyph-name="uni04C1" unicode="&#x4c1;" horiz-adv-x="1071" 
d="M20 0l274 368l-254 342h160l207 -286h60v286h137v-286h60l207 286h160l-254 -342l274 -368h-158l-227 299h-62v-299h-137v299h-63l-226 -299h-158zM535 759q-77 0 -121 39.5t-44 101.5h83q0 -30 20 -50t62 -20t60.5 19t22.5 51h83q0 -62 -44 -101.5t-122 -39.5z" />
    <glyph glyph-name="uni04C2" unicode="&#x4c2;" horiz-adv-x="856" 
d="M22 0l184 271l-171 253h149l134 -199h41v199h138v-199h44l131 199h150l-171 -253l185 -271h-153l-142 209h-44v-209h-137v209h-42l-144 -209h-152zM428 573q-77 0 -121 39.5t-44 101.5h83q0 -30 20 -50t62 -20t60.5 19t22.5 51h83q0 -62 -44 -101.5t-122 -39.5z" />
    <glyph glyph-name="uni04C3" unicode="&#x4c3;" horiz-adv-x="686" 
d="M435 -217q-26 0 -53 5.5t-55 17.5l32 104q14 -5 27 -8t24 -3q29 0 51 17t34 51t12 85q0 50 -18.5 95t-50.5 79t-72.5 53.5t-83.5 19.5h-62v-299h-137v710h137v-286h46h12h12l211 286h154l-244 -319q67 -26 119 -76.5t82.5 -118t30.5 -144.5q0 -85 -27.5 -145.5t-74.5 -92
t-106 -31.5z" />
    <glyph glyph-name="uni04C4" unicode="&#x4c4;" horiz-adv-x="555" 
d="M359 298q52 -21 89.5 -61.5t58.5 -95t21 -120.5q0 -71 -23 -123.5t-63.5 -81t-94.5 -28.5q-26 0 -51.5 6.5t-48.5 16.5l31 99q27 -10 46 -10q38 0 56 30.5t18 83.5q0 60 -20 103.5t-53.5 67t-73.5 23.5h-56v-208h-134v524h134v-198h33h8h7l139 198h146z" />
    <glyph glyph-name="uni04C5" unicode="&#x4c5;" horiz-adv-x="762" 
d="M527 0v589h-208l-4 -120q-5 -141 -23 -233t-52 -144.5t-85.5 -74t-123.5 -21.5v119q37 0 64 16t45.5 58t29.5 119t15 199l7 203h472v-710h-137zM557 -138l51 198l74 -60h-155v121h216l-67 -259h-119z" />
    <glyph glyph-name="uni04C6" unicode="&#x4c6;" horiz-adv-x="623" 
d="M23 -7v119q24 1 43 12t33.5 37.5t23 74.5t11.5 123l7 165h393v-524h-134v407h-141l-2 -61q-4 -103 -20 -171t-44.5 -107.5t-70.5 -56.5t-99 -18zM429 -138l51 198l74 -60h-155v117h215l-66 -255h-119z" />
    <glyph glyph-name="uni04C7" unicode="&#x4c7;" horiz-adv-x="764" 
d="M671 710v-710h-137v303h-322v-303h-138v710h138v-287h322v287h137zM487 -220q-28 0 -57.5 6.5t-60.5 19.5l32 104q16 -6 30 -9t26 -3q30 0 48 15.5t26.5 45.5t8.5 72v90h137v-121q0 -68 -24 -117.5t-66.5 -76t-99.5 -26.5z" />
    <glyph glyph-name="uni04C8" unicode="&#x4c8;" horiz-adv-x="603" 
d="M61 0v524h134v-200h212v200h134v-524h-134v212h-212v-212h-134zM358 -213q-24 0 -51 6t-56 18l32 99q12 -4 22.5 -6t20.5 -2q39 0 60.5 30t21.5 88v97h134v-117q0 -105 -52 -159t-132 -54z" />
    <glyph glyph-name="uni04C9" unicode="&#x4c9;" horiz-adv-x="805" 
d="M681 710v-710h-137v303h-322v-303h-138v710h138v-287h322v287h137zM614 -138l51 198l74 -60h-155v121h216l-67 -259h-119z" />
    <glyph glyph-name="uni04CA" unicode="&#x4ca;" horiz-adv-x="639" 
d="M69 0v524h134v-200h212v200h134v-524h-134v212h-212v-212h-134zM445 -138l51 198l74 -60h-155v117h215l-66 -255h-119z" />
    <glyph glyph-name="uni04CB" unicode="&#x4cb;" horiz-adv-x="676" 
d="M468 0v295q-11 -5 -32.5 -13t-54.5 -14t-77 -6q-122 0 -183 55t-61 176v217h134v-202q0 -63 32.5 -92.5t107.5 -29.5q36 0 72 7.5t62 19.5v297h134v-710h-134zM471 -135h-118v229h191v-94h-73v-135z" />
    <glyph glyph-name="uni04CC" unicode="&#x4cc;" horiz-adv-x="538" 
d="M269 -127v190h77v144q-28 -11 -57 -17.5t-59 -6.5q-56 0 -97.5 22t-64 63.5t-22.5 96.5v159h127v-141q0 -50 21 -74t68 -24q22 0 44.5 5.5t39.5 15.5v218h131v-524h-94v-127h-114z" />
    <glyph glyph-name="uni04CD" unicode="&#x4cd;" horiz-adv-x="898" 
d="M663 0v466l-182 -347h-77l-182 347v-466h-138v710h148l210 -404l212 404h147v-710h-138zM693 -138l51 198l74 -60h-155v121h216l-67 -259h-119z" />
    <glyph glyph-name="uni04CE" unicode="&#x4ce;" horiz-adv-x="770" 
d="M69 0v524h140l164 -303l165 303h138v-524h-127v339l-134 -246h-84l-135 246v-339h-127zM579 -138l51 198l74 -60h-155v117h215l-66 -255h-119z" />
    <glyph glyph-name="uni04CF" unicode="&#x4cf;" horiz-adv-x="255" 
d="M61 0v524h134v-524h-134z" />
    <glyph glyph-name="uni04D0" unicode="&#x4d0;" horiz-adv-x="672" 
d="M267 710h140l261 -710h-142l-66 177h-248l-65 -177h-142zM435 274l-98 293l-102 -293h200zM336 759q-77 0 -121 39.5t-44 101.5h83q0 -30 20 -50t62 -20t60.5 19t22.5 51h83q0 -62 -44 -101.5t-122 -39.5z" />
    <glyph glyph-name="uni04D1" unicode="&#x4d1;" horiz-adv-x="574" 
d="M25 155q0 51 28.5 89.5t79.5 59.5t117 21q33 0 67 -5t59 -16v28q0 50 -29.5 77t-87.5 27q-43 0 -82 -15t-82 -44l-43 88q52 34 106.5 51t114.5 17q112 0 174.5 -56t62.5 -160v-167q0 -21 7.5 -30t24.5 -11v-109q-18 -3 -32.5 -5t-24.5 -2q-40 0 -60.5 18t-25.5 44l-3 27
q-34 -44 -85 -68t-104 -24q-52 0 -93.5 21.5t-65 59t-23.5 84.5zM351 128q11 12 18 24t7 22v53q-24 10 -52 15.5t-53 5.5q-52 0 -85.5 -22.5t-33.5 -59.5q0 -20 11 -38t32 -29t50 -11q30 0 59 11.5t47 28.5zM287 573q-77 0 -121 39.5t-44 101.5h83q0 -30 20 -50t62 -20
t60.5 19t22.5 51h83q0 -62 -44 -101.5t-122 -39.5z" />
    <glyph glyph-name="uni04D2" unicode="&#x4d2;" horiz-adv-x="672" 
d="M267 710h140l261 -710h-142l-66 177h-248l-65 -177h-142zM435 274l-98 293l-102 -293h200zM185 791v119h111v-119h-111zM377 791v119h111v-119h-111z" />
    <glyph glyph-name="uni04D3" unicode="&#x4d3;" horiz-adv-x="574" 
d="M25 155q0 51 28.5 89.5t79.5 59.5t117 21q33 0 67 -5t59 -16v28q0 50 -29.5 77t-87.5 27q-43 0 -82 -15t-82 -44l-43 88q52 34 106.5 51t114.5 17q112 0 174.5 -56t62.5 -160v-167q0 -21 7.5 -30t24.5 -11v-109q-18 -3 -32.5 -5t-24.5 -2q-40 0 -60.5 18t-25.5 44l-3 27
q-34 -44 -85 -68t-104 -24q-52 0 -93.5 21.5t-65 59t-23.5 84.5zM351 128q11 12 18 24t7 22v53q-24 10 -52 15.5t-53 5.5q-52 0 -85.5 -22.5t-33.5 -59.5q0 -20 11 -38t32 -29t50 -11q30 0 59 11.5t47 28.5zM136 605v119h111v-119h-111zM328 605v119h111v-119h-111z" />
    <glyph glyph-name="uni04D4" unicode="&#x4d4;" horiz-adv-x="966" 
d="M418 710h505v-121h-333v-167h279v-121h-279v-180h342v-121h-478v177h-228l-105 -177h-146zM444 297v258l-159 -258h159z" />
    <glyph glyph-name="uni04D5" unicode="&#x4d5;" horiz-adv-x="937" 
d="M204 -10q-51 0 -91.5 21.5t-64 59.5t-23.5 85q0 50 28.5 88t79 59.5t115.5 21.5q32 0 63 -5t55 -15q1 11 3 22.5t5 21.5q-4 44 -33 67.5t-82 23.5q-42 0 -82 -15t-83 -44l-41 85q104 67 219 67q62 0 108 -19t75 -55q33 34 80.5 54t105.5 20q85 0 146.5 -37.5t95 -99
t33.5 -134.5q0 -10 -1 -22.5t-2 -20.5h-410q3 -40 23.5 -70t52 -45.5t68.5 -15.5q40 0 75.5 19.5t48.5 51.5l115 -32q-19 -40 -54.5 -71t-83.5 -48.5t-106 -17.5q-74 0 -131.5 29.5t-93.5 78.5q-23 -38 -59.5 -62t-77 -35t-76.5 -11zM242 88q33 0 64 12t48 32q21 17 22 36
q-4 13 -6.5 31.5t-3.5 33.5q-22 8 -47.5 12.5t-48.5 4.5q-52 0 -85.5 -23t-33.5 -60q0 -22 12 -40.5t32.5 -28.5t46.5 -10zM778 302q-4 40 -22.5 70t-48.5 47t-68 17t-68.5 -17t-48.5 -47t-21 -70h277z" />
    <glyph glyph-name="uni04D6" unicode="&#x4d6;" horiz-adv-x="601" 
d="M567 121v-121h-493v710h484v-121h-346v-171h299v-112h-299v-185h355zM325 758q-77 0 -121 39.5t-44 101.5h83q0 -30 20 -50t62 -20t60.5 19t22.5 51h83q0 -62 -44 -101.5t-122 -39.5z" />
    <glyph glyph-name="uni04D7" unicode="&#x4d7;" horiz-adv-x="599" 
d="M304 -10q-63 0 -114 21.5t-87 59t-55.5 86t-19.5 102.5q0 75 33.5 137t96 99.5t147.5 37.5q86 0 147 -37.5t93.5 -99t32.5 -132.5q0 -12 -1 -24.5t-2 -20.5h-405q4 -40 23.5 -70t50 -45.5t65.5 -15.5q40 0 75.5 19.5t48.5 51.5l115 -32q-19 -40 -54.5 -71t-83.5 -48.5
t-106 -17.5zM167 304h274q-4 40 -22.5 69.5t-48.5 46t-67 16.5q-36 0 -65.5 -16.5t-48 -46t-22.5 -69.5zM302 573q-77 0 -121 39.5t-44 101.5h83q0 -30 20 -50t62 -20t60.5 19t22.5 51h83q0 -62 -44 -101.5t-122 -39.5z" />
    <glyph glyph-name="uni04D8" unicode="&#x4d8;" horiz-adv-x="746" 
d="M369 -5q-79 0 -142.5 29.5t-110 79.5t-71.5 112.5t-25 127.5q0 16 1.5 31.5t3.5 25.5h539q-4 43 -21.5 78.5t-44.5 60.5t-60.5 38.5t-70.5 13.5q-38 0 -72.5 -13.5t-60 -38t-35.5 -57.5l-139 47q27 56 73 97t107 64.5t131 23.5q77 0 139.5 -30t108.5 -80.5t70.5 -114
t24.5 -131.5q0 -72 -24.5 -137.5t-70 -116t-108.5 -80.5t-142 -30zM371 116q52 0 93.5 22.5t67.5 62.5t30 92h-391q5 -51 32.5 -91t71 -63t96.5 -23z" />
    <glyph glyph-name="uni04D9" unicode="&#x4d9;" horiz-adv-x="599" 
d="M297 -10q-86 0 -147.5 37.5t-94.5 99.5t-34 134q0 10 1 22.5t2 20.5h405q-3 41 -23 70.5t-50 45t-65 15.5q-41 0 -76.5 -19.5t-48.5 -51.5l-114 32q19 40 54 71t83 48.5t106 17.5q64 0 115 -21.5t86.5 -58.5t55 -86t19.5 -104q0 -74 -33 -136t-94.5 -99.5t-146.5 -37.5z
M298 87q37 0 65.5 17t47 47t21.5 70h-272q3 -40 22.5 -70t49.5 -47t66 -17z" />
    <glyph glyph-name="uni04DA" unicode="&#x4da;" horiz-adv-x="746" 
d="M369 -5q-79 0 -142.5 29.5t-110 79.5t-71.5 112.5t-25 127.5q0 16 1.5 31.5t3.5 25.5h539q-4 43 -21.5 78.5t-44.5 60.5t-60.5 38.5t-70.5 13.5q-38 0 -72.5 -13.5t-60 -38t-35.5 -57.5l-139 47q27 56 73 97t107 64.5t131 23.5q77 0 139.5 -30t108.5 -80.5t70.5 -114
t24.5 -131.5q0 -72 -24.5 -137.5t-70 -116t-108.5 -80.5t-142 -30zM371 116q52 0 93.5 22.5t67.5 62.5t30 92h-391q5 -51 32.5 -91t71 -63t96.5 -23zM221 791v119h111v-119h-111zM413 791v119h111v-119h-111z" />
    <glyph glyph-name="uni04DB" unicode="&#x4db;" horiz-adv-x="599" 
d="M297 -10q-86 0 -147.5 37.5t-94.5 99.5t-34 134q0 10 1 22.5t2 20.5h405q-3 41 -23 70.5t-50 45t-65 15.5q-41 0 -76.5 -19.5t-48.5 -51.5l-114 32q19 40 54 71t83 48.5t106 17.5q64 0 115 -21.5t86.5 -58.5t55 -86t19.5 -104q0 -74 -33 -136t-94.5 -99.5t-146.5 -37.5z
M298 87q37 0 65.5 17t47 47t21.5 70h-272q3 -40 22.5 -70t49.5 -47t66 -17zM148 605v119h111v-119h-111zM340 605v119h111v-119h-111z" />
    <glyph glyph-name="uni04DC" unicode="&#x4dc;" horiz-adv-x="1071" 
d="M20 0l274 368l-254 342h160l207 -286h60v286h137v-286h60l207 286h160l-254 -342l274 -368h-158l-227 299h-62v-299h-137v299h-63l-226 -299h-158zM384 791v119h111v-119h-111zM576 791v119h111v-119h-111z" />
    <glyph glyph-name="uni04DD" unicode="&#x4dd;" horiz-adv-x="856" 
d="M22 0l184 271l-171 253h149l134 -199h41v199h138v-199h44l131 199h150l-171 -253l185 -271h-153l-142 209h-44v-209h-137v209h-42l-144 -209h-152zM277 605v119h111v-119h-111zM469 605v119h111v-119h-111z" />
    <glyph glyph-name="uni04DE" unicode="&#x4de;" horiz-adv-x="605" 
d="M304 -7q-87 0 -156 35t-109 98l103 64q25 -38 65 -60.5t94 -22.5q64 0 95.5 28t31.5 74q0 30 -13.5 52.5t-40.5 35t-68 12.5h-85v105h86q32 0 54.5 11.5t34 31.5t11.5 46q0 27 -12.5 47t-37 31.5t-62.5 11.5q-54 0 -93 -21.5t-60 -56.5l-99 70q40 59 102.5 95t155.5 36
q74 0 127 -22.5t82.5 -65.5t29.5 -104q0 -49 -23.5 -91.5t-74.5 -65.5q60 -18 92.5 -64t32.5 -107q0 -66 -34.5 -111.5t-93.5 -68.5t-135 -23zM156 791v119h111v-119h-111zM348 791v119h111v-119h-111z" />
    <glyph glyph-name="uni04DF" unicode="&#x4df;" horiz-adv-x="496" 
d="M248 -8q-84 0 -140 30t-88 83l108 49q17 -26 44.5 -40.5t68.5 -14.5q47 0 72.5 18.5t25.5 48.5q0 28 -21 45t-62 17h-54v83h55q19 0 32.5 7.5t21 20.5t7.5 30q0 25 -19.5 41t-61.5 16q-35 0 -57.5 -13t-37.5 -39l-101 54q28 49 80.5 77t122.5 28q55 0 98.5 -17t68.5 -49
t25 -80q0 -34 -16.5 -66t-53.5 -47q48 -14 72.5 -48t24.5 -80q0 -50 -28 -84.5t-76 -52t-111 -17.5zM91 605v119h111v-119h-111zM283 605v119h111v-119h-111z" />
    <glyph glyph-name="uni04E0" unicode="&#x4e0;" horiz-adv-x="608" 
d="M301 440q78 0 130 -19t82 -50t43.5 -68.5t13.5 -75.5q0 -72 -34 -124.5t-92.5 -81t-135.5 -28.5q-90 0 -161 35t-111 98l104 64q24 -38 66 -60.5t98 -22.5q42 0 70.5 15t43 42t14.5 63q0 52 -33.5 84.5t-106.5 32.5h-80v96h89zM212 440l157 149h-287v121h453v-104
l-262 -238z" />
    <glyph glyph-name="uni04E1" unicode="&#x4e1;" horiz-adv-x="505" 
d="M222 -221q-79 0 -144 32t-103 93l82 70q29 -41 68.5 -64.5t90.5 -23.5q45 0 77.5 15.5t49.5 44.5t17 69q0 62 -44 95t-122 33h-66v92l176 178h-291v111h443v-94l-201 -198h9q106 -11 162.5 -69t56.5 -147q0 -58 -21 -102.5t-57.5 -74.5t-83 -45t-99.5 -15z" />
    <glyph glyph-name="uni04E2" unicode="&#x4e2;" horiz-adv-x="767" 
d="M79 0v710h137v-516l344 516h128v-710h-137v510l-340 -510h-132zM235 819v83h300v-83h-300z" />
    <glyph glyph-name="uni04E3" unicode="&#x4e3;" horiz-adv-x="613" 
d="M61 0v523h134v-344l235 345h122v-524h-134v336l-232 -336h-125zM159 633v83h300v-83h-300z" />
    <glyph glyph-name="uni04E4" unicode="&#x4e4;" horiz-adv-x="767" 
d="M79 0v710h137v-516l344 516h128v-710h-137v510l-340 -510h-132zM232 791v119h111v-119h-111zM424 791v119h111v-119h-111z" />
    <glyph glyph-name="uni04E5" unicode="&#x4e5;" horiz-adv-x="613" 
d="M61 0v523h134v-344l235 345h122v-524h-134v336l-232 -336h-125zM156 605v119h111v-119h-111zM348 605v119h111v-119h-111z" />
    <glyph glyph-name="uni04E6" unicode="&#x4e6;" horiz-adv-x="756" 
d="M377 -5q-78 0 -141.5 30t-109 81.5t-70.5 116t-25 132.5q0 71 26.5 135.5t73 115t110 80t139.5 29.5q77 0 140.5 -31t108.5 -83t70 -116t25 -132q0 -70 -26 -134.5t-72.5 -115t-110 -79.5t-138.5 -29zM171 355q0 -46 14 -89t40.5 -76.5t65 -53t87.5 -19.5q50 0 89 20.5
t65 55t39.5 77t13.5 85.5q0 46 -14.5 88.5t-41 76t-65 53t-86.5 19.5q-51 0 -89.5 -20.5t-64.5 -54.5t-39.5 -76t-13.5 -86zM228 790v119h111v-119h-111zM420 790v119h111v-119h-111z" />
    <glyph glyph-name="uni04E7" unicode="&#x4e7;" horiz-adv-x="606" 
d="M303 -10q-64 0 -115 21.5t-86.5 59.5t-54.5 87t-19 103q0 55 19 104t54.5 87t86.5 59.5t115 21.5t114.5 -21.5t86.5 -59.5t54.5 -87t18.5 -104q0 -54 -18.5 -103t-54 -87t-86.5 -59.5t-115 -21.5zM166 261q0 -46 18 -81.5t49 -55.5t70 -20q38 0 69 20.5t49.5 56
t18.5 81.5q0 45 -18.5 81t-49.5 56t-69 20q-39 0 -70 -20.5t-49 -56t-18 -81.5zM151 605v119h111v-119h-111zM343 605v119h111v-119h-111z" />
    <glyph glyph-name="uni04E8" unicode="&#x4e8;" horiz-adv-x="762" 
d="M116 320v81h531v-81h-531zM377 -5q-78 0 -141.5 30t-109 81.5t-70.5 116t-25 132.5q0 71 26.5 135.5t73 115t110 80t139.5 29.5q77 0 140.5 -31t108.5 -83t70 -116t25 -132q0 -70 -26 -134.5t-72.5 -115t-110 -79.5t-138.5 -29zM171 355q0 -46 14 -89t40.5 -76.5t65 -53
t87.5 -19.5q50 0 89 20.5t65 55t39.5 77t13.5 86.5q0 46 -14.5 88t-41 75.5t-65 53t-87.5 19.5q-50 0 -88.5 -20.5t-64.5 -54.5t-39.5 -76t-13.5 -86z" />
    <glyph glyph-name="uni04E9" unicode="&#x4e9;" horiz-adv-x="605" 
d="M113 236v57h411v-57h-411zM303 -10q-64 0 -115 21.5t-86.5 59.5t-54.5 87t-19 103q0 55 19 104t54.5 87t86.5 59.5t115 21.5t114.5 -21.5t86.5 -59.5t54.5 -87t18.5 -104q0 -54 -18.5 -103t-54 -87t-86.5 -59.5t-115 -21.5zM166 261q0 -46 18 -81.5t49 -55.5t70 -20
q38 0 69 20.5t49.5 56t18.5 81.5q0 45 -18.5 81t-49.5 56t-69 20q-39 0 -70 -20.5t-49 -56t-18 -81.5z" />
    <glyph glyph-name="uni04EA" unicode="&#x4ea;" horiz-adv-x="762" 
d="M116 320v81h531v-81h-531zM377 -5q-78 0 -141.5 30t-109 81.5t-70.5 116t-25 132.5q0 71 26.5 135.5t73 115t110 80t139.5 29.5q77 0 140.5 -31t108.5 -83t70 -116t25 -132q0 -70 -26 -134.5t-72.5 -115t-110 -79.5t-138.5 -29zM171 355q0 -46 14 -89t40.5 -76.5t65 -53
t87.5 -19.5q50 0 89 20.5t65 55t39.5 77t13.5 86.5q0 46 -14.5 88t-41 75.5t-65 53t-87.5 19.5q-50 0 -88.5 -20.5t-64.5 -54.5t-39.5 -76t-13.5 -86zM228 790v119h111v-119h-111zM420 790v119h111v-119h-111z" />
    <glyph glyph-name="uni04EB" unicode="&#x4eb;" horiz-adv-x="605" 
d="M113 236v57h411v-57h-411zM303 -10q-64 0 -115 21.5t-86.5 59.5t-54.5 87t-19 103q0 55 19 104t54.5 87t86.5 59.5t115 21.5t114.5 -21.5t86.5 -59.5t54.5 -87t18.5 -104q0 -54 -18.5 -103t-54 -87t-86.5 -59.5t-115 -21.5zM166 261q0 -46 18 -81.5t49 -55.5t70 -20
q38 0 69 20.5t49.5 56t18.5 81.5q0 45 -18.5 81t-49.5 56t-69 20q-39 0 -70 -20.5t-49 -56t-18 -81.5zM151 605v119h111v-119h-111zM343 605v119h111v-119h-111z" />
    <glyph glyph-name="uni04EC" unicode="&#x4ec;" horiz-adv-x="713" 
d="M329 -6q-68 0 -124 20.5t-98 57.5t-71 87l114 65q18 -33 45 -57.5t61.5 -37.5t73.5 -13q48 0 87 18.5t66.5 51t42 75t14.5 89.5l56 -38h-327v102h324l-54 -37q-2 42 -16 81t-41 69t-65 47.5t-87 17.5q-38 0 -72 -12.5t-60 -36.5t-44 -59l-109 75q43 68 111.5 111.5
t174.5 43.5q83 0 148 -30t110 -81t68.5 -115t23.5 -133q0 -72 -24.5 -137t-71 -115.5t-111.5 -79.5t-145 -29zM209 791v119h111v-119h-111zM401 791v119h111v-119h-111z" />
    <glyph glyph-name="uni04ED" unicode="&#x4ed;" horiz-adv-x="576" 
d="M274 -9q-53 0 -99.5 15t-82 44.5t-57.5 69.5l107 50q20 -36 52 -54.5t72 -18.5q37 0 67 16.5t50.5 44.5t26.5 63h-184v87h183q-7 32 -26 59t-48.5 43t-68.5 16t-70 -16t-52 -52l-101 53q31 56 90 89t140 33q67 0 118 -22t86 -60.5t53 -87t18 -100.5q0 -53 -18 -101.5
t-53.5 -87t-86.5 -61t-116 -22.5zM136 605v119h111v-119h-111zM328 605v119h111v-119h-111z" />
    <glyph glyph-name="uni04EE" unicode="&#x4ee;" horiz-adv-x="639" 
d="M143 -5v114h56q26 0 39 11t23 35l16 35l-282 520h152l191 -380l166 380h145l-283 -620q-26 -53 -59 -74t-88 -21h-76zM181 819v83h300v-83h-300z" />
    <glyph glyph-name="uni04EF" unicode="&#x4ef;" horiz-adv-x="550" 
d="M139 -226q-21 0 -42.5 5t-49.5 15l26 106q15 -7 28.5 -10t24.5 -3q25 0 44.5 18t31.5 55l16 43l-212 521h139l141 -387l124 387h128l-214 -599q-17 -48 -45 -81.5t-64 -51.5t-76 -18zM126 633v83h300v-83h-300z" />
    <glyph glyph-name="uni04F0" unicode="&#x4f0;" horiz-adv-x="639" 
d="M143 -5v114h56q26 0 39 11t23 35l16 35l-282 520h152l191 -380l166 380h145l-283 -620q-26 -53 -59 -74t-88 -21h-76zM178 791v119h111v-119h-111zM370 791v119h111v-119h-111z" />
    <glyph glyph-name="uni04F1" unicode="&#x4f1;" horiz-adv-x="550" 
d="M139 -226q-21 0 -42.5 5t-49.5 15l26 106q15 -7 28.5 -10t24.5 -3q25 0 44.5 18t31.5 55l16 43l-212 521h139l141 -387l124 387h128l-214 -599q-17 -48 -45 -81.5t-64 -51.5t-76 -18zM123 605v119h111v-119h-111zM315 605v119h111v-119h-111z" />
    <glyph glyph-name="uni04F2" unicode="&#x4f2;" horiz-adv-x="639" 
d="M143 -5v114h56q26 0 39 11t23 35l16 35l-282 520h152l191 -380l166 380h145l-283 -620q-26 -53 -59 -74t-88 -21h-76zM267 772l-66 26l48 119h104zM427 772l-65 26l47 119h105z" />
    <glyph glyph-name="uni04F3" unicode="&#x4f3;" horiz-adv-x="550" 
d="M139 -226q-21 0 -42.5 5t-49.5 15l26 106q15 -7 28.5 -10t24.5 -3q25 0 44.5 18t31.5 55l16 43l-212 521h139l141 -387l124 387h128l-214 -599q-17 -48 -45 -81.5t-64 -51.5t-76 -18zM212 586l-66 26l48 119h104zM372 586l-65 26l47 119h105z" />
    <glyph glyph-name="uni04F4" unicode="&#x4f4;" horiz-adv-x="676" 
d="M468 0v277q-11 -5 -32 -13t-53 -14t-75 -6q-124 0 -186 55t-62 176v235h134v-220q0 -63 32.5 -92.5t111.5 -29.5q35 0 70 7.5t60 19.5v315h134v-710h-134zM191 791v119h111v-119h-111zM383 791v119h111v-119h-111z" />
    <glyph glyph-name="uni04F5" unicode="&#x4f5;" horiz-adv-x="549" 
d="M353 0v188q-30 -13 -60.5 -19t-69.5 -6q-83 0 -130 44.5t-47 130.5v186h134v-168q0 -47 20.5 -69t63.5 -22q24 0 48 5t41 14v240h135v-524h-135zM119 605v119h111v-119h-111zM311 605v119h111v-119h-111z" />
    <glyph glyph-name="uni04F6" unicode="&#x4f6;" horiz-adv-x="537" 
d="M76 0v710h436v-121h-299v-589h-137zM222 -135v135h-108v121h226v-256h-118z" />
    <glyph glyph-name="uni04F7" unicode="&#x4f7;" horiz-adv-x="424" 
d="M61 0v524h347v-117h-213v-407h-134zM163 -127v127h-95v117h215v-244h-120z" />
    <glyph glyph-name="uni04F8" unicode="&#x4f8;" horiz-adv-x="920" 
d="M74 0v710h138v-254h145q79 0 133.5 -28t83.5 -78.5t29 -119.5q0 -68 -28 -120t-81 -81t-129 -29h-291zM212 112h134q41 0 66.5 16t37.5 42.5t12 59.5q0 29 -11.5 55t-37 42.5t-68.5 16.5h-133v-232zM708 0v709h138v-709h-138zM309 791v119h111v-119h-111zM501 791v119
h111v-119h-111z" />
    <glyph glyph-name="uni04F9" unicode="&#x4f9;" horiz-adv-x="760" 
d="M61 0v524h134v-165h92q95 0 145 -48t50 -127q0 -53 -21.5 -95t-62.5 -65.5t-102 -23.5h-235zM195 102h80q28 0 45 11t25.5 29t8.5 41q0 22 -8 39.5t-25.5 28t-46.5 10.5h-79v-159zM564 0v523h134v-523h-134zM229 605v119h111v-119h-111zM421 605v119h111v-119h-111z" />
    </font>
</defs>
</svg>
