<svg width="70" height="70" viewBox="0 0 70 70" fill="none" xmlns="http://www.w3.org/2000/svg">
<g id="button">
<g id="button exit">
<g id="Rectangle 64" filter="url(#filter0_b_103_1020)">
<rect width="70" height="70" fill="#7E7D7B" fill-opacity="0.7"/>
</g>
<path id="Vector" fill-rule="evenodd" clip-rule="evenodd" d="M61.9195 12.2921C62.2618 11.9503 62.5333 11.5444 62.7187 11.0976C62.9041 10.6508 62.9997 10.1718 63 9.68811C63.0003 9.20437 62.9053 8.72532 62.7205 8.27829C62.5356 7.83127 62.2646 7.42502 61.9227 7.08276C61.5809 6.7405 61.175 6.46892 60.7282 6.28353C60.2814 6.09813 59.8025 6.00256 59.3187 6.00226C58.835 6.00197 58.356 6.09695 57.9089 6.28179C57.4619 6.46664 57.0557 6.73772 56.7134 7.07956L34.4995 29.2938L12.292 7.07956C11.6008 6.38833 10.6633 6 9.68579 6C8.70825 6 7.77076 6.38833 7.07954 7.07956C6.38832 7.77079 6 8.7083 6 9.68585C6 10.6634 6.38832 11.6009 7.07954 12.2921L29.2934 34.5L7.07954 56.7079C6.73728 57.0501 6.46579 57.4565 6.28056 57.9036C6.09534 58.3508 6 58.8301 6 59.3141C6 59.7982 6.09534 60.2775 6.28056 60.7247C6.46579 61.1718 6.73728 61.5782 7.07954 61.9204C7.77076 62.6117 8.70825 63 9.68579 63C10.1698 63 10.6491 62.9047 11.0963 62.7194C11.5435 62.5342 11.9498 62.2627 12.292 61.9204L34.4995 39.7062L56.7134 61.9204C57.4047 62.6108 58.3418 62.9983 59.3187 62.9977C60.2957 62.9971 61.2324 62.6085 61.9227 61.9172C62.6131 61.226 63.0006 60.2888 63 59.3119C62.9994 58.3349 62.6107 57.3982 61.9195 56.7079L39.7056 34.5L61.9195 12.2921Z" fill="black" fill-opacity="0.8"/>
</g>
</g>
<defs>
<filter id="filter0_b_103_1020" x="-20" y="-20" width="110" height="110" filterUnits="userSpaceOnUse" color-interpolation-filters="sRGB">
<feFlood flood-opacity="0" result="BackgroundImageFix"/>
<feGaussianBlur in="BackgroundImageFix" stdDeviation="10"/>
<feComposite in2="SourceAlpha" operator="in" result="effect1_backgroundBlur_103_1020"/>
<feBlend mode="normal" in="SourceGraphic" in2="effect1_backgroundBlur_103_1020" result="shape"/>
</filter>
</defs>
</svg>
