<svg width="40" height="40" viewBox="0 0 40 40" fill="none" xmlns="http://www.w3.org/2000/svg">
<g id="exit">
<g id="Rectangle 64" filter="url(#filter0_b_234_254)">
<rect width="40" height="40" fill="url(#paint0_linear_234_254)"/>
</g>
<path id="Vector" fill-rule="evenodd" clip-rule="evenodd" d="M35.3827 7.02409C35.5783 6.82875 35.7335 6.59681 35.8394 6.34149C35.9454 6.08618 36 5.8125 36.0001 5.53608C36.0003 5.25966 35.946 4.98591 35.8404 4.73047C35.7348 4.47503 35.5799 4.24289 35.3846 4.04731C35.1892 3.85173 34.9573 3.69654 34.702 3.5906C34.4467 3.48467 34.173 3.43005 33.8966 3.42988C33.6201 3.42971 33.3464 3.48399 33.091 3.58961C32.8355 3.69524 32.6034 3.85014 32.4078 4.04548L19.7142 16.7393L7.02416 4.04548C6.62917 3.65049 6.09346 3.42859 5.53487 3.42859C4.97628 3.42859 4.44057 3.65049 4.04559 4.04548C3.65061 4.44047 3.42871 4.97619 3.42871 5.53479C3.42871 6.09338 3.65061 6.6291 4.04559 7.02409L16.7393 19.7143L4.04559 32.4045C3.85002 32.6001 3.69488 32.8323 3.58903 33.0878C3.48319 33.3433 3.42871 33.6172 3.42871 33.8938C3.42871 34.1704 3.48319 34.4443 3.58903 34.6998C3.69488 34.9554 3.85002 35.1875 4.04559 35.3831C4.44057 35.7781 4.97628 36 5.53487 36C5.81146 36 6.08534 35.9455 6.34087 35.8397C6.5964 35.7338 6.82858 35.5787 7.02416 35.3831L19.7142 22.6893L32.4078 35.3831C32.8028 35.7776 33.3383 35.9991 33.8966 35.9987C34.4548 35.9984 34.9901 35.7763 35.3846 35.3813C35.7791 34.9863 36.0005 34.4508 36.0001 33.8925C35.9998 33.3343 35.7777 32.799 35.3827 32.4045L22.6891 19.7143L35.3827 7.02409Z" fill="black" fill-opacity="0.8"/>
</g>
<defs>
<filter id="filter0_b_234_254" x="-20" y="-20" width="80" height="80" filterUnits="userSpaceOnUse" color-interpolation-filters="sRGB">
<feFlood flood-opacity="0" result="BackgroundImageFix"/>
<feGaussianBlur in="BackgroundImageFix" stdDeviation="10"/>
<feComposite in2="SourceAlpha" operator="in" result="effect1_backgroundBlur_234_254"/>
<feBlend mode="normal" in="SourceGraphic" in2="effect1_backgroundBlur_234_254" result="shape"/>
</filter>
<linearGradient id="paint0_linear_234_254" x1="20" y1="0" x2="20" y2="40" gradientUnits="userSpaceOnUse">
<stop stop-color="#AAAAAA" stop-opacity="0.91"/>
<stop offset="1" stop-color="#2E2D2C"/>
</linearGradient>
</defs>
</svg>
