<svg width="54" height="48" viewBox="0 0 54 48" fill="none" xmlns="http://www.w3.org/2000/svg">
<path d="M17.6416 25.2826L21.2912 11.837L30.6367 5.74636H32.5354L42.0267 0V1.83862L33.1832 7.0102L44.5086 2.52817L48.5969 2.64342L45.8228 5.28634L34.287 8.96359L47.575 6.55067L52.5394 6.66543L48.1589 8.50405L36.3314 10.5727L48.5969 10.3432L54 11.607L48.5969 13.3309L37.4998 12.6413L46.4067 14.4804L48.8892 16.5491L45.3847 16.8938L38.3759 14.8247L45.2383 18.1577L46.4067 20.3416L39.69 20.6863L41.4423 21.9394L42.0267 24.2488L39.8359 25.2826L40.5662 27.2365L38.8139 28.0413L38.9598 29.4204H35.8202V30.9147H33.1832L34.1412 32.0638L30.1993 31.6043L34.1412 33.5572L37.2082 35.2815L48.5969 36.0858L50.2033 37.6944L48.5969 38.6145L40.5662 36.6611L49.473 39.534L50.7872 40.7979H47.1363L40.5662 38.6145L48.4511 41.6022L49.473 42.9822L47.1363 43.5556L35.1637 39.0745L31.5128 38.8445L33.9954 42.2917L31.6593 41.7174L33.1832 43.5556L25.0885 42.9822L22.1679 41.1426L21.7299 39.0745L19.539 34.3615L11.5082 30.109L13.5601 30.1417L11.5082 28.6092L14.34 28.4564L12.393 27.6135L14.2426 27.3835L12.5878 26.4639L14.8265 25.9277L12.9769 24.6248L17.6416 25.2826Z" fill="black"/>
<path d="M17.7049 23.228L7.76248 20.6847L6.46898 17.7778L4.42621 19.8545V21.4112L10.4185 23.9029L17.2954 24.8889L17.7049 23.228Z" fill="black"/>
<path d="M26.5574 44.6635L24.6828 45.7587V46.7558L24.9943 47.5024L23.4326 46.9543V45.6601L22.4169 46.9048L22.9636 48L21.2459 46.6058L23.1204 44.6635L24.4476 44.4445L26.5574 44.6635Z" fill="black"/>
<path d="M22.1312 44.4445L20.7843 45.0047L20.3607 46.1723L21.2779 47.1111L20.7843 46.179L22.1312 44.4445Z" fill="black"/>
<path d="M22.1312 43.5551L20.1671 44.7859L19.7799 45.509L19.1165 45.7031L19.9327 44.2936L18.5484 44.7957L18.1892 46.2222L17.719 45.4987L18.5214 44.0204L17.4698 44.7337L17.3598 45.8502L16.8197 44.8887L18.1062 43.3898H20.4855L21.2192 42.6667L22.1312 43.5551Z" fill="black"/>
<path d="M0.514012 27.0751L1.67455 26.1379H3.54324L3.60857 25.6171L5.5426 24.8889H11.304L13.2787 26.1902L10.1841 26.503L12.9564 27.5556L9.92651 28.0112L12.7634 28.7917H10.1841L11.99 30.2222H10.1533L2.99718 28.4276H1.15992L-1.90735e-06 28.9737L0.514012 27.0751ZM5.28498 26.8099C5.54999 26.8099 5.76447 26.6364 5.76447 26.423C5.76447 26.2086 5.54938 26.0355 5.28498 26.0355C5.01934 26.0355 4.80424 26.2091 4.80424 26.423C4.80424 26.6364 5.01996 26.8099 5.28498 26.8099Z" fill="black"/>
</svg>
