<svg width="29" height="29" viewBox="0 0 29 29" fill="none" xmlns="http://www.w3.org/2000/svg">
<path fill-rule="evenodd" clip-rule="evenodd" d="M27.9598 3.14607C28.1309 2.97515 28.2667 2.77219 28.3594 2.54879C28.4521 2.32539 28.4998 2.08592 28.5 1.84405C28.5001 1.60219 28.4527 1.36266 28.3602 1.13915C28.2678 0.915633 28.1323 0.712511 27.9614 0.54138C27.7904 0.370249 27.5875 0.234459 27.3641 0.141763C27.1407 0.0490673 26.9012 0.00128074 26.6594 0.00113208C26.4175 0.000983426 26.178 0.0484756 25.9545 0.140897C25.731 0.233318 25.5278 0.368858 25.3567 0.539779L14.2498 11.6469L3.14601 0.539779C2.80041 0.194164 2.33166 -3.64165e-09 1.84289 0C1.35413 3.64165e-09 0.88538 0.194164 0.53977 0.539779C0.194161 0.885394 3.64159e-09 1.35415 0 1.84292C-3.64159e-09 2.3317 0.194161 2.80045 0.53977 3.14607L11.6467 14.25L0.53977 25.3539C0.368642 25.5251 0.232896 25.7282 0.140282 25.9518C0.0476675 26.1754 0 26.4151 0 26.6571C0 26.8991 0.0476675 27.1387 0.140282 27.3623C0.232896 27.5859 0.368642 27.7891 0.53977 27.9602C0.88538 28.3058 1.35413 28.5 1.84289 28.5C2.0849 28.5 2.32455 28.4523 2.54814 28.3597C2.77173 28.2671 2.97489 28.1313 3.14601 27.9602L14.2498 16.8531L25.3567 27.9602C25.7023 28.3054 26.1709 28.4992 26.6594 28.4989C27.1478 28.4986 27.6162 28.3042 27.9614 27.9586C28.3065 27.613 28.5003 27.1444 28.5 26.6559C28.4997 26.1675 28.3054 25.6991 27.9598 25.3539L16.8528 14.25L27.9598 3.14607Z" fill="#C0C0C0"/>
</svg>
