<svg width="15" height="15" viewBox="0 0 15 15" fill="none" xmlns="http://www.w3.org/2000/svg">
<path d="M13.585 1.21691H12.0982V0.498732C12.0982 0.36646 12.045 0.239613 11.9502 0.146082C11.8555 0.052552 11.7269 0 11.5929 0C11.4589 0 11.3303 0.052552 11.2356 0.146082C11.1408 0.239613 11.0875 0.36646 11.0875 0.498732V1.21292H3.91146V0.498732C3.91146 0.36646 3.85822 0.239613 3.76345 0.146082C3.66868 0.052552 3.54014 0 3.40611 0C3.27208 0 3.14354 0.052552 3.04877 0.146082C2.954 0.239613 2.90075 0.36646 2.90075 0.498732V1.21292H1.415C1.04059 1.21292 0.681447 1.35937 0.416228 1.62018C0.151009 1.88099 0.00133717 2.2349 0 2.6044V3.85619H14.996V2.6044C14.9936 2.23629 14.844 1.884 14.5798 1.62417C14.3155 1.36433 13.958 1.21795 13.585 1.21691Z" fill="#030303"/>
<path d="M0 13.6086C0.00133717 13.9781 0.151009 14.3321 0.416228 14.5929C0.681447 14.8537 1.04059 15.0001 1.415 15.0001H13.585C13.9594 15.0001 14.3186 14.8537 14.5838 14.5929C14.849 14.3321 14.9987 13.9781 15 13.6086V4.93066H0V13.6086ZM7.075 11.8681C7.11993 11.3986 7.26002 10.9428 7.48695 10.5278C7.71388 10.1128 8.02302 9.74698 8.396 9.45219C9.09541 8.72802 9.27835 8.50359 9.27835 7.93903C9.27835 7.51011 9.16616 7.17497 8.67192 7.17497C8.17769 7.17497 8.02709 7.53206 8.00384 8.10261H7.11138C7.08791 7.88932 7.11245 7.67355 7.18324 7.4707C7.25404 7.26785 7.36934 7.08292 7.52092 6.92914C7.6725 6.77535 7.85662 6.6565 8.06013 6.58105C8.26364 6.5056 8.48151 6.47542 8.6982 6.49268C8.90216 6.46457 9.10993 6.48291 9.30559 6.54629C9.50126 6.60966 9.67963 6.71641 9.82704 6.85833C9.97446 7.00025 10.087 7.17357 10.156 7.36504C10.2251 7.55652 10.2488 7.76103 10.2254 7.96295C10.2254 8.63226 10.0232 8.98738 9.26016 9.72451C8.78529 10.1283 8.40375 10.628 8.1413 11.1898H10.382L10.2567 11.9189H7.075V11.8681ZM4.67657 6.96749C5.047 6.91625 5.39635 6.76662 5.68728 6.5346H6.30281V11.9209H5.38104V7.53207C5.14897 7.58541 4.91179 7.61417 4.67354 7.61785L4.67657 6.96749Z" fill="#030303"/>
</svg>
