<svg width="17" height="17" viewBox="0 0 17 17" fill="none" xmlns="http://www.w3.org/2000/svg">
<path d="M8.50972 17.0005C10.1905 16.9986 11.833 16.4984 13.2295 15.5632C14.6261 14.628 15.714 13.2997 16.3559 11.7463C16.9977 10.1929 17.1646 8.48414 16.8354 6.83591C16.5063 5.18769 15.6958 3.67402 14.5066 2.48629C13.3174 1.29855 11.8027 0.490051 10.1541 0.162975C8.50546 -0.164103 6.79686 0.00494385 5.24428 0.648724C3.69169 1.2925 2.3648 2.38213 1.43136 3.77987C0.497913 5.1776 -0.000190735 6.82068 0 8.50145C0.000638962 9.61828 0.22126 10.7241 0.649271 11.7556C1.07728 12.7872 1.7043 13.7243 2.49451 14.5135C3.28472 15.3028 4.22266 15.9286 5.25476 16.3553C6.28686 16.782 7.3929 17.0013 8.50972 17.0005ZM8.19347 5.28439L12.8819 10.217L3.50412 10.217L8.19347 5.28439Z" fill="#030303"/>
</svg>
