<svg width="17" height="17" viewBox="0 0 17 17" fill="none" xmlns="http://www.w3.org/2000/svg">
<path d="M8.49028 0.000490287C6.80951 0.00241447 5.16704 0.5026 3.77048 1.4378C2.37393 2.37301 1.28597 3.70125 0.644144 5.25464C0.00231959 6.80804 -0.164562 8.51684 0.164589 10.1651C0.49374 11.8133 1.30415 13.327 2.49338 14.5147C3.68261 15.7024 5.19727 16.5109 6.8459 16.838C8.49454 17.1651 10.2031 16.996 11.7557 16.3523C13.3083 15.7085 14.6352 14.6188 15.5686 13.2211C16.5021 11.8234 17.0002 10.1803 17 8.49953C16.9994 7.3827 16.7787 6.27691 16.3507 5.24535C15.9227 4.21379 15.2957 3.27665 14.5055 2.48743C13.7153 1.69821 12.7773 1.07239 11.7452 0.645678C10.7131 0.218965 9.6071 -0.000276686 8.49028 0.000490287ZM8.80653 11.7166L4.11814 6.78396H13.4959L8.80653 11.7166Z" fill="#030303"/>
</svg>
