<svg width="24" height="24" viewBox="0 0 24 24" fill="none" xmlns="http://www.w3.org/2000/svg">
<path d="M13.0202 2C14.8202 2 15.2002 2.02 16.1202 2.06C17.1802 2.11 17.9102 2.28 18.5402 2.53C19.2002 2.78 19.7602 3.13 20.3102 3.68C20.8702 4.23 21.2102 4.79 21.4702 5.45C21.7202 6.08 21.8802 6.81 21.9302 7.88C21.9802 8.83 21.9902 9.2 21.9902 11.2V12.8C21.9902 14.8 21.9802 15.17 21.9302 16.12C21.9144 16.9468 21.7589 17.7651 21.4702 18.54C21.2102 19.2 20.8702 19.76 20.3202 20.31C19.7602 20.87 19.2002 21.21 18.5402 21.47C17.9102 21.72 17.1802 21.88 16.1202 21.93C15.1702 21.98 14.7902 21.99 12.7902 21.99H11.2002C9.20015 21.99 8.83015 21.98 7.87015 21.93C7.04333 21.9141 6.22515 21.7586 5.45015 21.47C4.78376 21.2195 4.17981 20.8271 3.68015 20.32C3.16796 19.8186 2.77199 19.211 2.52015 18.54C2.23177 17.765 2.07626 16.9468 2.06015 16.12C2.01113 15.0874 1.99112 14.0537 2.00015 13.02V10.97C2.00015 9.17 2.02015 8.79 2.06015 7.87C2.11015 6.81 2.28015 6.08 2.52015 5.45C2.78015 4.79 3.12015 4.23 3.68015 3.68C4.17533 3.16743 4.78059 2.77418 5.45015 2.53C6.22461 2.23821 7.04278 2.07931 7.87015 2.06C8.79015 2.02 9.17015 2 10.9702 2H13.0202ZM13.0402 3.8H10.9502C9.22015 3.8 8.85015 3.82 7.95015 3.86C6.98015 3.9 6.45015 4.06 6.10015 4.2C5.63015 4.38 5.30015 4.6 4.95015 4.95C4.60015 5.3 4.38015 5.63 4.20015 6.1C4.07015 6.45 3.90015 6.98 3.86015 7.96C3.82015 8.86 3.80015 9.22 3.80015 10.96V13.04C3.80015 14.78 3.82015 15.14 3.86015 16.04C3.90015 17.01 4.06015 17.54 4.20015 17.89C4.38015 18.36 4.60015 18.69 4.95015 19.04C5.30015 19.39 5.63015 19.61 6.10015 19.79C6.45015 19.93 6.98015 20.09 7.96015 20.13C8.93015 20.18 9.28015 20.19 11.4402 20.19H12.5502C14.7202 20.19 15.0602 20.18 16.0402 20.13C17.0102 20.09 17.5402 19.93 17.8902 19.79C18.3602 19.61 18.6902 19.39 19.0402 19.04C19.3902 18.69 19.6102 18.36 19.7902 17.89C19.9302 17.54 20.0902 17.01 20.1302 16.04C20.1802 15.06 20.1902 14.72 20.1902 12.55V11.45C20.1902 9.28 20.1802 8.93 20.1302 7.95C20.0902 6.98 19.9302 6.45 19.7902 6.1C19.6292 5.66543 19.373 5.27246 19.0402 4.95C18.7179 4.61692 18.3249 4.3606 17.8902 4.2C17.2971 3.98317 16.6716 3.86822 16.0402 3.86C15.0409 3.81227 14.0405 3.79226 13.0402 3.8ZM12.0002 6.86C13.362 6.86 14.6681 7.40101 15.6311 8.36401C16.5941 9.32701 17.1352 10.6331 17.1352 11.995C17.1352 13.3569 16.5941 14.663 15.6311 15.626C14.6681 16.589 13.362 17.13 12.0002 17.13C10.6383 17.13 9.33216 16.589 8.36916 15.626C7.40616 14.663 6.86515 13.3569 6.86515 11.995C6.86515 10.6331 7.40616 9.32701 8.36916 8.36401C9.33216 7.40101 10.6383 6.86 12.0002 6.86ZM12.0002 8.66C11.1157 8.66 10.2674 9.01136 9.64195 9.6368C9.01652 10.2622 8.66515 11.1105 8.66515 11.995C8.66515 12.8795 9.01652 13.7278 9.64195 14.3532C10.2674 14.9786 11.1157 15.33 12.0002 15.33C12.8847 15.33 13.7329 14.9786 14.3584 14.3532C14.9838 13.7278 15.3352 12.8795 15.3352 11.995C15.3352 11.1105 14.9838 10.2622 14.3584 9.6368C13.7329 9.01136 12.8847 8.66 12.0002 8.66ZM17.3302 5.46C17.6484 5.46 17.9536 5.58643 18.1787 5.81147C18.4037 6.03652 18.5302 6.34174 18.5302 6.66C18.5302 6.97826 18.4037 7.28348 18.1787 7.50853C17.9536 7.73357 17.6484 7.86 17.3302 7.86C17.0119 7.86 16.7067 7.73357 16.4816 7.50853C16.2566 7.28348 16.1302 6.97826 16.1302 6.66C16.1302 6.34174 16.2566 6.03652 16.4816 5.81147C16.7067 5.58643 17.0119 5.46 17.3302 5.46Z" fill="white"/>
</svg>
