<svg width="24" height="24" viewBox="0 0 24 24" fill="none" xmlns="http://www.w3.org/2000/svg">
<path d="M12.0002 2C9.67571 2.00824 7.42667 2.82602 5.63977 4.31277C3.85286 5.79952 2.63972 7.86234 2.20891 10.1466C1.77809 12.4309 2.15652 14.7939 3.27913 16.8293C4.40174 18.8648 6.1984 20.4456 8.36023 21.3C8.26023 20.51 8.19023 19.3 8.39023 18.43L9.56023 13.46C9.56023 13.46 9.26023 12.86 9.26023 11.98C9.26023 10.59 10.0702 9.56 11.0802 9.56C11.9302 9.56 12.3502 10.2 12.3502 10.96C12.3502 11.82 11.8002 13.1 11.5102 14.29C11.2702 15.29 12.0102 16.1 13.0002 16.1C14.7802 16.1 16.1402 14.23 16.1402 11.53C16.1402 9.13 14.4202 7.47 11.9602 7.47C11.3758 7.44433 10.7923 7.53734 10.2448 7.74342C9.69733 7.94951 9.19729 8.26438 8.77487 8.66904C8.35245 9.07371 8.01641 9.55977 7.78702 10.0979C7.55763 10.636 7.43966 11.215 7.44023 11.8C7.44023 12.66 7.77023 13.58 8.18023 14.08C8.26023 14.18 8.27023 14.27 8.24023 14.37L7.96023 15.5C7.92023 15.68 7.81023 15.73 7.63023 15.64C6.37023 15.05 5.59023 13.24 5.59023 11.76C5.59023 8.61 7.89023 5.72 12.2102 5.72C15.6702 5.72 18.3802 8.18 18.3802 11.49C18.3802 14.94 16.2002 17.71 13.1802 17.71C12.1802 17.71 11.2202 17.18 10.9002 16.56L10.2702 18.93C9.97509 19.8577 9.55811 20.7421 9.03023 21.56C10.4041 21.9816 11.8526 22.1021 13.2772 21.9133C14.7018 21.7245 16.069 21.2309 17.2856 20.4661C18.5023 19.7014 19.5398 18.6833 20.3275 17.4814C21.1152 16.2795 21.6346 14.9219 21.8504 13.5011C22.0661 12.0804 21.9731 10.6298 21.5776 9.24822C21.1822 7.86664 20.4936 6.58652 19.5588 5.49506C18.6241 4.40359 17.465 3.52642 16.1607 2.9233C14.8563 2.32017 13.4373 2.00525 12.0002 2Z" fill="white"/>
</svg>
