<svg width="10" height="12" viewBox="0 0 10 12" fill="none" xmlns="http://www.w3.org/2000/svg">
<path fill-rule="evenodd" clip-rule="evenodd" d="M5.4777 0.219168C5.87773 0.564178 5.94259 1.19347 5.62256 1.62473L2.37578 6.00004L5.62256 10.3753C5.94259 10.8066 5.87773 11.4359 5.4777 11.7809C5.07766 12.1259 4.49394 12.056 4.17391 11.6247L0 6.00004L4.17391 0.375342C4.49394 -0.0559202 5.07766 -0.125842 5.4777 0.219168ZM9.65184 0.219168C10.0519 0.564178 10.1167 1.19347 9.7967 1.62473L6.54992 6.00004L9.7967 10.3753C10.1167 10.8066 10.0519 11.4359 9.65184 11.7809C9.2518 12.1259 8.66808 12.056 8.34805 11.6247L4.17414 6.00004L8.34805 0.375342C8.66808 -0.0559202 9.2518 -0.125842 9.65184 0.219168Z" fill="#999999"/>
</svg>
