<svg width="15" height="15" viewBox="0 0 15 15" fill="none" xmlns="http://www.w3.org/2000/svg">
<path d="M7.49142 1.76945e-06C6.00839 0.00169958 4.55915 0.443039 3.32689 1.26822C2.09464 2.0934 1.13468 3.26537 0.568362 4.63602C0.00204669 6.00666 -0.145202 7.51442 0.145226 8.96874C0.435653 10.4231 1.15072 11.7586 2.20004 12.8066C3.24936 13.8546 4.58582 14.568 6.0405 14.8566C7.49518 15.1452 9.00276 14.9961 10.3727 14.428C11.7426 13.86 12.9134 12.8985 13.737 11.6652C14.5607 10.4319 15.0002 8.98218 15 7.49915C14.9994 6.51371 14.8048 5.53802 14.4271 4.62782C14.0495 3.71762 13.4962 2.89073 12.799 2.19436C12.1017 1.49799 11.2741 0.945796 10.3634 0.569285C9.45277 0.192773 8.47685 -0.000674971 7.49142 1.76945e-06ZM10.4004 10.0192C10.3273 10.1214 10.2166 10.1904 10.0926 10.211C9.9686 10.2316 9.84152 10.2022 9.73927 10.1291L6.95478 8.14311V3.93588C6.9492 3.87048 6.95726 3.80465 6.97846 3.74253C6.99965 3.68041 7.03353 3.62336 7.07792 3.57501C7.12232 3.52667 7.17627 3.48806 7.23636 3.46166C7.29645 3.43526 7.36139 3.42162 7.42702 3.42162C7.49266 3.42162 7.55758 3.43526 7.61768 3.46166C7.67777 3.48806 7.73172 3.52667 7.77611 3.57501C7.82051 3.62336 7.85438 3.68041 7.87558 3.74253C7.89677 3.80465 7.90483 3.87048 7.89925 3.93588V7.65713L10.2862 9.36063C10.3372 9.39608 10.3808 9.44124 10.4143 9.49353C10.4479 9.54581 10.4709 9.60421 10.4819 9.66537C10.4929 9.72652 10.4917 9.78923 10.4785 9.84994C10.4652 9.91065 10.4402 9.96816 10.4047 10.0192H10.4004Z" fill="#030303"/>
</svg>
