<svg width="24" height="24" viewBox="0 0 24 24" fill="none" xmlns="http://www.w3.org/2000/svg">
<path d="M22 5.88C21.25 6.25 20.5 6.38 19.62 6.5C20.5 6 21.12 5.25 21.37 4.25C20.5606 4.73131 19.6743 5.06959 18.75 5.25C17.9485 4.46227 16.8737 4.01446 15.75 4C13.62 4 11.75 5.88 11.75 8.13C11.75 8.5 11.75 8.75 11.88 9C10.2422 8.93823 8.63643 8.52707 7.17046 7.79408C5.70448 7.0611 4.41212 6.02321 3.38 4.75C3.00812 5.39563 2.83425 6.13634 2.88 6.88C2.89162 7.55196 3.06825 8.21077 3.39434 8.79842C3.72043 9.38608 4.18597 9.88456 4.75 10.25C4.12 10.25 3.5 10 2.87 9.75C2.87 11.75 4.25 13.38 6.12 13.75C5.75 13.88 5.37 13.88 5 13.88C4.75 13.88 4.5 13.88 4.25 13.75C4.75 15.38 6.25 16.63 8.13 16.63C6.67779 17.7963 4.8622 18.4156 3 18.38H2C3.87496 19.5591 6.03554 20.2056 8.25 20.25C15.75 20.25 19.88 14 19.88 8.62V8.12C20.7387 7.53355 21.4617 6.76969 22 5.88Z" fill="white"/>
</svg>
