<svg width="36" height="30" viewBox="0 0 36 30" fill="none" xmlns="http://www.w3.org/2000/svg">
<path d="M32.2053 15L35.6703 11.535C35.8901 11.3152 36 11.0474 36 10.7337C36 10.4199 35.8901 10.1522 35.6703 9.93234L34.0677 8.32972C33.8478 8.10991 33.5801 8 33.2663 8C32.9526 8 32.6848 8.10991 32.465 8.32972L29 11.7947L25.535 8.32972C25.3152 8.10991 25.0474 8 24.7337 8C24.4199 8 24.1522 8.10991 23.9323 8.32972L22.3297 9.93234C22.1099 10.1522 22 10.4199 22 10.7337C22 11.0474 22.1099 11.3152 22.3297 11.535L25.7947 15L22.3297 18.465C22.1099 18.6848 22 18.9526 22 19.2663C22 19.5801 22.1099 19.8478 22.3297 20.0677L23.9323 21.6703C24.1522 21.8901 24.4199 22 24.7337 22C25.0474 22 25.3152 21.8901 25.535 21.6703L29 18.2053L32.465 21.6703C32.6848 21.8901 32.9516 22 33.2663 22C33.5811 22 33.8478 21.8901 34.0677 21.6703L35.6703 20.0677C35.8901 19.8478 36 19.5801 36 19.2663C36 18.9526 35.8901 18.6848 35.6703 18.465L32.2053 15Z" fill="#B3B3B3"/>
<path d="M18.3326 0C17.8816 0 17.4905 0.156374 17.1604 0.469123L8.48928 8.68426H1.66737C1.21531 8.68426 0.825273 8.84064 0.495164 9.15339C0.165055 9.46614 0 9.83665 0 10.2639V19.7361C0 20.1633 0.165055 20.5339 0.495164 20.8466C0.825273 21.1594 1.21636 21.3157 1.66737 21.3157H8.48928L17.1604 29.5309C17.4905 29.8436 17.8806 30 18.3326 30C18.7847 30 19.1747 29.8436 19.5048 29.5309C19.8349 29.2181 20 28.8486 20 28.4203V1.57968C20 1.15239 19.8349 0.781873 19.5059 0.469123C19.1768 0.156374 18.7857 0 18.3337 0H18.3326Z" fill="#B3B3B3"/>
</svg>
