<svg width="220" height="220" viewBox="0 0 220 220" fill="none" xmlns="http://www.w3.org/2000/svg">
<path d="M110 8.89168C130.003 8.88778 149.558 14.816 166.191 25.9266C182.825 37.0372 195.79 52.831 203.446 71.3106C211.103 89.7901 213.107 110.125 209.206 129.744C205.304 149.363 195.672 167.384 181.528 181.528C167.384 195.672 149.363 205.304 129.744 209.206C110.125 213.107 89.7901 211.103 71.3106 203.446C52.8311 195.79 37.0372 182.825 25.9266 166.191C14.816 149.558 8.88783 130.003 8.89174 110C8.92833 83.1956 19.5925 57.4996 38.546 38.546C57.4996 19.5925 83.1956 8.92828 110 8.89168ZM110 0C88.2441 0 66.9767 6.45139 48.8873 18.5383C30.7979 30.6253 16.6989 47.805 8.37331 67.9048C0.0476618 88.0047 -2.1307 110.122 2.11367 131.46C6.35805 152.798 16.8345 172.398 32.2183 187.782C47.602 203.166 67.2022 213.642 88.5401 217.886C109.878 222.131 131.995 219.952 152.095 211.627C172.195 203.301 189.375 189.202 201.462 171.113C213.549 153.023 220 131.756 220 110C220 80.8262 208.411 52.8473 187.782 32.2183C167.153 11.5893 139.174 0 110 0Z" fill="white"/>
<path d="M167.954 110L76.5278 49.9119C76.6463 140.498 76.5278 96.0498 76.5278 170.088L167.954 110Z" fill="white"/>
</svg>
