<svg width="59" height="70" viewBox="0 0 59 70" fill="none" xmlns="http://www.w3.org/2000/svg">
<path d="M5 28.1082V42.8918C5 43.3819 5.19112 43.8519 5.53133 44.1985C5.87153 44.545 6.33294 44.7397 6.81406 44.7397H19.5125L31.4599 56.9103C33.7456 59.2387 37.6531 57.5884 37.6531 54.2973V16.7027C37.6531 13.4116 33.7456 11.7613 31.4599 14.0897L19.5125 26.2603H6.81406C6.33294 26.2603 5.87153 26.455 5.53133 26.8015C5.19112 27.1481 5 27.6181 5 28.1082Z" stroke="white" stroke-width="3.5" stroke-linecap="round" stroke-linejoin="round"/>
<path d="M44.7959 40.6136L49.8979 35.5M49.8979 35.5L55 30.3864M49.8979 35.5L44.7959 30.3864M49.8979 35.5L55 40.6136" stroke="white" stroke-width="2.625" stroke-linecap="round" stroke-linejoin="round"/>
</svg>
