<?xml version="1.0" standalone="no"?>
<!DOCTYPE svg PUBLIC "-//W3C//DTD SVG 20010904//EN"
 "http://www.w3.org/TR/2001/REC-SVG-20010904/DTD/svg10.dtd">
<svg version="1.0" xmlns="http://www.w3.org/2000/svg"
 width="512.000000pt" height="512.000000pt" viewBox="0 0 512.000000 512.000000"
 preserveAspectRatio="xMidYMid meet">

<g transform="translate(0.000000,512.000000) scale(0.100000,-0.100000)"
fill="#000000" stroke="none">
<path d="M1405 2640 l-1120 -1120 -63 0 -62 0 0 -80 0 -80 2400 0 2400 0 0 80
0 80 -62 0 -63 0 -1120 1120 c-1058 1057 -1122 1120 -1155 1120 -33 0 -97 -63
-1155 -1120z m1213 733 l54 -106 -56 -56 -56 -56 -56 56 -56 56 54 106 c29 59
55 107 58 107 3 0 29 -48 58 -107z m-434 -265 c-36 -73 -68 -135 -70 -137 -3
-3 -21 12 -42 32 l-37 37 100 100 c55 55 103 100 107 100 5 0 -22 -60 -58
-132z m801 32 l100 -100 -37 -37 c-21 -20 -39 -35 -42 -32 -13 14 -135 269
-128 269 4 0 52 -45 107 -100z m-640 -200 c-54 -54 -101 -98 -103 -96 -2 2 27
64 63 136 l67 133 36 -36 37 -37 -100 -100z m471 39 c36 -72 64 -133 62 -135
-2 -2 -49 41 -103 96 l-99 100 34 35 c19 19 35 35 37 35 2 0 32 -59 69 -131z
m-836 -114 l55 -55 -69 -137 -68 -136 -91 91 -92 92 100 100 c55 55 102 100
105 100 3 0 30 -25 60 -55z m685 -45 l100 -100 -103 -103 -102 -102 -102 102
-103 103 100 100 c55 55 102 100 105 100 3 0 50 -45 105 -100z m640 0 l100
-100 -92 -92 -91 -91 -68 136 -69 137 55 55 c30 30 57 55 60 55 3 0 50 -45
105 -100z m-1600 -320 l100 -100 -103 -103 -102 -102 -102 102 -103 103 100
100 c55 55 102 100 105 100 3 0 50 -45 105 -100z m640 0 l100 -100 -103 -103
-102 -102 -102 102 -103 103 100 100 c55 55 102 100 105 100 3 0 50 -45 105
-100z m640 0 l100 -100 -103 -103 -102 -102 -102 102 -103 103 100 100 c55 55
102 100 105 100 3 0 50 -45 105 -100z m640 0 l100 -100 -103 -103 -102 -102
-102 102 -103 103 100 100 c55 55 102 100 105 100 3 0 50 -45 105 -100z
m-2240 -320 l100 -100 -103 -103 -102 -102 -102 102 -103 103 100 100 c55 55
102 100 105 100 3 0 50 -45 105 -100z m1280 0 l100 -100 -103 -103 -102 -102
-102 102 -103 103 100 100 c55 55 102 100 105 100 3 0 50 -45 105 -100z m1280
0 l100 -100 -103 -103 -102 -102 -102 102 -103 103 100 100 c55 55 102 100
105 100 3 0 50 -45 105 -100z m-1923 -202 l-102 -103 -56 56 -56 56 69 136 68
137 90 -90 90 -90 -103 -102z m1234 -47 l-56 -56 -102 103 -103 102 90 90 90
90 68 -136 69 -137 -56 -56z m-2191 -71 l100 -100 -103 -103 -102 -102 -102
102 -103 103 100 100 c55 55 102 100 105 100 3 0 50 -45 105 -100z m479 -32
c-36 -73 -68 -135 -70 -137 -3 -3 -21 12 -42 32 l-37 37 100 100 c55 55 103
100 107 100 5 0 -22 -60 -58 -132z m761 72 l59 -60 -124 0 -124 0 59 60 c33
33 62 60 65 60 3 0 32 -27 65 -60z m640 0 l59 -60 -124 0 -124 0 59 60 c33 33
62 60 65 60 3 0 32 -27 65 -60z m680 -40 l100 -100 -37 -37 c-21 -20 -39 -35
-42 -32 -13 14 -135 269 -128 269 4 0 52 -45 107 -100z m640 0 l100 -100 -103
-103 -102 -102 -102 102 -103 103 100 100 c55 55 102 100 105 100 3 0 50 -45
105 -100z m-2560 -200 c-54 -54 -101 -98 -103 -96 -2 2 27 64 63 136 l67 133
36 -36 37 -37 -100 -100z m1751 39 c36 -72 64 -133 62 -135 -2 -2 -49 41 -103
96 l-99 100 34 35 c19 19 35 35 37 35 2 0 32 -59 69 -131z m-2751 -119 l59
-60 -124 0 -124 0 59 60 c33 33 62 60 65 60 3 0 32 -27 65 -60z m632 8 c29
-29 53 -56 53 -60 0 -4 -53 -8 -117 -8 l-117 0 59 60 c33 33 62 60 64 60 3 0
29 -23 58 -52z m2568 -8 l59 -60 -117 0 c-64 0 -117 3 -117 7 0 9 102 113 110
113 3 0 32 -27 65 -60z m640 0 l59 -60 -124 0 -124 0 59 60 c33 33 62 60 65
60 3 0 32 -27 65 -60z"/>
</g>
</svg>
